{
.appVersion = "895";
DisplayStrings = (
"nnnannn\012nnnonnn"
);
classes = (
{
code = z;
name = public.kern1.kc0_10;
},
{
code = r;
name = public.kern1.kc0_5;
},
{
code = r;
name = public.kern2.kc0_6;
},
{
code = "u v w x y ugrave uacute ucircumflex udieresis yacute ydieresis";
name = public.kern2.kc0_3;
},
{
code = "i igrave iacute icircumflex idieresis dotlessi";
name = public.kern1.kc0_2;
},
{
code = v;
name = public.kern1.kc0_7;
},
{
code = "i j igrave iacute icircumflex idieresis dotlessi dotlessj";
name = public.kern2.kc0_5;
},
{
code = "o ograve oacute ocircumflex otilde odieresis";
name = public.kern1.kc0_4;
},
{
code = w;
name = public.kern1.kc0_9;
},
{
code = s;
name = public.kern2.kc0_2;
},
{
code = d;
name = public.kern1.kc0_1;
},
{
code = t;
name = public.kern1.kc0_6;
},
{
code = "n m";
name = public.kern2.kc0_7;
},
{
code = z;
name = public.kern2.kc0_4;
},
{
code = f;
name = public.kern1.kc0_3;
},
{
code = x;
name = public.kern1.kc0_8;
},
{
code = t;
name = public.kern2.kc0_1;
}
);
copyright = "Copyright (c) 1997, 2009, 2011 American Mathematical Society (<http://www.ams.org>), with Reserved Font Name EURM10.";
customParameters = (
{
name = glyphOrder;
value = (
Gamma,
Delta,
Theta,
Lambda,
Xi,
Pi,
Sigma,
Upsilon,
Phi,
Psi,
Omega,
alpha,
beta,
gamma,
delta,
epsilon1,
zeta,
eta,
theta,
iota,
kappa,
lambda,
mu,
nu,
xi,
pi,
rho,
sigma,
tau,
upsilon,
phi,
chi,
psi,
omega,
epsilon,
theta1,
pi1,
phi1,
zero,
one,
two,
three,
four,
five,
six,
seven,
eight,
nine,
period,
comma,
less,
slash,
greater,
partialdiff,
A,
B,
C,
D,
E,
F,
G,
H,
I,
J,
K,
L,
M,
N,
O,
P,
Q,
R,
S,
T,
U,
V,
W,
X,
Y,
Z,
lscript,
a,
b,
c,
d,
e,
f,
g,
h,
i,
j,
k,
l,
m,
n,
o,
p,
q,
r,
s,
t,
u,
v,
w,
x,
y,
z,
dotlessi,
dotlessj,
weierstrass,
space,
f.alt,
parenleft,
parenright,
quoteleft,
quoteright,
asterisk,
plus,
colon,
semicolon,
question,
equal,
minus,
bracketleft,
bracketright,
asciicircum,
exclam,
quotedbl,
quotesingle,
ampersand,
asciitilde,
braceleft,
braceright,
bar,
backslash,

glyphs = (
{
color = 1;
glyphname = Gamma;
lastChange = "2016-09-03 04:52:46 +0000";
layers = (
{
layerId = "21503E60-83E9-42CA-80F5-20ED7CD97021";
paths = (
{
closed = 1;
nodes = (
"464 697 CURVE",
"477 522 LINE",
"452 522 LINE",
"427 604 LINE SMOOTH",
"412 653 OFFCURVE",
"317 652 OFFCURVE",
"258 652 CURVE SMOOTH",
"238 652 OFFCURVE",
"217 651 OFFCURVE",
"197 650 CURVE SMOOTH",
"159 647 OFFCURVE",
"161 586 OFFCURVE",
"161 549 CURVE SMOOTH",
"161 372 OFFCURVE",
"161 194 OFFCURVE",
"164 16 CURVE",
"87 -7 LINE",
"77 4 LINE",
"80 187 OFFCURVE",
"84 461 OFFCURVE",
"84 553 CURVE SMOOTH",
"84 583 OFFCURVE",
"89 633 OFFCURVE",
"68 651 CURVE SMOOTH",
"42 673 LINE",
"45 693 LINE",
"282 693 LINE SMOOTH",
"343 693 OFFCURVE",
"404 694 OFFCURVE"
);
}
);
width = 492;
}
);
unicode = 0393;
},
{
color = 1;
glyphname = Delta;
lastChange = "2016-09-03 04:52:46 +0000";
layers = (
{
layerId = "21503E60-83E9-42CA-80F5-20ED7CD97021";
paths = (
{
closed = 1;
nodes = (
"379 671 LINE",
"437 696 LINE",
"511 472 OFFCURVE",
"597 253 OFFCURVE",
"705 44 CURVE",
"704 28 LINE",
"643 -4 LINE",
"518 4 OFFCURVE",
"394 10 OFFCURVE",
"269 10 CURVE SMOOTH",
"195 10 OFFCURVE",
"121 8 OFFCURVE",
"48 3 CURVE",
"46 45 LINE"
);
},
{
closed = 1;
nodes = (
"578 50 CURVE",
"584 59 LINE",
"543 153 OFFCURVE",
"383 553 OFFCURVE",
"383 554 CURVE",
"372 554 LINE",
"277 390 OFFCURVE",
"197 233 OFFCURVE",
"117 64 CURVE",
"120 52 LINE",
"155 53 OFFCURVE",
"190 53 OFFCURVE",
"225 53 CURVE SMOOTH",
"343 53 OFFCURVE",
"461 50 OFFCURVE"
);
}
);
width = 751;
}
);
unicode = 2206;
},
{
color = 1;
glyphname = Theta;
lastChange = "2016-09-03 04:52:46 +0000";
layers = (
{
layerId = "21503E60-83E9-42CA-80F5-20ED7CD97021";
paths = (
{
closed = 1;
nodes = (
"220 349 LINE",
"217 457 LINE",
"242 457 LINE",
"242 438 OFFCURVE",
"246 419 OFFCURVE",
"246 400 CURVE SMOOTH",
"246 379 OFFCURVE",
"360 384 OFFCURVE",
"413 384 CURVE SMOOTH",
"453 384 OFFCURVE",
"536 375 OFFCURVE",
"535 406 CURVE SMOOTH",
"533 457 LINE",
"561 457 LINE",
"561 243 LINE",
"531 244 LINE",
"531 249 OFFCURVE",
"532 253 OFFCURVE",
"532 258 CURVE SMOOTH",
"532 280 OFFCURVE",
"535 322 OFFCURVE",
"513 322 CURVE SMOOTH",
"478 322 OFFCURVE",
"444 326 OFFCURVE",
"409 326 CURVE SMOOTH",
"369 326 OFFCURVE",
"318 324 OFFCURVE",
"272 322 CURVE SMOOTH",
"262 322 OFFCURVE",
"247 320 OFFCURVE",
"247 306 CURVE SMOOTH",
"247 241 LINE",
"220 241 LINE"
);
},
{
closed = 1;
nodes = (
"348 -12 CURVE SMOOTH",
"272 -12 OFFCURVE",
"192 4 OFFCURVE",
"138 59 CURVE SMOOTH",
"67 130 OFFCURVE",
"41 232 OFFCURVE",
"41 331 CURVE SMOOTH",
"41 427 OFFCURVE",
"43 469 OFFCURVE",
"86 543 CURVE SMOOTH",
"144 643 OFFCURVE",
"283 701 OFFCURVE",
"435 701 CURVE SMOOTH",
"514 701 OFFCURVE",
"598 681 OFFCURVE",
"655 624 CURVE SMOOTH",
"718 561 OFFCURVE",
"738 468 OFFCURVE",
"738 381 CURVE SMOOTH",
"738 71 OFFCURVE",
"544 -12 OFFCURVE"
);
},
{
closed = 1;
nodes = (
"391 31 CURVE SMOOTH",
"476 31 OFFCURVE",
"529 58 OFFCURVE",
"579 108 CURVE SMOOTH",
"638 167 OFFCURVE",
"644 286 OFFCURVE",
"644 377 CURVE SMOOTH",
"644 457 OFFCURVE",
"624 539 OFFCURVE",
"567 596 CURVE SMOOTH",
"518 645 OFFCURVE",
"449 663 OFFCURVE",
"381 663 CURVE SMOOTH",
"187 663 OFFCURVE",
"134 504 OFFCURVE",
"134 345 CURVE SMOOTH",
"134 197 OFFCURVE",
"208 31 OFFCURVE"
);
}
);
width = 778;
}
);
unicode = 0398;
},
{
color = 1;
glyphname = Lambda;
lastChange = "2016-09-03 04:52:46 +0000";
layers = (
{
layerId = "21503E60-83E9-42CA-80F5-20ED7CD97021";
paths = (
{
closed = 1;
nodes = (
"368 673 CURVE",
"434 698 LINE",
"488 483 OFFCURVE",
"551 271 OFFCURVE",
"647 71 CURVE",
"652 59 OFFCURVE",
"666 51 OFFCURVE",
"679 52 CURVE SMOOTH",
"746 55 LINE",
"745 33 LINE",
"693 17 OFFCURVE",
"641 3 OFFCURVE",
"588 -7 CURVE",
"565 1 LINE",
"497 187 OFFCURVE",
"438 377 OFFCURVE",
"375 565 CURVE",
"363 565 LINE",
"268 377 OFFCURVE",
"122 83 OFFCURVE",
"94 17 CURVE",
"69 7 OFFCURVE",
"43 -2 OFFCURVE",
"16 -6 CURVE",
"3 4 LINE",
"130 224 OFFCURVE",
"253 446 OFFCURVE"
);
}
);
width = 748;
}
);
unicode = 039B;
},
{
color = 1;
glyphname = Xi;
lastChange = "2016-09-03 04:52:46 +0000";
layers = (
{
layerId = "21503E60-83E9-42CA-80F5-20ED7CD97021";
paths = (
{
closed = 1;
nodes = (
"556 688 LINE",
"578 524 LINE",
"544 524 LINE",
"528 585 LINE",
"524 606 OFFCURVE",
"501 618 OFFCURVE",
"483 618 CURVE SMOOTH",
"137 618 LINE SMOOTH",
"117 618 OFFCURVE",
"93 609 OFFCURVE",
"86 589 CURVE SMOOTH",
"63 525 LINE",
"36 523 LINE",
"43 580 OFFCURVE",
"44 638 OFFCURVE",
"49 695 CURVE"
);
},
{
closed = 1;
nodes = (
"131 329 CURVE",
"148 399 LINE",
"185 397 OFFCURVE",
"222 397 OFFCURVE",
"259 397 CURVE SMOOTH",
"323 397 OFFCURVE",
"386 399 OFFCURVE",
"450 402 CURVE",
"435 330 LINE",
"381 331 OFFCURVE",
"327 332 OFFCURVE",
"272 332 CURVE SMOOTH",
"225 332 OFFCURVE",
"178 331 OFFCURVE"
);
},
{
closed = 1;
nodes = (
"578 147 LINE",
"563 -6 LINE",
"562 -6 OFFCURVE",
"219 -2 OFFCURVE",
"47 0 CURVE",
"47 1 OFFCURVE",
"40 101 OFFCURVE",
"36 152 CURVE",
"62 153 LINE",
"76 102 LINE SMOOTH",
"81 83 OFFCURVE",
"96 72 OFFCURVE",
"113 72 CURVE SMOOTH",
"514 72 LINE SMOOTH",
"536 72 OFFCURVE",
"535 84 OFFCURVE",
"553 147 CURVE"
);
}
);
width = 613;
}
);
unicode = 039E;
},
{
color = 1;
glyphname = Pi;
lastChange = "2016-09-03 04:52:46 +0000";
layers = (
{
layerId = "21503E60-83E9-42CA-80F5-20ED7CD97021";
paths = (
{
closed = 1;
nodes = (
"668 658 LINE",
"592 641 LINE SMOOTH",
"587 640 OFFCURVE",
"583 638 OFFCURVE",
"579 635 CURVE",
"574 628 OFFCURVE",
"572 513 OFFCURVE",
"572 412 CURVE SMOOTH",
"572 277 OFFCURVE",
"574 143 OFFCURVE",
"584 8 CURVE",
"504 -14 LINE",
"490 -3 LINE",
"493 95 OFFCURVE",
"493 192 OFFCURVE",
"493 290 CURVE SMOOTH",
"493 398 OFFCURVE",
"492 519 OFFCURVE",
"491 627 CURVE SMOOTH",
"491 637 OFFCURVE",
"480 640 OFFCURVE",
"478 640 CURVE SMOOTH",
"189 640 LINE SMOOTH",
"183 640 OFFCURVE",
"175 634 OFFCURVE",
"175 626 CURVE",
"168 525 OFFCURVE",
"168 424 OFFCURVE",
"168 322 CURVE SMOOTH",
"168 240 OFFCURVE",
"171 118 OFFCURVE",
"173 15 CURVE",
"88 -4 LINE",
"81 2 LINE",
"88 155 OFFCURVE",
"89 307 OFFCURVE",
"89 461 CURVE SMOOTH",
"89 485 OFFCURVE",
"89 510 OFFCURVE",
"89 534 CURVE SMOOTH",
"89 564 OFFCURVE",
"88 620 OFFCURVE",
"76 632 CURVE",
"67 640 OFFCURVE",
"58 643 OFFCURVE",
"1 660 CURVE",
"1 690 LINE",
"76 685 OFFCURVE",
"151 681 OFFCURVE",
"226 681 CURVE SMOOTH",
"424 681 LINE SMOOTH",
"468 681 OFFCURVE",
"587 684 OFFCURVE",
"668 686 CURVE"
);
}
);
width = 668;
}
);
unicode = 03A0;
},
{
color = 1;
glyphname = Sigma;
lastChange = "2016-09-03 04:52:46 +0000";
layers = (
{
layerId = "21503E60-83E9-42CA-80F5-20ED7CD97021";
paths = (
{
closed = 1;
nodes = (
"299 362 CURVE",
"124 106 LINE",
"129 96 LINE",
"218 94 OFFCURVE",
"306 94 OFFCURVE",
"395 94 CURVE SMOOTH",
"449 94 OFFCURVE",
"503 96 OFFCURVE",
"556 104 CURVE",
"559 94 LINE",
"544 5 LINE",
"455 8 OFFCURVE",
"367 9 OFFCURVE",
"278 9 CURVE SMOOTH",
"188 9 OFFCURVE",
"98 2 OFFCURVE",
"8 2 CURVE",
"8 3 OFFCURVE",
"13 30 OFFCURVE",
"17 49 CURVE",
"180 265 LINE SMOOTH",
"199 291 OFFCURVE",
"224 325 OFFCURVE",
"234 350 CURVE",
"226 372 OFFCURVE",
"212 396 OFFCURVE",
"198 416 CURVE SMOOTH",
"46 641 LINE",
"114 688 LINE",
"150 687 OFFCURVE",
"186 687 OFFCURVE",
"222 687 CURVE SMOOTH",
"324 687 OFFCURVE",
"426 690 OFFCURVE",
"528 695 CURVE",
"532 684 LINE",
"510 635 LINE",
"179 635 LINE",
"168 622 LINE",
"305 400 LINE SMOOTH",
"308 395 OFFCURVE",
"310 390 OFFCURVE",
"310 384 CURVE SMOOTH",
"310 378 OFFCURVE",
"303 369 OFFCURVE"
);
}
);
width = 571;
}
);
unicode = 03A3;
},
{
color = 1;
glyphname = Upsilon;
lastChange = "2016-09-03 04:52:46 +0000";
layers = (
{
layerId = "21503E60-83E9-42CA-80F5-20ED7CD97021";
paths = (
{
closed = 1;
nodes = (
"672 546 CURVE",
"650 543 LINE",
"644 580 OFFCURVE",
"626 618 OFFCURVE",
"574 618 CURVE SMOOTH",
"546 618 OFFCURVE",
"521 607 OFFCURVE",
"501 587 CURVE SMOOTH",
"374 460 OFFCURVE",
"372 347 OFFCURVE",
"372 25 CURVE",
"305 -11 LINE",
"288 -4 LINE",
"292 71 OFFCURVE",
"292 146 OFFCURVE",
"292 221 CURVE SMOOTH",
"292 297 OFFCURVE",
"285 373 OFFCURVE",
"265 446 CURVE SMOOTH",
"244 523 OFFCURVE",
"196 625 OFFCURVE",
"112 625 CURVE SMOOTH",
"65 625 OFFCURVE",
"38 588 OFFCURVE",
"26 548 CURVE",
"7 555 LINE",
"19 624 OFFCURVE",
"48 697 OFFCURVE",
"142 697 CURVE SMOOTH",
"288 697 OFFCURVE",
"320 505 OFFCURVE",
"333 375 CURVE",
"342 375 LINE",
"363 498 OFFCURVE",
"411 697 OFFCURVE",
"566 697 CURVE SMOOTH",
"651 697 OFFCURVE",
"672 621 OFFCURVE"
);
}
);
width = 682;
}
);
unicode = 03A5;
},
{
color = 1;
glyphname = Phi;
lastChange = "2016-09-03 04:52:46 +0000";
layers = (
{
layerId = "21503E60-83E9-42CA-80F5-20ED7CD97021";
paths = (
{
closed = 1;
nodes = (
"234 684 LINE",
"493 686 LINE",
"493 661 LINE",
"430 651 LINE SMOOTH",
"415 649 OFFCURVE",
"406 635 OFFCURVE",
"406 621 CURVE SMOOTH",
"406 608 LINE",
"413 601 LINE",
"626 601 OFFCURVE",
"703 503 OFFCURVE",
"703 373 CURVE SMOOTH",
"703 298 OFFCURVE",
"683 221 OFFCURVE",
"630 168 CURVE SMOOTH",
"578 116 OFFCURVE",
"486 89 OFFCURVE",
"414 86 CURVE",
"406 80 LINE",
"409 60 OFFCURVE",
"422 42 OFFCURVE",
"443 38 CURVE SMOOTH",
"502 26 LINE",
"502 2 LINE",
"234 2 LINE",
"234 23 LINE",
"296 38 LINE SMOOTH",
"312 42 OFFCURVE",
"318 64 OFFCURVE",
"320 80 CURVE",
"313 86 LINE",
"169 88 OFFCURVE",
"28 159 OFFCURVE",
"28 332 CURVE SMOOTH",
"28 397 OFFCURVE",
"45 464 OFFCURVE",
"92 512 CURVE SMOOTH",
"149 570 OFFCURVE",
"230 599 OFFCURVE",
"312 601 CURVE",
"320 608 LINE",
"320 620 LINE SMOOTH",
"320 634 OFFCURVE",
"310 646 OFFCURVE",
"297 648 CURVE SMOOTH",
"234 657 LINE"
);
},
{
closed = 1;
nodes = (
"406 565 LINE",
"406 122 LINE",
"412 114 LINE",
"551 117 OFFCURVE",
"611 233 OFFCURVE",
"611 352 CURVE SMOOTH",
"611 523 OFFCURVE",
"522 571 OFFCURVE",
"413 573 CURVE"
);
},
{
closed = 1;
nodes = (
"320 121 LINE",
"320 565 LINE",
"313 573 LINE",
"191 568 OFFCURVE",
"120 463 OFFCURVE",
"120 347 CURVE SMOOTH",
"120 238 OFFCURVE",
"187 117 OFFCURVE",
"313 114 CURVE"
);
}
);
width = 732;
}
);
unicode = 03A6;
},
{
color = 1;
glyphname = Psi;
lastChange = "2016-09-03 04:52:46 +0000";
layers = (
{
layerId = "21503E60-83E9-42CA-80F5-20ED7CD97021";
paths = (
{
closed = 1;
nodes = (
"437 244 LINE",
"439 86 LINE SMOOTH",
"439 64 OFFCURVE",
"450 43 OFFCURVE",
"472 38 CURVE SMOOTH",
"529 26 LINE",
"529 -1 LINE",
"263 -1 LINE",
"263 26 LINE",
"331 38 LINE SMOOTH",
"353 42 OFFCURVE",
"360 78 OFFCURVE",
"360 87 CURVE SMOOTH",
"360 242 LINE",
"354 248 LINE",
"235 248 OFFCURVE",
"164 282 OFFCURVE",
"141 372 CURVE SMOOTH",
"92 539 OFFCURVE",
"139 644 OFFCURVE",
"72 644 CURVE",
"72 644 OFFCURVE",
"71 644 OFFCURVE",
"70 644 CURVE",
"7 634 LINE",
"0 656 LINE",
"108 692 LINE",
"111 694 OFFCURVE",
"131 694 OFFCURVE",
"143 694 CURVE SMOOTH",
"179 694 OFFCURVE",
"186 653 OFFCURVE",
"186 595 CURVE SMOOTH",
"186 463 OFFCURVE",
"204 283 OFFCURVE",
"354 275 CURVE",
"360 282 LINE",
"360 365 LINE SMOOTH",
"360 465 OFFCURVE",
"360 585 OFFCURVE",
"354 667 CURVE",
"440 690 LINE",
"444 682 LINE",
"437 607 OFFCURVE",
"431 533 OFFCURVE",
"431 458 CURVE SMOOTH",
"431 399 OFFCURVE",
"432 340 OFFCURVE",
"434 282 CURVE",
"441 276 LINE",
"553 282 OFFCURVE",
"582 396 OFFCURVE",
"600 523 CURVE SMOOTH",
"606 567 OFFCURVE",
"607 612 OFFCURVE",
"619 655 CURVE",
"653 667 OFFCURVE",
"688 675 OFFCURVE",
"723 679 CURVE",
"726 661 LINE",
"682 633 OFFCURVE",
"681 578 OFFCURVE",
"665 488 CURVE SMOOTH",
"634 285 OFFCURVE",
"560 253 OFFCURVE",
"443 251 CURVE"
);
}
);
width = 736;
}
);
unicode = 03A8;
},
{
color = 1;
glyphname = Omega;
lastChange = "2016-09-03 04:52:46 +0000";
layers = (
{
layerId = "21503E60-83E9-42CA-80F5-20ED7CD97021";
paths = (
{
closed = 1;
nodes = (
"853 60 CURVE",
"862 51 LINE",
"837 -2 LINE",
"778 3 OFFCURVE",
"718 5 OFFCURVE",
"659 5 CURVE SMOOTH",
"603 5 OFFCURVE",
"547 3 OFFCURVE",
"491 -1 CURVE",
"500 57 LINE",
"654 93 OFFCURVE",
"697 230 OFFCURVE",
"697 368 CURVE SMOOTH",
"697 505 OFFCURVE",
"629 654 OFFCURVE",
"462 654 CURVE SMOOTH",
"272 654 OFFCURVE",
"204 489 OFFCURVE",
"204 329 CURVE SMOOTH",
"204 211 OFFCURVE",
"249 81 OFFCURVE",
"393 53 CURVE",
"372 -2 LINE",
"302 4 OFFCURVE",
"233 8 OFFCURVE",
"164 8 CURVE SMOOTH",
"123 8 OFFCURVE",
"83 7 OFFCURVE",
"43 4 CURVE",
"60 65 LINE",
"121 62 OFFCURVE",
"197 59 OFFCURVE",
"250 54 CURVE",
"256 69 LINE",
"146 128 OFFCURVE",
"116 225 OFFCURVE",
"116 338 CURVE SMOOTH",
"116 434 OFFCURVE",
"144 527 OFFCURVE",
"212 595 CURVE SMOOTH",
"283 666 OFFCURVE",
"382 689 OFFCURVE",
"481 689 CURVE SMOOTH",
"718 689 OFFCURVE",
"787 538 OFFCURVE",
"787 385 CURVE SMOOTH",
"787 256 OFFCURVE",
"737 118 OFFCURVE",
"602 63 CURVE",
"602 51 LINE",
"687 55 OFFCURVE",
"783 60 OFFCURVE"
);
}
);
width = 905;
}
);
unicode = 2126;
},
{
color = 1;
glyphname = alpha;
lastChange = "2016-09-03 04:52:46 +0000";
layers = (
{
layerId = "21503E60-83E9-42CA-80F5-20ED7CD97021";
paths = (
{
closed = 1;
nodes = (
"349 212 CURVE",
"315 324 OFFCURVE",
"288 411 OFFCURVE",
"212 411 CURVE SMOOTH",
"120 411 OFFCURVE",
"96 290 OFFCURVE",
"96 216 CURVE SMOOTH",
"96 159 OFFCURVE",
"113 62 OFFCURVE",
"182 62 CURVE SMOOTH",
"240 62 OFFCURVE",
"298 140 OFFCURVE"
);
},
{
closed = 1;
nodes = (
"504 468 LINE",
"555 445 LINE",
"509 376 OFFCURVE",
"417 238 OFFCURVE",
"417 237 CURVE",
"433 177 OFFCURVE",
"467 50 OFFCURVE",
"515 50 CURVE SMOOTH",
"540 50 OFFCURVE",
"575 75 OFFCURVE",
"602 96 CURVE",
"612 95 LINE",
"619 76 LINE",
"551 22 OFFCURVE",
"502 -20 OFFCURVE",
"468 -20 CURVE SMOOTH",
"445 -20 OFFCURVE",
"420 -1 OFFCURVE",
"414 24 CURVE",
"368 158 LINE",
"357 160 LINE",
"292 82 LINE SMOOTH",
"256 38 OFFCURVE",
"196 -12 OFFCURVE",
"136 -12 CURVE SMOOTH",
"55 -12 OFFCURVE",
"30 101 OFFCURVE",
"30 169 CURVE SMOOTH",
"30 307 OFFCURVE",
"111 468 OFFCURVE",
"262 468 CURVE SMOOTH",
"351 468 OFFCURVE",
"385 363 OFFCURVE",
"400 308 CURVE",
"410 307 LINE"
);
}
);
width = 609;
}
);
unicode = 03B1;
},
{
color = 1;
glyphname = beta;
lastChange = "2016-09-03 04:52:46 +0000";
layers = (
{
layerId = "21503E60-83E9-42CA-80F5-20ED7CD97021";
paths = (
{
closed = 1;
nodes = (
"324 380 LINE",
"373 378 OFFCURVE",
"428 366 OFFCURVE",
"458 335 CURVE SMOOTH",
"492 300 OFFCURVE",
"512 250 OFFCURVE",
"512 202 CURVE SMOOTH",
"512 64 OFFCURVE",
"396 -15 OFFCURVE",
"267 -15 CURVE SMOOTH",
"229 -15 OFFCURVE",
"193 -1 OFFCURVE",
"173 34 CURVE",
"222 103 LINE",
"235 97 LINE",
"235 95 OFFCURVE",
"235 92 OFFCURVE",
"235 90 CURVE SMOOTH",
"235 52 OFFCURVE",
"269 21 OFFCURVE",
"307 21 CURVE SMOOTH",
"391 21 OFFCURVE",
"427 120 OFFCURVE",
"427 194 CURVE SMOOTH",
"427 295 OFFCURVE",
"360 352 OFFCURVE",
"262 352 CURVE SMOOTH",
"241 352 OFFCURVE",
"220 352 OFFCURVE",
"199 350 CURVE",
"201 386 LINE",
"290 386 OFFCURVE",
"370 434 OFFCURVE",
"370 540 CURVE SMOOTH",
"370 596 OFFCURVE",
"329 651 OFFCURVE",
"269 651 CURVE SMOOTH",
"201 651 OFFCURVE",
"166 606 OFFCURVE",
"151 545 CURVE SMOOTH",
"129 458 OFFCURVE",
"135 394 OFFCURVE",
"135 208 CURVE SMOOTH",
"135 82 OFFCURVE",
"137 -44 OFFCURVE",
"144 -169 CURVE",
"68 -202 LINE",
"56 -187 LINE",
"61 3 OFFCURVE",
"57 194 OFFCURVE",
"65 384 CURVE SMOOTH",
"67 435 OFFCURVE",
"75 513 OFFCURVE",
"97 560 CURVE SMOOTH",
"135 641 OFFCURVE",
"206 698 OFFCURVE",
"312 698 CURVE SMOOTH",
"387 698 OFFCURVE",
"448 638 OFFCURVE",
"448 563 CURVE SMOOTH",
"448 488 OFFCURVE",
"390 417 OFFCURVE",
"325 392 CURVE"
);
}
);
width = 530;
}
);
unicode = 03B2;
},
{
color = 1;
glyphname = gamma;
lastChange = "2016-09-03 04:52:46 +0000";
layers = (
{
layerId = "21503E60-83E9-42CA-80F5-20ED7CD97021";
paths = (
{
closed = 1;
nodes = (
"538 470 LINE",
"598 443 LINE",
"518 312 OFFCURVE",
"428 188 OFFCURVE",
"353 54 CURVE",
"336 11 LINE",
"336 3 OFFCURVE",
"336 -4 OFFCURVE",
"336 -12 CURVE SMOOTH",
"336 -65 OFFCURVE",
"333 -120 OFFCURVE",
"328 -172 CURVE",
"294 -198 LINE",
"273 -191 OFFCURVE",
"255 -179 OFFCURVE",
"238 -165 CURVE",
"291 0 LINE",
"291 39 OFFCURVE",
"260 300 OFFCURVE",
"187 372 CURVE SMOOTH",
"168 390 OFFCURVE",
"143 403 OFFCURVE",
"117 403 CURVE SMOOTH",
"90 403 OFFCURVE",
"50 396 OFFCURVE",
"30 373 CURVE SMOOTH",
"7 346 LINE",
"-9 358 LINE",
"41 435 OFFCURVE",
"83 469 OFFCURVE",
"160 469 CURVE SMOOTH",
"309 469 OFFCURVE",
"333 238 OFFCURVE",
"333 92 CURVE",
"341 90 LINE",
"406 210 OFFCURVE",
"488 370 OFFCURVE",
"525 465 CURVE"
);
}
);
width = 589;
}
);
unicode = 03B3;
},
{
color = 1;
glyphname = delta;
lastChange = "2016-09-03 04:52:46 +0000";
layers = (
{
layerId = "21503E60-83E9-42CA-80F5-20ED7CD97021";
paths = (
{
closed = 1;
nodes = (
"349 687 CURVE",
"354 679 LINE",
"339 637 LINE",
"304 639 OFFCURVE",
"266 646 OFFCURVE",
"200 646 CURVE SMOOTH",
"167 646 OFFCURVE",
"135 637 OFFCURVE",
"135 605 CURVE SMOOTH",
"135 578 OFFCURVE",
"160 562 OFFCURVE",
"240 486 CURVE SMOOTH",
"335 395 LINE SMOOTH",
"373 356 OFFCURVE",
"403 306 OFFCURVE",
"403 251 CURVE SMOOTH",
"403 122 OFFCURVE",
"300 -9 OFFCURVE",
"169 -9 CURVE SMOOTH",
"65 -9 OFFCURVE",
"21 78 OFFCURVE",
"21 160 CURVE SMOOTH",
"21 263 OFFCURVE",
"102 365 OFFCURVE",
"179 442 CURVE",
"141 477 OFFCURVE",
"87 527 OFFCURVE",
"87 565 CURVE SMOOTH",
"87 578 OFFCURVE",
"92 590 OFFCURVE",
"98 602 CURVE SMOOTH",
"133 673 OFFCURVE",
"196 694 OFFCURVE",
"269 694 CURVE SMOOTH",
"296 694 OFFCURVE",
"320 691 OFFCURVE"
);
},
{
closed = 1;
nodes = (
"203 422 CURVE",
"133 350 OFFCURVE",
"98 288 OFFCURVE",
"98 212 CURVE SMOOTH",
"98 140 OFFCURVE",
"134 44 OFFCURVE",
"219 44 CURVE SMOOTH",
"294 44 OFFCURVE",
"339 126 OFFCURVE",
"339 209 CURVE SMOOTH",
"339 281 OFFCURVE",
"263 362 OFFCURVE"
);
}
);
width = 423;
}
);
unicode = 03B4;
},
{
color = 1;
glyphname = epsilon1;
lastChange = "2016-09-03 04:52:46 +0000";
layers = (
{
layerId = "21503E60-83E9-42CA-80F5-20ED7CD97021";
paths = (
{
closed = 1;
nodes = (
"213 258 CURVE",
"332 258 LINE",
"318 216 LINE",
"288 217 OFFCURVE",
"224 217 OFFCURVE",
"177 217 CURVE SMOOTH",
"176 217 OFFCURVE",
"134 215 OFFCURVE",
"108 214 CURVE",
"103 208 LINE",
"105 159 OFFCURVE",
"123 111 OFFCURVE",
"158 76 CURVE SMOOTH",
"182 52 OFFCURVE",
"227 47 OFFCURVE",
"263 47 CURVE SMOOTH",
"314 47 OFFCURVE",
"365 63 OFFCURVE",
"404 96 CURVE",
"412 95 LINE",
"424 75 LINE",
"368 31 OFFCURVE",
"297 -11 OFFCURVE",
"225 -11 CURVE SMOOTH",
"174 -11 OFFCURVE",
"118 1 OFFCURVE",
"81 38 CURVE SMOOTH",
"38 81 OFFCURVE",
"22 143 OFFCURVE",
"22 203 CURVE SMOOTH",
"22 343 OFFCURVE",
"127 471 OFFCURVE",
"271 471 CURVE SMOOTH",
"323 471 OFFCURVE",
"372 449 OFFCURVE",
"409 412 CURVE",
"372 359 LINE",
"359 357 LINE",
"317 416 OFFCURVE",
"291 428 OFFCURVE",
"238 428 CURVE SMOOTH",
"142 428 OFFCURVE",
"107 341 OFFCURVE",
"105 263 CURVE",
"111 257 LINE",
"148 257 OFFCURVE",
"212 256 OFFCURVE"
);
}
);
width = 420;
}
);
},
{
color = 1;
glyphname = zeta;
lastChange = "2016-09-03 04:52:46 +0000";
layers = (
{
layerId = "21503E60-83E9-42CA-80F5-20ED7CD97021";
paths = (
{
closed = 1;
nodes = (
"363 -136 CURVE",
"342 -124 LINE",
"357 -97 OFFCURVE",
"376 -65 OFFCURVE",
"376 -39 CURVE SMOOTH",
"376 -15 OFFCURVE",
"347 -1 OFFCURVE",
"325 -1 CURVE SMOOTH",
"284 -1 OFFCURVE",
"216 -10 OFFCURVE",
"190 -10 CURVE SMOOTH",
"66 -10 OFFCURVE",
"28 81 OFFCURVE",
"28 174 CURVE SMOOTH",
"28 333 OFFCURVE",
"162 504 OFFCURVE",
"292 613 CURVE",
"291 620 LINE",
"200 628 LINE",
"175 632 OFFCURVE",
"149 638 OFFCURVE",
"131 655 CURVE",
"131 656 OFFCURVE",
"131 657 OFFCURVE",
"133 659 CURVE",
"161 694 LINE",
"163 695 OFFCURVE",
"164 695 OFFCURVE",
"166 695 CURVE SMOOTH",
"168 695 OFFCURVE",
"167 695 OFFCURVE",
"174 691 CURVE",
"222 659 OFFCURVE",
"264 647 OFFCURVE",
"319 647 CURVE SMOOTH",
"345 647 OFFCURVE",
"374 650 OFFCURVE",
"408 655 CURVE",
"408 636 LINE",
"253 587 OFFCURVE",
"105 391 OFFCURVE",
"105 210 CURVE SMOOTH",
"105 127 OFFCURVE",
"150 47 OFFCURVE",
"254 47 CURVE SMOOTH",
"294 47 OFFCURVE",
"331 53 OFFCURVE",
"355 53 CURVE SMOOTH",
"396 53 OFFCURVE",
"435 42 OFFCURVE",
"435 6 CURVE SMOOTH",
"435 -42 OFFCURVE",
"395 -96 OFFCURVE"
);
}
);
width = 421;
}
);
unicode = 03B6;
},
{
color = 1;
glyphname = eta;
lastChange = "2016-09-03 04:52:46 +0000";
layers = (
{
layerId = "21503E60-83E9-42CA-80F5-20ED7CD97021";
paths = (
{
closed = 1;
nodes = (
"416 -199 LINE",
"407 -188 LINE",
"408 -161 OFFCURVE",
"408 20 OFFCURVE",
"408 125 CURVE SMOOTH",
"408 295 OFFCURVE",
"428 402 OFFCURVE",
"323 402 CURVE SMOOTH",
"276 402 OFFCURVE",
"228 373 OFFCURVE",
"187 344 CURVE",
"185 320 OFFCURVE",
"185 237 OFFCURVE",
"185 184 CURVE SMOOTH",
"185 138 OFFCURVE",
"189 71 OFFCURVE",
"192 14 CURVE",
"120 -11 LINE",
"111 -1 LINE",
"111 334 LINE SMOOTH",
"111 366 OFFCURVE",
"109 408 OFFCURVE",
"72 408 CURVE SMOOTH",
"53 408 OFFCURVE",
"25 389 OFFCURVE",
"3 375 CURVE",
"-13 393 LINE",
"23 422 OFFCURVE",
"72 463 OFFCURVE",
"117 463 CURVE SMOOTH",
"158 463 OFFCURVE",
"183 442 OFFCURVE",
"186 393 CURVE",
"197 391 LINE",
"253 428 OFFCURVE",
"324 466 OFFCURVE",
"388 466 CURVE SMOOTH",
"492 466 OFFCURVE",
"481 381 OFFCURVE",
"481 204 CURVE SMOOTH",
"481 81 OFFCURVE",
"483 -42 OFFCURVE",
"498 -164 CURVE"
);
}
);
width = 540;
}
);
unicode = 03B7;
},
{
color = 1;
glyphname = theta;
lastChange = "2016-09-03 04:52:46 +0000";
layers = (
{
layerId = "21503E60-83E9-42CA-80F5-20ED7CD97021";
paths = (
{
closed = 1;
nodes = (
"214 -11 CURVE SMOOTH",
"61 -11 OFFCURVE",
"42 190 OFFCURVE",
"42 325 CURVE SMOOTH",
"42 385 OFFCURVE",
"43 447 OFFCURVE",
"62 505 CURVE SMOOTH",
"96 613 OFFCURVE",
"185 695 OFFCURVE",
"300 695 CURVE SMOOTH",
"453 695 OFFCURVE",
"469 502 OFFCURVE",
"469 368 CURVE SMOOTH",
"469 308 OFFCURVE",
"464 247 OFFCURVE",
"446 191 CURVE SMOOTH",
"414 88 OFFCURVE",
"323 -11 OFFCURVE"
);
},
{
closed = 1;
nodes = (
"125 370 LINE",
"379 370 LINE",
"384 377 LINE",
"378 481 OFFCURVE",
"373 648 OFFCURVE",
"255 648 CURVE SMOOTH",
"130 648 OFFCURVE",
"119 471 OFFCURVE",
"119 377 CURVE"
);
},
{
closed = 1;
nodes = (
"381 333 LINE",
"126 333 LINE",
"119 326 LINE",
"119 215 OFFCURVE",
"146 47 OFFCURVE",
"271 47 CURVE SMOOTH",
"298 47 OFFCURVE",
"319 64 OFFCURVE",
"338 83 CURVE SMOOTH",
"385 131 OFFCURVE",
"389 240 OFFCURVE",
"389 325 CURVE"
);
}
);
width = 500;
}
);
unicode = 03B8;
},
{
color = 1;
glyphname = iota;
lastChange = "2016-09-03 04:52:46 +0000";
layers = (
{
layerId = "21503E60-83E9-42CA-80F5-20ED7CD97021";
paths = (
{
closed = 1;
nodes = (
"275 109 LINE",
"288 95 LINE",
"250 47 OFFCURVE",
"195 -9 OFFCURVE",
"138 -9 CURVE SMOOTH",
"86 -9 OFFCURVE",
"57 52 OFFCURVE",
"57 102 CURVE SMOOTH",
"57 449 LINE",
"138 474 LINE",
"149 464 LINE",
"134 375 OFFCURVE",
"132 285 OFFCURVE",
"132 195 CURVE SMOOTH",
"132 150 OFFCURVE",
"130 64 OFFCURVE",
"191 64 CURVE SMOOTH",
"219 64 OFFCURVE",
"246 88 OFFCURVE",
"266 108 CURVE"
);
}
);
width = 278;
}
);
unicode = 03B9;
},
{
color = 1;
glyphname = kappa;
lastChange = "2016-09-03 04:52:46 +0000";
layers = (
{
layerId = "21503E60-83E9-42CA-80F5-20ED7CD97021";
paths = (
{
closed = 1;
nodes = (
"450 441 LINE",
"449 426 LINE",
"360 388 OFFCURVE",
"247 323 OFFCURVE",
"204 272 CURVE",
"203 270 OFFCURVE",
"203 268 OFFCURVE",
"203 266 CURVE",
"207 255 LINE",
"287 180 OFFCURVE",
"373 112 OFFCURVE",
"462 48 CURVE",
"461 34 LINE",
"394 -2 LINE",
"309 70 OFFCURVE",
"219 146 OFFCURVE",
"143 216 CURVE",
"134 212 LINE",
"134 151 OFFCURVE",
"137 85 OFFCURVE",
"140 22 CURVE",
"77 -4 LINE",
"61 1 LINE",
"62 64 OFFCURVE",
"62 128 OFFCURVE",
"62 191 CURVE SMOOTH",
"62 274 OFFCURVE",
"61 356 OFFCURVE",
"58 439 CURVE",
"137 465 LINE",
"142 459 LINE",
"140 401 OFFCURVE",
"136 295 OFFCURVE",
"135 264 CURVE",
"141 262 LINE",
"217 344 OFFCURVE",
"305 412 OFFCURVE",
"399 472 CURVE"
);
}
);
width = 459;
}
);
unicode = 03BA;
},
{
color = 1;
glyphname = lambda;
lastChange = "2016-09-03 04:52:46 +0000";
layers = (
{
layerId = "21503E60-83E9-42CA-80F5-20ED7CD97021";
paths = (
{
closed = 1;
nodes = (
"394 -4 LINE",
"248 380 LINE SMOOTH",
"247 383 OFFCURVE",
"244 386 OFFCURVE",
"240 386 CURVE",
"236 385 OFFCURVE",
"234 382 OFFCURVE",
"233 379 CURVE",
"105 108 OFFCURVE",
"96 89 OFFCURVE",
"70 11 CURVE",
"11 -6 LINE",
"-7 7 LINE",
"224 442 LINE",
"220 476 OFFCURVE",
"175 646 OFFCURVE",
"94 646 CURVE SMOOTH",
"79 646 OFFCURVE",
"47 639 OFFCURVE",
"24 634 CURVE",
"16 659 LINE",
"60 675 OFFCURVE",
"110 690 OFFCURVE",
"162 690 CURVE SMOOTH",
"194 690 OFFCURVE",
"220 674 OFFCURVE",
"252 612 CURVE SMOOTH",
"274 568 OFFCURVE",
"304 461 OFFCURVE",
"328 396 CURVE SMOOTH",
"346 344 OFFCURVE",
"381 247 OFFCURVE",
"482 27 CURVE",
"482 26 OFFCURVE",
"483 25 OFFCURVE",
"483 23 CURVE SMOOTH",
"483 19 OFFCURVE",
"481 15 OFFCURVE",
"481 15 CURVE",
"408 -11 LINE"
);
}
);
width = 481;
}
);
unicode = 03BB;
},
{
color = 1;
glyphname = mu;
lastChange = "2016-09-03 04:52:46 +0000";
layers = (
{
layerId = "21503E60-83E9-42CA-80F5-20ED7CD97021";
paths = (
{
closed = 1;
nodes = (
"492 466 LINE",
"500 455 LINE",
"497 414 OFFCURVE",
"494 363 OFFCURVE",
"494 332 CURVE SMOOTH",
"494 165 LINE SMOOTH",
"494 131 OFFCURVE",
"499 66 OFFCURVE",
"546 66 CURVE SMOOTH",
"569 66 OFFCURVE",
"599 84 OFFCURVE",
"623 99 CURVE",
"634 97 LINE",
"642 83 LINE",
"601 45 OFFCURVE",
"545 -1 OFFCURVE",
"490 -1 CURVE SMOOTH",
"438 -1 OFFCURVE",
"427 27 OFFCURVE",
"421 68 CURVE",
"413 73 LINE",
"355 40 OFFCURVE",
"279 -3 OFFCURVE",
"230 -3 CURVE SMOOTH",
"198 -3 OFFCURVE",
"185 7 OFFCURVE",
"168 27 CURVE",
"162 25 LINE",
"162 -41 OFFCURVE",
"168 -116 OFFCURVE",
"181 -179 CURVE",
"128 -199 LINE",
"116 -193 LINE",
"118 -101 OFFCURVE",
"120 -9 OFFCURVE",
"120 83 CURVE SMOOTH",
"120 272 LINE SMOOTH",
"120 327 OFFCURVE",
"107 412 OFFCURVE",
"103 436 CURVE",
"186 462 LINE",
"195 455 LINE",
"195 186 LINE SMOOTH",
"195 130 OFFCURVE",
"203 57 OFFCURVE",
"288 57 CURVE SMOOTH",
"324 57 OFFCURVE",
"380 81 OFFCURVE",
"416 120 CURVE",
"417 168 OFFCURVE",
"419 241 OFFCURVE",
"419 262 CURVE SMOOTH",
"419 320 OFFCURVE",
"417 377 OFFCURVE",
"415 434 CURVE"
);
}
);
width = 682;
}
);
unicode = 00B5;
},
{
color = 1;
glyphname = nu;
lastChange = "2016-09-03 04:52:46 +0000";
layers = (
{
layerId = "21503E60-83E9-42CA-80F5-20ED7CD97021";
paths = (
{
closed = 1;
nodes = (
"534 444 LINE",
"398 170 LINE SMOOTH",
"374 122 OFFCURVE",
"352 74 OFFCURVE",
"332 24 CURVE",
"276 -8 LINE",
"269 -1 LINE",
"257 80 OFFCURVE",
"241 161 OFFCURVE",
"214 238 CURVE SMOOTH",
"191 304 OFFCURVE",
"148 402 OFFCURVE",
"75 402 CURVE SMOOTH",
"44 402 OFFCURVE",
"23 394 OFFCURVE",
"8 384 CURVE",
"-12 410 LINE",
"23 449 OFFCURVE",
"66 471 OFFCURVE",
"119 471 CURVE SMOOTH",
"149 471 OFFCURVE",
"182 460 OFFCURVE",
"203 439 CURVE SMOOTH",
"258 384 OFFCURVE",
"295 220 OFFCURVE",
"321 101 CURVE",
"326 101 LINE",
"382 219 OFFCURVE",
"418 329 OFFCURVE",
"451 458 CURVE",
"474 468 LINE",
"531 452 LINE"
);
}
);
width = 529;
}
);
unicode = 03BD;
},
{
color = 1;
glyphname = xi;
lastChange = "2016-09-03 04:52:46 +0000";
layers = (
{
layerId = "21503E60-83E9-42CA-80F5-20ED7CD97021";
paths = (
{
closed = 1;
nodes = (
"411 -137 CURVE",
"390 -122 LINE",
"405 -97 OFFCURVE",
"424 -67 OFFCURVE",
"424 -43 CURVE SMOOTH",
"424 -1 OFFCURVE",
"379 8 OFFCURVE",
"345 8 CURVE SMOOTH",
"293 8 OFFCURVE",
"187 -8 OFFCURVE",
"159 -8 CURVE SMOOTH",
"76 -8 OFFCURVE",
"14 45 OFFCURVE",
"14 126 CURVE SMOOTH",
"14 234 OFFCURVE",
"105 311 OFFCURVE",
"199 340 CURVE",
"199 346 LINE",
"148 357 OFFCURVE",
"91 381 OFFCURVE",
"91 451 CURVE SMOOTH",
"91 530 OFFCURVE",
"159 585 OFFCURVE",
"227 612 CURVE",
"226 620 LINE",
"182 621 OFFCURVE",
"135 626 OFFCURVE",
"94 648 CURVE",
"122 694 LINE",
"130 694 LINE",
"169 662 OFFCURVE",
"220 649 OFFCURVE",
"270 649 CURVE SMOOTH",
"301 649 OFFCURVE",
"336 654 OFFCURVE",
"368 660 CURVE",
"368 632 LINE",
"281 622 OFFCURVE",
"169 588 OFFCURVE",
"169 478 CURVE SMOOTH",
"169 387 OFFCURVE",
"255 366 OFFCURVE",
"329 358 CURVE",
"329 335 LINE",
"221 335 OFFCURVE",
"99 287 OFFCURVE",
"99 155 CURVE SMOOTH",
"99 86 OFFCURVE",
"152 47 OFFCURVE",
"218 47 CURVE SMOOTH",
"274 47 OFFCURVE",
"358 58 OFFCURVE",
"398 58 CURVE SMOOTH",
"430 58 OFFCURVE",
"485 49 OFFCURVE",
"485 7 CURVE SMOOTH",
"485 -40 OFFCURVE",
"443 -94 OFFCURVE"
);
}
);
width = 472;
}
);
unicode = 03BE;
},
{
color = 1;
glyphname = pi;
lastChange = "2016-09-03 04:52:46 +0000";
layers = (
{
layerId = "21503E60-83E9-42CA-80F5-20ED7CD97021";
paths = (
{
closed = 1;
nodes = (
"171 460 CURVE SMOOTH",
"494 460 LINE SMOOTH",
"533 460 OFFCURVE",
"571 470 OFFCURVE",
"605 488 CURVE",
"613 481 LINE",
"578 422 LINE",
"544 406 OFFCURVE",
"507 395 OFFCURVE",
"469 394 CURVE",
"462 387 LINE",
"460 352 OFFCURVE",
"456 316 OFFCURVE",
"456 282 CURVE SMOOTH",
"456 192 OFFCURVE",
"454 63 OFFCURVE",
"519 63 CURVE SMOOTH",
"537 63 OFFCURVE",
"553 69 OFFCURVE",
"568 79 CURVE",
"574 77 LINE",
"584 60 LINE",
"553 32 OFFCURVE",
"512 0 OFFCURVE",
"471 0 CURVE SMOOTH",
"452 0 OFFCURVE",
"430 0 OFFCURVE",
"418 12 CURVE SMOOTH",
"389 39 OFFCURVE",
"387 102 OFFCURVE",
"387 147 CURVE SMOOTH",
"387 228 OFFCURVE",
"393 308 OFFCURVE",
"403 388 CURVE",
"397 394 LINE",
"254 394 LINE",
"227 264 OFFCURVE",
"182 133 OFFCURVE",
"138 5 CURVE",
"127 -5 LINE",
"72 10 LINE",
"71 23 LINE",
"138 139 OFFCURVE",
"192 282 OFFCURVE",
"217 394 CURVE",
"143 394 LINE SMOOTH",
"94 394 OFFCURVE",
"68 384 OFFCURVE",
"45 325 CURVE SMOOTH",
"27 279 LINE",
"6 288 LINE",
"34 401 LINE",
"52 459 OFFCURVE",
"113 460 OFFCURVE"
);
}
);
width = 596;
}
);
unicode = 03C0;
},
{
color = 1;
glyphname = rho;
lastChange = "2016-09-03 04:52:46 +0000";
layers = (
{
layerId = "21503E60-83E9-42CA-80F5-20ED7CD97021";
paths = (
{
closed = 1;
nodes = (
"77 -189 LINE",
"57 -181 LINE",
"51 -77 OFFCURVE",
"46 28 OFFCURVE",
"46 133 CURVE SMOOTH",
"46 253 OFFCURVE",
"43 358 OFFCURVE",
"119 425 CURVE SMOOTH",
"160 461 OFFCURVE",
"217 477 OFFCURVE",
"271 477 CURVE SMOOTH",
"322 477 OFFCURVE",
"369 459 OFFCURVE",
"406 423 CURVE SMOOTH",
"446 383 OFFCURVE",
"455 309 OFFCURVE",
"455 251 CURVE SMOOTH",
"455 133 OFFCURVE",
"371 -3 OFFCURVE",
"251 -3 CURVE SMOOTH",
"197 -3 OFFCURVE",
"152 25 OFFCURVE",
"119 75 CURVE",
"112 74 LINE",
"115 -6 OFFCURVE",
"119 -78 OFFCURVE",
"139 -156 CURVE",
"139 -157 OFFCURVE",
"135 -165 OFFCURVE",
"133 -169 CURVE"
);
},
{
closed = 1;
nodes = (
"117 231 CURVE SMOOTH",
"117 154 OFFCURVE",
"138 47 OFFCURVE",
"222 47 CURVE SMOOTH",
"326 47 OFFCURVE",
"367 147 OFFCURVE",
"367 234 CURVE SMOOTH",
"367 324 OFFCURVE",
"347 441 OFFCURVE",
"256 441 CURVE SMOOTH",
"145 441 OFFCURVE",
"117 321 OFFCURVE"
);
}
);
width = 484;
}
);
unicode = 03C1;
},
{
color = 1;
glyphname = sigma;
lastChange = "2016-09-03 04:52:46 +0000";
layers = (
{
layerId = "21503E60-83E9-42CA-80F5-20ED7CD97021";
paths = (
{
closed = 1;
nodes = (
"210 462 CURVE SMOOTH",
"552 476 LINE",
"557 466 LINE",
"543 409 LINE",
"536 403 LINE",
"472 416 OFFCURVE",
"403 424 OFFCURVE",
"337 432 CURVE",
"336 426 LINE",
"403 381 OFFCURVE",
"438 311 OFFCURVE",
"438 228 CURVE SMOOTH",
"438 96 OFFCURVE",
"351 -5 OFFCURVE",
"206 -5 CURVE SMOOTH",
"77 -5 OFFCURVE",
"31 112 OFFCURVE",
"31 221 CURVE SMOOTH",
"31 339 OFFCURVE",
"84 457 OFFCURVE"
);
},
{
closed = 1;
nodes = (
"229 429 CURVE SMOOTH",
"141 429 OFFCURVE",
"114 327 OFFCURVE",
"114 253 CURVE SMOOTH",
"114 218 OFFCURVE",
"117 184 OFFCURVE",
"128 150 CURVE SMOOTH",
"143 102 OFFCURVE",
"183 36 OFFCURVE",
"243 36 CURVE SMOOTH",
"339 36 OFFCURVE",
"359 147 OFFCURVE",
"359 216 CURVE SMOOTH",
"359 307 OFFCURVE",
"333 429 OFFCURVE"
);
}
);
width = 543;
}
);
unicode = 03C3;
},
{
color = 1;
glyphname = tau;
lastChange = "2016-09-03 04:52:46 +0000";
layers = (
{
layerId = "21503E60-83E9-42CA-80F5-20ED7CD97021";
paths = (
{
closed = 1;
nodes = (
"130 461 CURVE SMOOTH",
"384 461 LINE SMOOTH",
"422 461 OFFCURVE",
"460 468 OFFCURVE",
"494 484 CURVE",
"507 475 LINE",
"464 408 LINE",
"437 402 OFFCURVE",
"409 398 OFFCURVE",
"381 398 CURVE SMOOTH",
"313 398 LINE",
"304 390 LINE",
"302 356 OFFCURVE",
"293 279 OFFCURVE",
"293 225 CURVE SMOOTH",
"293 191 OFFCURVE",
"292 57 OFFCURVE",
"354 57 CURVE SMOOTH",
"373 57 OFFCURVE",
"399 72 OFFCURVE",
"415 82 CURVE",
"424 80 LINE",
"433 66 LINE",
"394 29 OFFCURVE",
"341 -9 OFFCURVE",
"298 -9 CURVE SMOOTH",
"230 -9 OFFCURVE",
"220 79 OFFCURVE",
"220 142 CURVE SMOOTH",
"220 225 OFFCURVE",
"228 308 OFFCURVE",
"235 391 CURVE",
"228 398 LINE",
"153 398 LINE SMOOTH",
"125 398 OFFCURVE",
"88 396 OFFCURVE",
"68 376 CURVE SMOOTH",
"55 362 OFFCURVE",
"38 316 OFFCURVE",
"25 282 CURVE",
"3 285 LINE",
"7 304 OFFCURVE",
"29 406 OFFCURVE",
"42 426 CURVE SMOOTH",
"62 456 OFFCURVE",
"101 461 OFFCURVE"
);
}
);
width = 486;
}
);
unicode = 03C4;
},
{
color = 1;
glyphname = upsilon;
lastChange = "2016-09-03 04:52:46 +0000";
layers = (
{
layerId = "21503E60-83E9-42CA-80F5-20ED7CD97021";
paths = (
{
closed = 1;
nodes = (
"387 398 CURVE",
"383 416 LINE",
"425 467 LINE",
"445 471 LINE",
"490 423 OFFCURVE",
"519 362 OFFCURVE",
"519 296 CURVE SMOOTH",
"519 140 OFFCURVE",
"377 -12 OFFCURVE",
"221 -12 CURVE SMOOTH",
"140 -12 OFFCURVE",
"113 54 OFFCURVE",
"113 119 CURVE SMOOTH",
"113 330 LINE SMOOTH",
"113 371 OFFCURVE",
"105 414 OFFCURVE",
"75 414 CURVE SMOOTH",
"49 414 OFFCURVE",
"25 396 OFFCURVE",
"4 379 CURVE",
"-12 401 LINE",
"26 435 OFFCURVE",
"75 472 OFFCURVE",
"125 472 CURVE SMOOTH",
"181 472 OFFCURVE",
"191 422 OFFCURVE",
"191 376 CURVE SMOOTH",
"191 310 OFFCURVE",
"186 250 OFFCURVE",
"186 181 CURVE SMOOTH",
"186 109 OFFCURVE",
"213 51 OFFCURVE",
"280 51 CURVE SMOOTH",
"409 51 OFFCURVE",
"444 177 OFFCURVE",
"444 253 CURVE SMOOTH",
"444 307 OFFCURVE",
"426 360 OFFCURVE"
);
}
);
width = 543;
}
);
unicode = 03C5;
},
{
color = 1;
glyphname = phi;
lastChange = "2016-09-03 04:52:46 +0000";
layers = (
{
layerId = "21503E60-83E9-42CA-80F5-20ED7CD97021";
paths = (
{
closed = 1;
nodes = (
"365 -156 CURVE",
"293 -192 LINE",
"276 -182 LINE",
"277 -125 OFFCURVE",
"281 -70 OFFCURVE",
"281 -13 CURVE",
"273 -4 LINE",
"76 1 OFFCURVE",
"26 97 OFFCURVE",
"26 212 CURVE SMOOTH",
"26 284 OFFCURVE",
"50 354 OFFCURVE",
"100 405 CURVE SMOOTH",
"147 452 OFFCURVE",
"230 473 OFFCURVE",
"272 473 CURVE",
"281 482 LINE",
"281 539 OFFCURVE",
"279 596 OFFCURVE",
"275 652 CURVE",
"357 694 LINE",
"364 686 LINE",
"359 619 OFFCURVE",
"356 551 OFFCURVE",
"356 483 CURVE",
"364 473 LINE",
"549 473 OFFCURVE",
"619 383 OFFCURVE",
"619 259 CURVE SMOOTH",
"619 192 OFFCURVE",
"598 123 OFFCURVE",
"550 75 CURVE SMOOTH",
"500 25 OFFCURVE",
"433 4 OFFCURVE",
"363 2 CURVE",
"354 -8 LINE",
"354 -57 OFFCURVE",
"358 -107 OFFCURVE"
);
},
{
closed = 1;
nodes = (
"362 33 LINE",
"475 40 OFFCURVE",
"537 156 OFFCURVE",
"537 261 CURVE SMOOTH",
"537 312 OFFCURVE",
"526 364 OFFCURVE",
"490 401 CURVE SMOOTH",
"456 435 OFFCURVE",
"410 442 OFFCURVE",
"363 443 CURVE",
"354 434 LINE",
"354 42 LINE"
);
},
{
closed = 1;
nodes = (
"272 441 LINE",
"241 441 OFFCURVE",
"192 428 OFFCURVE",
"162 398 CURVE SMOOTH",
"121 357 OFFCURVE",
"109 298 OFFCURVE",
"109 242 CURVE SMOOTH",
"109 143 OFFCURVE",
"163 29 OFFCURVE",
"273 29 CURVE",
"281 38 LINE",
"281 433 LINE"
);
}
);
width = 644;
}
);
unicode = 03C6;
},
{
color = 1;
glyphname = chi;
lastChange = "2016-09-03 04:52:46 +0000";
layers = (
{
layerId = "21503E60-83E9-42CA-80F5-20ED7CD97021";
paths = (
{
closed = 1;
nodes = (
"294 206 LINE",
"481 456 LINE",
"501 460 LINE",
"534 428 LINE",
"535 421 LINE",
"356 215 LINE SMOOTH",
"340 196 OFFCURVE",
"323 177 OFFCURVE",
"308 156 CURVE",
"361 38 OFFCURVE",
"431 -132 OFFCURVE",
"493 -132 CURVE SMOOTH",
"517 -132 OFFCURVE",
"541 -128 OFFCURVE",
"562 -117 CURVE",
"570 -140 LINE",
"527 -165 OFFCURVE",
"473 -197 OFFCURVE",
"432 -197 CURVE SMOOTH",
"366 -197 OFFCURVE",
"324 -64 OFFCURVE",
"262 83 CURVE",
"252 83 LINE",
"194 -5 OFFCURVE",
"134 -94 OFFCURVE",
"98 -185 CURVE",
"81 -191 LINE",
"31 -161 LINE",
"99 -61 OFFCURVE",
"168 38 OFFCURVE",
"242 134 CURVE",
"242 135 OFFCURVE",
"168 277 OFFCURVE",
"133 349 CURVE SMOOTH",
"119 377 OFFCURVE",
"97 411 OFFCURVE",
"68 411 CURVE SMOOTH",
"50 411 OFFCURVE",
"22 389 OFFCURVE",
"3 374 CURVE",
"-12 395 LINE",
"51 443 LINE SMOOTH",
"70 458 OFFCURVE",
"95 466 OFFCURVE",
"120 466 CURVE SMOOTH",
"157 466 OFFCURVE",
"180 428 OFFCURVE",
"194 398 CURVE SMOOTH",
"284 206 LINE"
);
}
);
width = 525;
}
);
unicode = 03C7;
},
{
color = 1;
glyphname = psi;
lastChange = "2016-09-03 04:52:46 +0000";
layers = (
{
layerId = "21503E60-83E9-42CA-80F5-20ED7CD97021";
paths = (
{
closed = 1;
nodes = (
"352 -182 LINE",
"352 -6 LINE",
"345 2 LINE",
"155 2 OFFCURVE",
"113 66 OFFCURVE",
"113 172 CURVE SMOOTH",
"113 325 LINE SMOOTH",
"113 355 OFFCURVE",
"107 415 OFFCURVE",
"69 415 CURVE SMOOTH",
"50 415 OFFCURVE",
"25 398 OFFCURVE",
"5 385 CURVE",
"-12 406 LINE",
"27 437 OFFCURVE",
"76 472 OFFCURVE",
"123 472 CURVE SMOOTH",
"152 472 OFFCURVE",
"187 474 OFFCURVE",
"187 358 CURVE SMOOTH",
"187 229 LINE SMOOTH",
"187 149 OFFCURVE",
"199 108 OFFCURVE",
"228 80 CURVE SMOOTH",
"250 59 OFFCURVE",
"301 36 OFFCURVE",
"345 36 CURVE",
"352 42 LINE",
"352 357 LINE SMOOTH",
"352 453 OFFCURVE",
"346 561 OFFCURVE",
"340 662 CURVE",
"420 695 LINE",
"427 688 LINE",
"425 658 OFFCURVE",
"425 494 OFFCURVE",
"425 396 CURVE SMOOTH",
"425 44 LINE",
"431 37 LINE",
"494 42 OFFCURVE",
"547 96 OFFCURVE",
"561 114 CURVE SMOOTH",
"597 158 OFFCURVE",
"608 211 OFFCURVE",
"608 267 CURVE SMOOTH",
"608 321 OFFCURVE",
"581 370 OFFCURVE",
"545 409 CURVE",
"548 422 LINE",
"592 470 LINE",
"613 467 LINE",
"654 416 OFFCURVE",
"679 352 OFFCURVE",
"679 286 CURVE SMOOTH",
"679 147 OFFCURVE",
"571 33 OFFCURVE",
"432 4 CURVE",
"425 -4 LINE",
"425 -54 OFFCURVE",
"427 -105 OFFCURVE",
"434 -154 CURVE",
"358 -189 LINE"
);
}
);
width = 704;
}
);
unicode = 03C8;
},
{
color = 1;
glyphname = omega;
lastChange = "2016-09-03 04:52:46 +0000";
layers = (
{
layerId = "21503E60-83E9-42CA-80F5-20ED7CD97021";
paths = (
{
closed = 1;
nodes = (
"612 421 LINE",
"654 469 LINE",
"668 472 LINE",
"719 432 OFFCURVE",
"744 370 OFFCURVE",
"744 306 CURVE SMOOTH",
"744 164 OFFCURVE",
"639 -4 OFFCURVE",
"493 -4 CURVE SMOOTH",
"436 -4 OFFCURVE",
"408 10 OFFCURVE",
"372 87 CURVE",
"360 87 LINE",
"315 41 OFFCURVE",
"258 -13 OFFCURVE",
"188 -13 CURVE SMOOTH",
"84 -13 OFFCURVE",
"30 85 OFFCURVE",
"30 176 CURVE SMOOTH",
"30 293 OFFCURVE",
"69 419 OFFCURVE",
"204 466 CURVE",
"220 452 LINE",
"142 392 OFFCURVE",
"112 323 OFFCURVE",
"112 232 CURVE SMOOTH",
"112 152 OFFCURVE",
"142 50 OFFCURVE",
"232 50 CURVE SMOOTH",
"266 50 OFFCURVE",
"297 68 OFFCURVE",
"321 92 CURVE SMOOTH",
"354 125 OFFCURVE",
"358 196 OFFCURVE",
"358 249 CURVE SMOOTH",
"358 438 LINE",
"433 466 LINE",
"439 459 LINE",
"430 400 OFFCURVE",
"430 329 OFFCURVE",
"430 264 CURVE SMOOTH",
"430 179 OFFCURVE",
"444 61 OFFCURVE",
"538 61 CURVE SMOOTH",
"632 61 OFFCURVE",
"677 157 OFFCURVE",
"677 244 CURVE SMOOTH",
"677 305 OFFCURVE",
"657 368 OFFCURVE",
"609 409 CURVE"
);
}
);
width = 771;
}
);
unicode = 03C9;
},
{
color = 1;
glyphname = epsilon;
lastChange = "2016-09-03 04:52:46 +0000";
layers = (
{
layerId = "21503E60-83E9-42CA-80F5-20ED7CD97021";
paths = (
{
closed = 1;
nodes = (
"335 430 CURVE",
"305 365 LINE",
"294 366 LINE",
"279 409 OFFCURVE",
"238 430 OFFCURVE",
"198 430 CURVE SMOOTH",
"158 430 OFFCURVE",
"112 402 OFFCURVE",
"112 353 CURVE SMOOTH",
"112 266 OFFCURVE",
"170 279 OFFCURVE",
"251 274 CURVE",
"230 227 LINE",
"215 231 OFFCURVE",
"200 232 OFFCURVE",
"184 232 CURVE SMOOTH",
"139 232 OFFCURVE",
"91 205 OFFCURVE",
"91 151 CURVE SMOOTH",
"91 78 OFFCURVE",
"159 38 OFFCURVE",
"223 38 CURVE SMOOTH",
"269 38 OFFCURVE",
"317 66 OFFCURVE",
"356 98 CURVE",
"365 96 LINE",
"373 82 LINE",
"320 25 OFFCURVE",
"248 -15 OFFCURVE",
"169 -15 CURVE SMOOTH",
"95 -15 OFFCURVE",
"21 30 OFFCURVE",
"21 109 CURVE SMOOTH",
"21 166 OFFCURVE",
"52 210 OFFCURVE",
"106 235 CURVE",
"106 242 LINE",
"83 256 OFFCURVE",
"63 290 OFFCURVE",
"63 320 CURVE SMOOTH",
"63 416 OFFCURVE",
"145 471 OFFCURVE",
"230 471 CURVE SMOOTH",
"269 471 OFFCURVE",
"304 452 OFFCURVE"
);
}
);
width = 370;
}
);
unicode = 03B5;
},
{
color = 1;
glyphname = theta1;
lastChange = "2016-09-03 04:52:46 +0000";
layers = (
{
layerId = "21503E60-83E9-42CA-80F5-20ED7CD97021";
paths = (
{
closed = 1;
nodes = (
"397 370 LINE",
"397 422 OFFCURVE",
"391 472 OFFCURVE",
"375 521 CURVE SMOOTH",
"356 579 OFFCURVE",
"316 659 OFFCURVE",
"255 659 CURVE SMOOTH",
"211 659 OFFCURVE",
"178 620 OFFCURVE",
"178 577 CURVE SMOOTH",
"178 462 OFFCURVE",
"281 375 OFFCURVE",
"392 365 CURVE"
);
},
{
closed = 1;
nodes = (
"114 118 CURVE SMOOTH",
"114 228 LINE SMOOTH",
"114 264 OFFCURVE",
"110 312 OFFCURVE",
"70 312 CURVE SMOOTH",
"48 312 OFFCURVE",
"23 297 OFFCURVE",
"1 284 CURVE",
"-10 304 LINE",
"28 337 OFFCURVE",
"80 372 OFFCURVE",
"130 372 CURVE SMOOTH",
"169 372 OFFCURVE",
"188 336 OFFCURVE",
"188 297 CURVE SMOOTH",
"188 189 LINE SMOOTH",
"188 71 OFFCURVE",
"201 34 OFFCURVE",
"257 34 CURVE SMOOTH",
"382 34 OFFCURVE",
"401 223 OFFCURVE",
"401 326 CURVE",
"397 331 LINE",
"265 344 OFFCURVE",
"136 416 OFFCURVE",
"136 551 CURVE SMOOTH",
"136 635 OFFCURVE",
"201 698 OFFCURVE",
"285 698 CURVE SMOOTH",
"319 698 OFFCURVE",
"351 682 OFFCURVE",
"375 658 CURVE SMOOTH",
"451 582 OFFCURVE",
"471 466 OFFCURVE",
"471 367 CURVE",
"475 361 LINE",
"528 361 LINE",
"528 334 LINE",
"476 334 LINE",
"472 330 LINE",
"472 277 OFFCURVE",
"465 230 OFFCURVE",
"448 180 CURVE SMOOTH",
"413 80 OFFCURVE",
"322 -14 OFFCURVE",
"218 -14 CURVE SMOOTH",
"145 -14 OFFCURVE",
"114 42 OFFCURVE"
);
}
);
width = 526;
}
);
unicode = 03D1;
},
{
color = 1;
glyphname = pi1;
lastChange = "2016-09-03 04:52:46 +0000";
layers = (
{
layerId = "21503E60-83E9-42CA-80F5-20ED7CD97021";
paths = (
{
closed = 1;
nodes = (
"437 330 LINE",
"445 318 LINE",
"445 164 LINE SMOOTH",
"445 101 OFFCURVE",
"490 56 OFFCURVE",
"547 56 CURVE SMOOTH",
"644 56 OFFCURVE",
"682 165 OFFCURVE",
"682 249 CURVE SMOOTH",
"682 307 OFFCURVE",
"669 353 OFFCURVE",
"618 407 CURVE SMOOTH",
"559 468 OFFCURVE",
"449 477 OFFCURVE",
"362 477 CURVE SMOOTH",
"162 477 OFFCURVE",
"116 437 OFFCURVE",
"48 369 CURVE",
"33 385 LINE",
"66 424 OFFCURVE",
"96 461 OFFCURVE",
"141 489 CURVE SMOOTH",
"183 515 OFFCURVE",
"246 541 OFFCURVE",
"401 541 CURVE SMOOTH",
"608 541 OFFCURVE",
"749 467 OFFCURVE",
"749 306 CURVE SMOOTH",
"749 164 OFFCURVE",
"637 -12 OFFCURVE",
"503 -12 CURVE SMOOTH",
"445 -12 OFFCURVE",
"396 25 OFFCURVE",
"376 83 CURVE",
"368 84 LINE",
"319 31 OFFCURVE",
"256 -8 OFFCURVE",
"183 -8 CURVE SMOOTH",
"78 -8 OFFCURVE",
"40 106 OFFCURVE",
"40 194 CURVE SMOOTH",
"40 278 OFFCURVE",
"90 336 OFFCURVE",
"164 387 CURVE",
"174 366 LINE",
"136 329 OFFCURVE",
"119 277 OFFCURVE",
"119 224 CURVE SMOOTH",
"119 151 OFFCURVE",
"148 47 OFFCURVE",
"231 47 CURVE SMOOTH",
"335 47 OFFCURVE",
"361 155 OFFCURVE",
"361 236 CURVE SMOOTH",
"361 258 OFFCURVE",
"358 280 OFFCURVE",
"356 302 CURVE"
);
}
);
width = 775;
}
);
unicode = 03D6;
},
{
color = 1;
glyphname = phi1;
lastChange = "2016-09-03 04:52:46 +0000";
layers = (
{
layerId = "21503E60-83E9-42CA-80F5-20ED7CD97021";
paths = (
{
closed = 1;
nodes = (
"252 -183 LINE",
"254 -15 LINE",
"247 -8 LINE",
"188 -2 OFFCURVE",
"138 8 OFFCURVE",
"86 68 CURVE SMOOTH",
"41 120 OFFCURVE",
"23 180 OFFCURVE",
"23 249 CURVE SMOOTH",
"23 355 OFFCURVE",
"107 438 OFFCURVE",
"206 467 CURVE",
"218 445 LINE",
"134 406 OFFCURVE",
"103 348 OFFCURVE",
"103 267 CURVE SMOOTH",
"103 200 OFFCURVE",
"116 121 OFFCURVE",
"164 74 CURVE SMOOTH",
"201 37 OFFCURVE",
"228 28 OFFCURVE",
"247 28 CURVE",
"254 35 LINE",
"254 240 LINE SMOOTH",
"254 301 OFFCURVE",
"262 366 OFFCURVE",
"320 416 CURVE SMOOTH",
"363 453 OFFCURVE",
"414 464 OFFCURVE",
"456 464 CURVE SMOOTH",
"567 464 OFFCURVE",
"617 373 OFFCURVE",
"617 277 CURVE SMOOTH",
"617 208 OFFCURVE",
"598 139 OFFCURVE",
"549 90 CURVE SMOOTH",
"491 32 OFFCURVE",
"414 4 OFFCURVE",
"333 -7 CURVE",
"326 -15 LINE",
"326 -69 OFFCURVE",
"329 -122 OFFCURVE",
"334 -176 CURVE",
"265 -197 LINE"
);
},
{
closed = 1;
nodes = (
"333 26 LINE",
"387 28 OFFCURVE",
"436 52 OFFCURVE",
"474 91 CURVE SMOOTH",
"519 137 OFFCURVE",
"534 211 OFFCURVE",
"534 277 CURVE SMOOTH",
"534 305 OFFCURVE",
"519 425 OFFCURVE",
"437 425 CURVE SMOOTH",
"355 425 OFFCURVE",
"326 356 OFFCURVE",
"326 265 CURVE SMOOTH",
"326 33 LINE"
);
}
);
width = 642;
}
);
unicode = 03D5;
},
{
glyphname = zero;
lastChange = "2016-09-02 12:25:54 +0000";
layers = (
{
layerId = "21503E60-83E9-42CA-80F5-20ED7CD97021";
paths = (
{
closed = 1;
nodes = (
"290 704 CURVE",
"411 627 OFFCURVE",
"460 489 OFFCURVE",
"460 356 CURVE SMOOTH",
"460 197 OFFCURVE",
"391 -14 OFFCURVE",
"207 -14 CURVE SMOOTH",
"62 -14 OFFCURVE",
"34 188 OFFCURVE",
"34 303 CURVE SMOOTH",
"34 423 OFFCURVE",
"79 544 OFFCURVE",
"164 629 CURVE SMOOTH",
"197 662 OFFCURVE",
"246 686 OFFCURVE"
);
},
{
closed = 1;
nodes = (
"234 640 CURVE",
"146 585 OFFCURVE",
"101 472 OFFCURVE",
"101 371 CURVE SMOOTH",
"101 313 OFFCURVE",
"106 254 OFFCURVE",
"122 199 CURVE SMOOTH",
"142 131 OFFCURVE",
"188 52 OFFCURVE",
"252 52 CURVE SMOOTH",
"374 52 OFFCURVE",
"398 188 OFFCURVE",
"398 285 CURVE SMOOTH",
"398 375 OFFCURVE",
"374 460 OFFCURVE",
"330 539 CURVE SMOOTH",
"323 551 OFFCURVE",
"279 621 OFFCURVE"
);
}
);
width = 500;
}
);
unicode = 0030;
},
{
glyphname = one;
lastChange = "2016-09-02 12:25:54 +0000";
layers = (
{
layerId = "21503E60-83E9-42CA-80F5-20ED7CD97021";
paths = (
{
closed = 1;
nodes = (
"308 712 LINE",
"314 700 LINE",
"309 611 OFFCURVE",
"307 521 OFFCURVE",
"307 432 CURVE SMOOTH",
"307 296 OFFCURVE",
"307 98 OFFCURVE",
"310 22 CURVE",
"226 -5 LINE",
"214 0 LINE",
"219 139 OFFCURVE",
"222 279 OFFCURVE",
"222 419 CURVE SMOOTH",
"222 530 OFFCURVE",
"237 612 OFFCURVE",
"175 612 CURVE SMOOTH",
"92 612 LINE",
"92 639 LINE"
);
}
);
width = 500;
}
);
unicode = 0031;
},
{
glyphname = two;
lastChange = "2016-09-02 12:25:54 +0000";
layers = (
{
layerId = "21503E60-83E9-42CA-80F5-20ED7CD97021";
paths = (
{
closed = 1;
nodes = (
"472 80 LINE",
"449 2 LINE",
"12 2 LINE",
"12 18 LINE",
"69 76 OFFCURVE",
"125 135 OFFCURVE",
"178 197 CURVE SMOOTH",
"256 288 OFFCURVE",
"334 389 OFFCURVE",
"334 508 CURVE SMOOTH",
"334 560 OFFCURVE",
"306 640 OFFCURVE",
"221 640 CURVE SMOOTH",
"166 640 OFFCURVE",
"122 608 OFFCURVE",
"84 576 CURVE",
"64 595 LINE",
"118 655 OFFCURVE",
"191 708 OFFCURVE",
"275 708 CURVE SMOOTH",
"363 708 OFFCURVE",
"426 640 OFFCURVE",
"426 553 CURVE SMOOTH",
"426 499 OFFCURVE",
"404 451 OFFCURVE",
"378 405 CURVE SMOOTH",
"319 298 OFFCURVE",
"231 197 OFFCURVE",
"147 99 CURVE",
"146 98 OFFCURVE",
"145 97 OFFCURVE",
"145 95 CURVE SMOOTH",
"145 89 OFFCURVE",
"153 88 OFFCURVE",
"158 88 CURVE SMOOTH",
"467 88 LINE"
);
}
);
width = 500;
}
);
unicode = 0032;
},
{
glyphname = three;
lastChange = "2016-09-02 12:25:54 +0000";
layers = (
{
layerId = "21503E60-83E9-42CA-80F5-20ED7CD97021";
paths = (
{
closed = 1;
nodes = (
"241 382 CURVE",
"241 374 LINE",
"368 363 OFFCURVE",
"446 315 OFFCURVE",
"446 215 CURVE SMOOTH",
"446 78 OFFCURVE",
"314 -17 OFFCURVE",
"181 -17 CURVE SMOOTH",
"124 -17 OFFCURVE",
"70 3 OFFCURVE",
"25 38 CURVE",
"18 49 LINE",
"60 121 LINE",
"70 121 LINE",
"100 70 OFFCURVE",
"145 23 OFFCURVE",
"206 23 CURVE SMOOTH",
"296 23 OFFCURVE",
"352 100 OFFCURVE",
"352 186 CURVE SMOOTH",
"352 229 OFFCURVE",
"332 269 OFFCURVE",
"303 300 CURVE SMOOTH",
"264 341 OFFCURVE",
"185 345 OFFCURVE",
"125 345 CURVE",
"126 371 LINE",
"247 399 OFFCURVE",
"317 450 OFFCURVE",
"317 540 CURVE SMOOTH",
"317 602 OFFCURVE",
"268 639 OFFCURVE",
"208 639 CURVE SMOOTH",
"169 639 OFFCURVE",
"123 610 OFFCURVE",
"86 586 CURVE",
"72 608 LINE",
"123 651 OFFCURVE",
"191 702 OFFCURVE",
"253 702 CURVE SMOOTH",
"334 702 OFFCURVE",
"399 655 OFFCURVE",
"399 568 CURVE SMOOTH",
"399 472 OFFCURVE",
"328 407 OFFCURVE"
);
}
);
width = 500;
}
);
unicode = 0033;
},
{
glyphname = four;
lastChange = "2016-09-02 12:25:54 +0000";
layers = (
{
layerId = "21503E60-83E9-42CA-80F5-20ED7CD97021";
paths = (
{
closed = 1;
nodes = (
"361 704 LINE",
"368 698 LINE",
"367 671 OFFCURVE",
"367 399 OFFCURVE",
"367 244 CURVE",
"374 235 LINE",
"468 235 LINE",
"473 228 LINE",
"457 191 LINE",
"375 191 LINE",
"367 183 LINE",
"367 129 OFFCURVE",
"367 50 OFFCURVE",
"370 28 CURVE",
"290 -5 LINE",
"285 1 LINE",
"290 36 OFFCURVE",
"290 119 OFFCURVE",
"290 182 CURVE",
"283 191 LINE",
"-1 191 LINE",
"-1 235 LINE",
"285 669 LINE"
);
},
{
closed = 1;
nodes = (
"290 243 LINE",
"290 585 LINE SMOOTH",
"290 590 OFFCURVE",
"288 593 OFFCURVE",
"285 593 CURVE SMOOTH",
"283 593 OFFCURVE",
"281 592 OFFCURVE",
"280 591 CURVE",
"246 552 OFFCURVE",
"216 506 OFFCURVE",
"187 461 CURVE SMOOTH",
"149 402 OFFCURVE",
"65 264 OFFCURVE",
"64 242 CURVE",
"69 235 LINE",
"284 235 LINE"
);
}
);
width = 500;
}
);
unicode = 0034;
},
{
glyphname = five;
lastChange = "2016-09-02 12:25:54 +0000";
layers = (
{
layerId = "21503E60-83E9-42CA-80F5-20ED7CD97021";
paths = (
{
closed = 1;
nodes = (
"125 594 CURVE SMOOTH",
"125 413 LINE",
"125 406 LINE",
"166 426 OFFCURVE",
"211 443 OFFCURVE",
"257 443 CURVE SMOOTH",
"374 443 OFFCURVE",
"448 363 OFFCURVE",
"448 251 CURVE SMOOTH",
"448 98 OFFCURVE",
"323 -11 OFFCURVE",
"178 -11 CURVE SMOOTH",
"115 -11 OFFCURVE",
"54 15 OFFCURVE",
"13 64 CURVE",
"12 76 LINE",
"56 132 LINE",
"67 132 LINE",
"89 83 OFFCURVE",
"124 26 OFFCURVE",
"186 26 CURVE SMOOTH",
"298 26 OFFCURVE",
"352 121 OFFCURVE",
"352 223 CURVE SMOOTH",
"352 305 OFFCURVE",
"316 395 OFFCURVE",
"213 395 CURVE SMOOTH",
"169 395 OFFCURVE",
"128 373 OFFCURVE",
"96 342 CURVE",
"83 353 LINE",
"83 680 LINE",
"90 687 LINE",
"425 687 LINE",
"398 609 LINE",
"311 607 OFFCURVE",
"185 604 OFFCURVE",
"137 604 CURVE SMOOTH",
"131 604 OFFCURVE",
"125 600 OFFCURVE"
);
}
);
width = 500;
}
);
unicode = 0035;
},
{
glyphname = six;
lastChange = "2016-09-02 12:25:54 +0000";
layers = (
{
layerId = "21503E60-83E9-42CA-80F5-20ED7CD97021";
paths = (
{
closed = 1;
nodes = (
"471 688 CURVE",
"451 634 LINE",
"442 630 LINE",
"422 638 OFFCURVE",
"404 641 OFFCURVE",
"384 641 CURVE SMOOTH",
"323 641 OFFCURVE",
"269 614 OFFCURVE",
"228 576 CURVE SMOOTH",
"149 503 OFFCURVE",
"130 402 OFFCURVE",
"129 306 CURVE",
"136 305 LINE",
"189 348 OFFCURVE",
"252 377 OFFCURVE",
"321 377 CURVE SMOOTH",
"412 377 OFFCURVE",
"471 296 OFFCURVE",
"471 211 CURVE SMOOTH",
"471 94 OFFCURVE",
"356 -13 OFFCURVE",
"236 -13 CURVE SMOOTH",
"95 -13 OFFCURVE",
"45 124 OFFCURVE",
"45 238 CURVE SMOOTH",
"45 363 OFFCURVE",
"90 487 OFFCURVE",
"179 576 CURVE SMOOTH",
"241 641 OFFCURVE",
"327 700 OFFCURVE",
"416 700 CURVE SMOOTH",
"431 700 OFFCURVE",
"456 694 OFFCURVE"
);
},
{
closed = 1;
nodes = (
"132 265 CURVE",
"132 174 OFFCURVE",
"157 32 OFFCURVE",
"263 32 CURVE SMOOTH",
"348 32 OFFCURVE",
"392 96 OFFCURVE",
"392 172 CURVE SMOOTH",
"392 246 OFFCURVE",
"335 314 OFFCURVE",
"256 314 CURVE SMOOTH",
"215 314 OFFCURVE",
"154 286 OFFCURVE"
);
}
);
width = 500;
}
);
unicode = 0036;
},
{
glyphname = seven;
lastChange = "2016-09-02 12:25:54 +0000";
layers = (
{
layerId = "21503E60-83E9-42CA-80F5-20ED7CD97021";
paths = (
{
closed = 1;
nodes = (
"494 674 LINE",
"340 422 LINE SMOOTH",
"262 294 OFFCURVE",
"197 158 OFFCURVE",
"165 12 CURVE",
"81 -8 LINE",
"75 0 LINE",
"99 82 OFFCURVE",
"184 232 OFFCURVE",
"238 324 CURVE",
"238 324 OFFCURVE",
"336 495 OFFCURVE",
"398 594 CURVE",
"392 606 LINE",
"56 606 LINE",
"49 615 LINE",
"70 694 LINE",
"88 688 OFFCURVE",
"241 686 OFFCURVE",
"286 686 CURVE SMOOTH",
"494 686 LINE"
);
}
);
width = 500;
}
);
unicode = 0037;
},
{
glyphname = eight;
lastChange = "2016-09-02 12:25:54 +0000";
layers = (
{
layerId = "21503E60-83E9-42CA-80F5-20ED7CD97021";
paths = (
{
closed = 1;
nodes = (
"238 334 CURVE",
"169 298 OFFCURVE",
"123 254 OFFCURVE",
"123 177 CURVE SMOOTH",
"123 107 OFFCURVE",
"166 32 OFFCURVE",
"245 32 CURVE SMOOTH",
"328 32 OFFCURVE",
"374 89 OFFCURVE",
"374 168 CURVE SMOOTH",
"374 243 OFFCURVE",
"320 282 OFFCURVE"
);
},
{
closed = 1;
nodes = (
"312 385 LINE",
"418 313 OFFCURVE",
"461 277 OFFCURVE",
"461 197 CURVE SMOOTH",
"461 68 OFFCURVE",
"338 -10 OFFCURVE",
"219 -10 CURVE SMOOTH",
"171 -10 OFFCURVE",
"117 0 OFFCURVE",
"82 35 CURVE SMOOTH",
"50 67 OFFCURVE",
"40 112 OFFCURVE",
"40 157 CURVE SMOOTH",
"40 250 OFFCURVE",
"93 289 OFFCURVE",
"201 352 CURVE",
"201 363 LINE",
"146 401 OFFCURVE",
"89 459 OFFCURVE",
"89 530 CURVE SMOOTH",
"89 628 OFFCURVE",
"173 674 OFFCURVE",
"254 706 CURVE",
"257 706 OFFCURVE",
"260 706 OFFCURVE",
"263 706 CURVE SMOOTH",
"365 706 OFFCURVE",
"435 650 OFFCURVE",
"435 568 CURVE SMOOTH",
"435 496 OFFCURVE",
"372 433 OFFCURVE",
"312 396 CURVE"
);
},
{
closed = 1;
nodes = (
"279 412 CURVE",
"321 441 OFFCURVE",
"351 490 OFFCURVE",
"351 543 CURVE SMOOTH",
"351 593 OFFCURVE",
"308 659 OFFCURVE",
"223 659 CURVE",
"177 629 OFFCURVE",
"166 601 OFFCURVE",
"166 562 CURVE SMOOTH",
"166 503 OFFCURVE",
"226 449 OFFCURVE"
);
}
);
width = 500;
}
);
unicode = 0038;
},
{
glyphname = nine;
lastChange = "2016-09-02 12:25:54 +0000";
layers = (
{
layerId = "21503E60-83E9-42CA-80F5-20ED7CD97021";
paths = (
{
closed = 1;
nodes = (
"214 11 CURVE",
"129 -9 LINE",
"119 -1 LINE",
"139 45 OFFCURVE",
"187 109 OFFCURVE",
"232 167 CURVE",
"232 167 OFFCURVE",
"317 281 OFFCURVE",
"349 336 CURVE",
"344 342 LINE",
"295 316 OFFCURVE",
"246 299 OFFCURVE",
"194 299 CURVE SMOOTH",
"125 299 OFFCURVE",
"40 369 OFFCURVE",
"40 465 CURVE SMOOTH",
"40 517 OFFCURVE",
"50 562 OFFCURVE",
"79 598 CURVE SMOOTH",
"108 634 OFFCURVE",
"196 680 OFFCURVE",
"246 702 CURVE",
"391 702 OFFCURVE",
"462 635 OFFCURVE",
"462 528 CURVE SMOOTH",
"462 443 OFFCURVE",
"402 347 OFFCURVE",
"350 270 CURVE SMOOTH",
"296 191 OFFCURVE",
"227 94 OFFCURVE"
);
},
{
closed = 1;
nodes = (
"351 384 CURVE SMOOTH",
"376 409 OFFCURVE",
"382 447 OFFCURVE",
"382 482 CURVE SMOOTH",
"382 566 OFFCURVE",
"327 644 OFFCURVE",
"219 644 CURVE SMOOTH",
"162 644 OFFCURVE",
"129 567 OFFCURVE",
"129 515 CURVE SMOOTH",
"129 438 OFFCURVE",
"175 352 OFFCURVE",
"259 352 CURVE SMOOTH",
"292 352 OFFCURVE",
"327 360 OFFCURVE"
);
}
);
width = 500;
}
);
unicode = 0039;
},
{
color = 1;
glyphname = period;
lastChange = "2016-09-03 04:54:38 +0000";
layers = (
{
layerId = "21503E60-83E9-42CA-80F5-20ED7CD97021";
paths = (
{
closed = 1;
nodes = (
"69 52 CURVE SMOOTH",
"69 89 OFFCURVE",
"99 119 OFFCURVE",
"136 119 CURVE SMOOTH",
"173 119 OFFCURVE",
"203 89 OFFCURVE",
"203 52 CURVE SMOOTH",
"203 15 OFFCURVE",
"173 -15 OFFCURVE",
"136 -15 CURVE SMOOTH",
"99 -15 OFFCURVE",
"69 15 OFFCURVE"
);
}
);
width = 272;
}
);
unicode = 002E;
},
{
color = 1;
glyphname = comma;
lastChange = "2016-09-03 04:54:38 +0000";
layers = (
{
layerId = "21503E60-83E9-42CA-80F5-20ED7CD97021";
paths = (
{
closed = 1;
nodes = (
"77 -210 CURVE",
"58 -196 LINE",
"93 -150 OFFCURVE",
"124 -101 OFFCURVE",
"124 -61 CURVE SMOOTH",
"124 -47 OFFCURVE",
"120 -30 OFFCURVE",
"111 -19 CURVE SMOOTH",
"41 64 LINE SMOOTH",
"37 69 OFFCURVE",
"34 80 OFFCURVE",
"34 90 CURVE SMOOTH",
"34 116 OFFCURVE",
"68 138 OFFCURVE",
"93 138 CURVE SMOOTH",
"146 138 OFFCURVE",
"181 8 OFFCURVE",
"181 -27 CURVE SMOOTH",
"181 -77 OFFCURVE",
"148 -128 OFFCURVE"
);
}
);
width = 233;
}
);
unicode = 002C;
},
{
color = 1;
glyphname = less;
lastChange = "2016-09-03 04:54:38 +0000";
layers = (
{
layerId = "21503E60-83E9-42CA-80F5-20ED7CD97021";
paths = (
{
closed = 1;
nodes = (
"662 505 LINE",
"660 496 LINE",
"138 255 LINE",
"138 243 LINE",
"657 2 LINE",
"662 -8 LINE",
"651 -31 LINE",
"641 -36 LINE",
"41 244 LINE",
"41 256 LINE",
"642 531 LINE",
"653 528 LINE"
);
}
);
width = 710;
}
);
unicode = 003C;
},
{
color = 1;
glyphname = slash;
lastChange = "2016-09-03 04:54:38 +0000";
layers = (
{
layerId = "21503E60-83E9-42CA-80F5-20ED7CD97021";
paths = (
{
closed = 1;
nodes = (
"402 715 LINE",
"407 704 LINE",
"18 -192 LINE",
"-14 -184 LINE",
"-17 -170 LINE",
"369 718 LINE",
"380 720 LINE"
);
}
);
width = 390;
}
);
unicode = 002F;
},
{
color = 1;
glyphname = greater;
lastChange = "2016-09-03 04:54:38 +0000";
layers = (
{
layerId = "21503E60-83E9-42CA-80F5-20ED7CD97021";
paths = (
{
closed = 1;
nodes = (
"50 494 LINE",
"48 504 LINE",
"58 528 LINE",
"68 531 LINE",
"670 256 LINE",
"670 244 LINE",
"70 -36 LINE",
"60 -31 LINE",
"52 -7 LINE",
"56 2 LINE",
"574 245 LINE",
"574 254 LINE"
);
}
);
width = 711;
}
);
unicode = 003E;
},
{
color = 1;
glyphname = partialdiff;
lastChange = "2016-09-03 04:54:38 +0000";
layers = (
{
layerId = "21503E60-83E9-42CA-80F5-20ED7CD97021";
paths = (
{
closed = 1;
nodes = (
"100 548 CURVE",
"82 555 LINE",
"110 637 OFFCURVE",
"166 699 OFFCURVE",
"256 699 CURVE SMOOTH",
"431 699 OFFCURVE",
"484 480 OFFCURVE",
"484 322 CURVE SMOOTH",
"484 221 OFFCURVE",
"469 108 OFFCURVE",
"387 39 CURVE SMOOTH",
"354 11 OFFCURVE",
"313 -7 OFFCURVE",
"271 -7 CURVE SMOOTH",
"213 -7 OFFCURVE",
"160 2 OFFCURVE",
"125 44 CURVE SMOOTH",
"91 85 OFFCURVE",
"78 156 OFFCURVE",
"78 203 CURVE SMOOTH",
"78 332 OFFCURVE",
"152 457 OFFCURVE",
"305 457 CURVE SMOOTH",
"326 457 OFFCURVE",
"349 454 OFFCURVE",
"385 444 CURVE",
"389 448 LINE",
"364 548 OFFCURVE",
"312 642 OFFCURVE",
"219 642 CURVE SMOOTH",
"155 642 OFFCURVE",
"121 596 OFFCURVE"
);
},
{
closed = 1;
nodes = (
"382 125 CURVE SMOOTH",
"400 176 OFFCURVE",
"407 232 OFFCURVE",
"407 286 CURVE SMOOTH",
"407 326 OFFCURVE",
"403 366 OFFCURVE",
"395 405 CURVE",
"370 416 OFFCURVE",
"343 425 OFFCURVE",
"316 425 CURVE SMOOTH",
"199 425 OFFCURVE",
"162 296 OFFCURVE",
"162 205 CURVE SMOOTH",
"162 157 OFFCURVE",
"185 33 OFFCURVE",
"284 33 CURVE SMOOTH",
"337 33 OFFCURVE",
"367 80 OFFCURVE"
);
}
);
width = 567;
}
);
unicode = 2202;
},
{
color = 1;
glyphname = A;
lastChange = "2016-09-03 05:03:14 +0000";
layers = (
{
anchors = (
{
name = bottom;
position = "{331, 0}";
},
{
name = top;
position = "{352, 680}";
}
);
layerId = "21503E60-83E9-42CA-80F5-20ED7CD97021";
paths = (
{
closed = 1;
nodes = (
"539 -10 OFFCURVE",
"526 32 OFFCURVE",
"514 76 CURVE SMOOTH",
"460 264 LINE",
"458 268 OFFCURVE",
"452 273 OFFCURVE",
"449 273 CURVE SMOOTH",
"224 273 LINE SMOOTH",
"220 273 OFFCURVE",
"216 269 OFFCURVE",
"214 265 CURVE SMOOTH",
"97 17 LINE",
"6 -2 LINE",
"3 8 LINE",
"122 208 OFFCURVE",
"237 412 OFFCURVE",
"342 620 CURVE",
"343 623 OFFCURVE",
"343 624 OFFCURVE",
"343 627 CURVE SMOOTH",
"343 630 OFFCURVE",
"340 636 OFFCURVE",
"331 638 CURVE",
"241 653 LINE",
"241 680 LINE",
"435 680 LINE",
"450 597 OFFCURVE",
"495 437 OFFCURVE",
"528 317 CURVE SMOOTH",
"550 236 OFFCURVE",
"577 139 OFFCURVE",
"613 79 CURVE SMOOTH",
"626 57 OFFCURVE",
"650 49 OFFCURVE",
"677 49 CURVE SMOOTH",
"691 49 OFFCURVE",
"706 51 OFFCURVE",
"720 52 CURVE",
"721 26 LINE",
"617 -4 LINE SMOOTH",
"602 -8 OFFCURVE",
"587 -10 OFFCURVE",
"572 -10 CURVE SMOOTH"
);
},
{
closed = 1;
nodes = (
"363 576 OFFCURVE",
"360 573 OFFCURVE",
"360 572 CURVE",
"244 328 LINE SMOOTH",
"243 326 OFFCURVE",
"243 320 OFFCURVE",
"243 319 CURVE SMOOTH",
"243 316 OFFCURVE",
"247 312 OFFCURVE",
"250 312 CURVE SMOOTH",
"438 312 LINE SMOOTH",
"443 312 OFFCURVE",
"445 316 OFFCURVE",
"445 319 CURVE",
"445 319 OFFCURVE",
"443 327 OFFCURVE",
"443 328 CURVE",
"373 572 LINE",
"372 574 OFFCURVE",
"369 576 OFFCURVE",
"366 576 CURVE SMOOTH"
);
}
);
width = 722;
}
);
unicode = 0041;
},
{
color = 1;
glyphname = B;
lastChange = "2016-09-03 04:48:34 +0000";
layers = (
{
layerId = "21503E60-83E9-42CA-80F5-20ED7CD97021";
paths = (
{
closed = 1;
nodes = (
"169 324 LINE",
"169 66 LINE SMOOTH",
"169 43 OFFCURVE",
"177 39 OFFCURVE",
"244 39 CURVE SMOOTH",
"346 39 OFFCURVE",
"437 91 OFFCURVE",
"437 208 CURVE SMOOTH",
"437 327 OFFCURVE",
"331 346 OFFCURVE",
"231 346 CURVE SMOOTH",
"195 346 OFFCURVE",
"174 348 OFFCURVE",
"169 338 CURVE"
);
},
{
closed = 1;
nodes = (
"169 411 LINE",
"169 391 LINE",
"171 381 OFFCURVE",
"183 381 OFFCURVE",
"203 381 CURVE SMOOTH",
"309 381 OFFCURVE",
"403 427 OFFCURVE",
"403 545 CURVE SMOOTH",
"403 629 OFFCURVE",
"327 648 OFFCURVE",
"242 648 CURVE SMOOTH",
"219 648 OFFCURVE",
"175 650 OFFCURVE",
"169 629 CURVE"
);
},
{
closed = 1;
nodes = (
"335 378 CURVE",
"334 370 LINE",
"480 351 OFFCURVE",
"528 299 OFFCURVE",
"528 201 CURVE SMOOTH",
"528 47 OFFCURVE",
"384 -1 OFFCURVE",
"263 -1 CURVE SMOOTH",
"197 -1 OFFCURVE",
"66 1 OFFCURVE",
"65 1 CURVE",
"64 11 LINE",
"84 41 OFFCURVE",
"87 25 OFFCURVE",
"87 81 CURVE SMOOTH",
"87 611 LINE SMOOTH",
"87 645 OFFCURVE",
"41 652 OFFCURVE",
"4 662 CURVE",
"5 679 LINE",
"12 686 LINE",
"259 686 LINE SMOOTH",
"372 686 OFFCURVE",
"488 662 OFFCURVE",
"488 553 CURVE SMOOTH",
"488 456 OFFCURVE",
"416 412 OFFCURVE"
);
}
);
width = 559;
}
);
unicode = 0042;
},
{
color = 1;
glyphname = C;
lastChange = "2016-09-03 05:03:52 +0000";
layers = (
{
anchors = (
{
name = bottom;
position = "{357, 0}";
},
{
name = top;
position = "{317, 683}";
}
);
layerId = "21503E60-83E9-42CA-80F5-20ED7CD97021";
paths = (
{
closed = 1;
nodes = (
"567 528 LINE",
"553 529 LINE",
"519 619 OFFCURVE",
"456 658 OFFCURVE",
"374 658 CURVE SMOOTH",
"192 658 OFFCURVE",
"128 496 OFFCURVE",
"128 344 CURVE SMOOTH",
"128 252 OFFCURVE",
"176 154 OFFCURVE",
"209 121 CURVE SMOOTH",
"264 66 OFFCURVE",
"306 38 OFFCURVE",
"388 38 CURVE SMOOTH",
"456 38 OFFCURVE",
"519 67 OFFCURVE",
"575 105 CURVE",
"592 76 LINE",
"520 27 OFFCURVE",
"440 -15 OFFCURVE",
"353 -15 CURVE SMOOTH",
"274 -15 OFFCURVE",
"192 2 OFFCURVE",
"135 59 CURVE SMOOTH",
"65 129 OFFCURVE",
"39 228 OFFCURVE",
"39 326 CURVE SMOOTH",
"39 422 OFFCURVE",
"60 520 OFFCURVE",
"130 590 CURVE SMOOTH",
"203 663 OFFCURVE",
"304 699 OFFCURVE",
"408 699 CURVE SMOOTH",
"496 699 OFFCURVE",
"572 671 OFFCURVE",
"624 586 CURVE"
);
}
);
width = 633;
}
);
unicode = 0043;
},
{
color = 1;
glyphname = D;
lastChange = "2016-09-03 04:48:34 +0000";
layers = (
{
layerId = "21503E60-83E9-42CA-80F5-20ED7CD97021";
paths = (
{
closed = 1;
nodes = (
"170 575 CURVE SMOOTH",
"170 170 LINE SMOOTH",
"171 130 OFFCURVE",
"173 68 OFFCURVE",
"188 53 CURVE SMOOTH",
"201 40 OFFCURVE",
"240 40 OFFCURVE",
"267 40 CURVE SMOOTH",
"537 40 OFFCURVE",
"602 209 OFFCURVE",
"602 377 CURVE SMOOTH",
"602 438 OFFCURVE",
"585 535 OFFCURVE",
"529 591 CURVE SMOOTH",
"481 638 OFFCURVE",
"381 645 OFFCURVE",
"250 645 CURVE SMOOTH",
"207 645 OFFCURVE",
"190 644 OFFCURVE",
"184 641 CURVE SMOOTH",
"174 636 OFFCURVE",
"170 646 OFFCURVE"
);
},
{
closed = 1;
nodes = (
"64 2 LINE",
"64 12 LINE",
"84 27 OFFCURVE",
"85 41 OFFCURVE",
"86 79 CURVE SMOOTH",
"86 573 LINE SMOOTH",
"86 589 OFFCURVE",
"85 605 OFFCURVE",
"84 620 CURVE SMOOTH",
"82 645 OFFCURVE",
"35 651 OFFCURVE",
"9 659 CURVE",
"9 678 LINE",
"16 686 LINE",
"329 686 LINE SMOOTH",
"639 686 OFFCURVE",
"696 562 OFFCURVE",
"696 385 CURVE SMOOTH",
"696 258 OFFCURVE",
"674 174 OFFCURVE",
"597 91 CURVE SMOOTH",
"530 18 OFFCURVE",
"399 2 OFFCURVE",
"295 2 CURVE SMOOTH"
);
}
);
width = 737;
}
);
unicode = 0044;
},
{
color = 1;
glyphname = E;
lastChange = "2016-09-03 05:04:41 +0000";
layers = (
{
anchors = (
{
name = bottom;
position = "{259, 0}";
},
{
name = top;
position = "{270, 683}";
}
);
layerId = "21503E60-83E9-42CA-80F5-20ED7CD97021";
paths = (
{
closed = 1;
nodes = (
"411 336 LINE",
"372 339 OFFCURVE",
"332 342 OFFCURVE",
"293 342 CURVE SMOOTH",
"235 342 OFFCURVE",
"164 345 OFFCURVE",
"164 327 CURVE SMOOTH",
"164 188 LINE SMOOTH",
"164 150 OFFCURVE",
"165 101 OFFCURVE",
"179 76 CURVE SMOOTH",
"193 50 OFFCURVE",
"214 44 OFFCURVE",
"275 44 CURVE SMOOTH",
"322 44 OFFCURVE",
"345 44 OFFCURVE",
"509 58 CURVE",
"514 53 LINE",
"501 0 LINE",
"113 0 LINE",
"93 11 OFFCURVE",
"87 39 OFFCURVE",
"87 66 CURVE SMOOTH",
"87 558 LINE SMOOTH",
"87 572 OFFCURVE",
"87 602 OFFCURVE",
"78 622 CURVE SMOOTH",
"72 635 OFFCURVE",
"49 647 OFFCURVE",
"2 654 CURVE",
"1 674 LINE",
"8 681 LINE",
"156 682 LINE SMOOTH",
"226 682 OFFCURVE",
"327 687 OFFCURVE",
"398 688 CURVE SMOOTH",
"416 688 OFFCURVE",
"431 688 OFFCURVE",
"444 687 CURVE",
"442 637 LINE",
"438 630 LINE",
"369 634 OFFCURVE",
"236 640 OFFCURVE",
"229 640 CURVE SMOOTH",
"189 640 LINE",
"169 636 OFFCURVE",
"165 599 OFFCURVE",
"165 564 CURVE SMOOTH",
"165 398 LINE SMOOTH",
"165 381 OFFCURVE",
"194 384 OFFCURVE",
"231 384 CURVE SMOOTH",
"284 384 OFFCURVE",
"358 387 OFFCURVE",
"411 391 CURVE",
"417 384 LINE"
);
}
);
width = 518;
}
);
unicode = 0045;
},
{
color = 1;
glyphname = F;
lastChange = "2016-09-03 04:48:34 +0000";
layers = (
{
layerId = "21503E60-83E9-42CA-80F5-20ED7CD97021";
paths = (
{
closed = 1;
nodes = (
"87 360 CURVE SMOOTH",
"89 521 LINE SMOOTH",
"89 564 OFFCURVE",
"96 637 OFFCURVE",
"56 647 CURVE SMOOTH",
"1 660 LINE",
"1 681 LINE",
"8 688 LINE",
"150 688 OFFCURVE",
"356 688 OFFCURVE",
"429 690 CURVE",
"429 637 LINE",
"421 629 LINE",
"349 634 OFFCURVE",
"277 649 OFFCURVE",
"205 649 CURVE SMOOTH",
"192 649 OFFCURVE",
"178 643 OFFCURVE",
"173 626 CURVE SMOOTH",
"169 612 OFFCURVE",
"166 602 OFFCURVE",
"166 391 CURVE SMOOTH",
"166 386 OFFCURVE",
"170 378 OFFCURVE",
"179 378 CURVE SMOOTH",
"252 378 OFFCURVE",
"342 387 OFFCURVE",
"414 390 CURVE",
"413 341 LINE",
"408 336 LINE",
"338 340 OFFCURVE",
"250 341 OFFCURVE",
"179 341 CURVE SMOOTH",
"174 341 OFFCURVE",
"167 337 OFFCURVE",
"167 330 CURVE SMOOTH",
"167 229 OFFCURVE",
"168 114 OFFCURVE",
"172 13 CURVE",
"80 -2 LINE",
"84 119 OFFCURVE",
"87 239 OFFCURVE"
);
}
);
width = 441;
}
);
unicode = 0046;
},
{
color = 1;
glyphname = G;
lastChange = "2016-09-03 04:48:34 +0000";
layers = (
{
layerId = "21503E60-83E9-42CA-80F5-20ED7CD97021";
paths = (
{
closed = 1;
nodes = (
"325 296 LINE",
"601 307 LINE",
"603 216 OFFCURVE",
"606 34 OFFCURVE",
"606 33 CURVE",
"518 10 OFFCURVE",
"410 -17 OFFCURVE",
"337 -17 CURVE SMOOTH",
"261 -17 OFFCURVE",
"186 9 OFFCURVE",
"132 63 CURVE SMOOTH",
"64 131 OFFCURVE",
"39 229 OFFCURVE",
"39 324 CURVE SMOOTH",
"39 422 OFFCURVE",
"61 523 OFFCURVE",
"131 593 CURVE SMOOTH",
"206 668 OFFCURVE",
"311 699 OFFCURVE",
"416 699 CURVE SMOOTH",
"503 699 OFFCURVE",
"572 667 OFFCURVE",
"625 586 CURVE",
"567 529 LINE",
"555 530 LINE",
"511 618 OFFCURVE",
"452 650 OFFCURVE",
"371 650 CURVE SMOOTH",
"184 650 OFFCURVE",
"129 492 OFFCURVE",
"129 340 CURVE SMOOTH",
"129 194 OFFCURVE",
"211 35 OFFCURVE",
"407 35 CURVE SMOOTH",
"439 35 OFFCURVE",
"470 38 OFFCURVE",
"501 45 CURVE SMOOTH",
"527 50 OFFCURVE",
"521 104 OFFCURVE",
"521 134 CURVE SMOOTH",
"521 154 OFFCURVE",
"531 252 OFFCURVE",
"493 256 CURVE SMOOTH",
"449 260 OFFCURVE",
"385 263 OFFCURVE",
"331 265 CURVE",
"325 270 LINE"
);
}
);
width = 661;
}
);
unicode = 0047;
},
{
color = 1;
glyphname = H;
lastChange = "2016-09-03 04:48:34 +0000";
layers = (
{
layerId = "21503E60-83E9-42CA-80F5-20ED7CD97021";
paths = (
{
closed = 1;
nodes = (
"700 14 LINE",
"694 0 LINE",
"545 0 LINE",
"534 21 LINE",
"536 118 OFFCURVE",
"539 237 OFFCURVE",
"539 334 CURVE SMOOTH",
"539 339 OFFCURVE",
"536 346 OFFCURVE",
"527 346 CURVE SMOOTH",
"184 346 LINE SMOOTH",
"177 346 OFFCURVE",
"171 341 OFFCURVE",
"171 334 CURVE SMOOTH",
"171 289 OFFCURVE",
"170 232 OFFCURVE",
"170 178 CURVE SMOOTH",
"170 120 OFFCURVE",
"170 76 OFFCURVE",
"176 26 CURVE",
"84 -2 LINE",
"78 3 LINE",
"88 116 OFFCURVE",
"88 245 OFFCURVE",
"88 367 CURVE SMOOTH",
"88 450 OFFCURVE",
"88 533 OFFCURVE",
"82 616 CURVE SMOOTH",
"80 643 OFFCURVE",
"66 639 OFFCURVE",
"9 659 CURVE",
"8 678 LINE",
"15 685 LINE",
"177 685 LINE",
"182 680 LINE",
"170 612 OFFCURVE",
"169 489 OFFCURVE",
"169 397 CURVE SMOOTH",
"169 392 OFFCURVE",
"171 385 OFFCURVE",
"181 385 CURVE SMOOTH",
"527 385 LINE SMOOTH",
"538 385 OFFCURVE",
"539 391 OFFCURVE",
"539 397 CURVE SMOOTH",
"539 483 OFFCURVE",
"536 587 OFFCURVE",
"536 673 CURVE",
"624 690 LINE",
"629 684 LINE",
"620 563 OFFCURVE",
"618 443 OFFCURVE",
"618 322 CURVE SMOOTH",
"618 241 OFFCURVE",
"619 160 OFFCURVE",
"622 79 CURVE SMOOTH",
"622 43 OFFCURVE",
"692 32 OFFCURVE",
"699 32 CURVE"
);
}
);
width = 706;
}
);
unicode = 0048;
},
{
color = 1;
glyphname = I;
lastChange = "2016-09-03 05:00:24 +0000";
layers = (
{
anchors = (
{
name = bottom;
position = "{141, 0}";
},
{
name = top;
position = "{137, 683}";
}
);
layerId = "21503E60-83E9-42CA-80F5-20ED7CD97021";
paths = (
{
closed = 1;
nodes = (
"273 -1 LINE",
"8 -1 LINE",
"8 25 LINE",
"106 44 OFFCURVE",
"93 51 OFFCURVE",
"97 134 CURVE SMOOTH",
"97 497 LINE SMOOTH",
"97 536 OFFCURVE",
"97 574 OFFCURVE",
"94 612 CURVE SMOOTH",
"92 642 OFFCURVE",
"85 637 OFFCURVE",
"5 655 CURVE",
"5 677 LINE",
"12 683 LINE",
"262 683 LINE",
"268 677 LINE",
"268 656 LINE",
"201 641 LINE SMOOTH",
"188 638 OFFCURVE",
"180 627 OFFCURVE",
"179 615 CURVE",
"170 556 OFFCURVE",
"176 437 OFFCURVE",
"176 359 CURVE SMOOTH",
"176 292 OFFCURVE",
"177 230 OFFCURVE",
"178 169 CURVE SMOOTH",
"179 126 OFFCURVE",
"168 51 OFFCURVE",
"210 40 CURVE SMOOTH",
"231 34 OFFCURVE",
"274 23 OFFCURVE",
"275 23 CURVE"
);
}
);
width = 280;
}
);
unicode = 0049;
},
{
color = 1;
glyphname = J;
lastChange = "2016-09-03 04:48:34 +0000";
layers = (
{
layerId = "21503E60-83E9-42CA-80F5-20ED7CD97021";
paths = (
{
closed = 1;
nodes = (
"175 608 CURVE SMOOTH",
"175 91 LINE SMOOTH",
"175 -64 OFFCURVE",
"113 -165 OFFCURVE",
"-21 -234 CURVE",
"-35 -216 LINE",
"43 -167 OFFCURVE",
"90 -106 OFFCURVE",
"90 96 CURVE SMOOTH",
"90 608 LINE SMOOTH",
"90 619 OFFCURVE",
"86 642 OFFCURVE",
"74 645 CURVE SMOOTH",
"2 663 LINE",
"2 684 LINE",
"9 690 LINE",
"259 690 LINE",
"266 684 LINE",
"264 660 LINE",
"196 646 LINE SMOOTH",
"184 643 OFFCURVE",
"175 626 OFFCURVE"
);
}
);
width = 265;
}
);
unicode = 004A;
},
{
color = 1;
glyphname = K;
lastChange = "2016-09-03 04:48:34 +0000";
layers = (
{
layerId = "21503E60-83E9-42CA-80F5-20ED7CD97021";
paths = (
{
closed = 1;
nodes = (
"178 319 CURVE",
"169 318 LINE",
"169 220 OFFCURVE",
"169 122 OFFCURVE",
"175 25 CURVE",
"94 -4 LINE",
"86 1 LINE",
"86 148 LINE",
"86 595 LINE SMOOTH",
"86 605 OFFCURVE",
"85 616 OFFCURVE",
"81 626 CURVE",
"72 643 OFFCURVE",
"12 659 OFFCURVE",
"6 659 CURVE",
"8 676 LINE",
"16 683 LINE",
"174 683 LINE",
"181 676 LINE",
"170 643 OFFCURVE",
"166 560 OFFCURVE",
"166 358 CURVE",
"174 357 LINE",
"461 683 LINE",
"551 683 LINE",
"550 674 LINE",
"259 380 LINE SMOOTH",
"256 377 OFFCURVE",
"251 372 OFFCURVE",
"251 369 CURVE SMOOTH",
"251 366 OFFCURVE",
"252 364 OFFCURVE",
"256 360 CURVE SMOOTH",
"363 253 OFFCURVE",
"528 89 OFFCURVE",
"589 35 CURVE",
"588 24 LINE",
"503 -7 LINE",
"398 105 OFFCURVE",
"286 210 OFFCURVE"
);
}
);
width = 593;
}
);
unicode = 004B;
},
{
color = 1;
glyphname = L;
lastChange = "2016-09-03 04:48:34 +0000";
layers = (
{
layerId = "21503E60-83E9-42CA-80F5-20ED7CD97021";
paths = (
{
closed = 1;
nodes = (
"492 48 LINE",
"478 -5 LINE",
"404 2 OFFCURVE",
"203 2 OFFCURVE",
"65 2 CURVE",
"65 16 LINE",
"81 38 OFFCURVE",
"87 91 OFFCURVE",
"87 143 CURVE SMOOTH",
"87 621 LINE SMOOTH",
"87 635 OFFCURVE",
"81 651 OFFCURVE",
"66 654 CURVE SMOOTH",
"46 658 OFFCURVE",
"9 666 OFFCURVE",
"8 666 CURVE",
"9 683 LINE",
"16 690 LINE",
"253 690 LINE",
"259 684 LINE",
"259 663 LINE",
"258 663 OFFCURVE",
"215 654 OFFCURVE",
"194 649 CURVE",
"182 647 OFFCURVE",
"177 635 OFFCURVE",
"176 624 CURVE SMOOTH",
"172 551 OFFCURVE",
"170 473 OFFCURVE",
"170 393 CURVE SMOOTH",
"170 280 OFFCURVE",
"173 164 OFFCURVE",
"177 56 CURVE",
"178 50 OFFCURVE",
"185 43 OFFCURVE",
"190 43 CURVE SMOOTH",
"294 43 OFFCURVE",
"476 57 OFFCURVE",
"482 58 CURVE"
);
}
);
width = 494;
}
);
unicode = 004C;
},
{
color = 1;
glyphname = M;
lastChange = "2016-09-03 04:48:34 +0000";
layers = (
{
layerId = "21503E60-83E9-42CA-80F5-20ED7CD97021";
paths = (
{
closed = 1;
nodes = (
"751 690 LINE",
"854 690 LINE",
"854 678 LINE",
"827 664 OFFCURVE",
"829 627 OFFCURVE",
"829 583 CURVE SMOOTH",
"829 419 OFFCURVE",
"830 266 OFFCURVE",
"847 102 CURVE SMOOTH",
"850 73 OFFCURVE",
"872 46 OFFCURVE",
"905 46 CURVE SMOOTH",
"918 46 OFFCURVE",
"943 50 OFFCURVE",
"961 52 CURVE",
"961 28 LINE",
"917 12 OFFCURVE",
"865 -6 OFFCURVE",
"825 -6 CURVE SMOOTH",
"795 -6 OFFCURVE",
"762 3 OFFCURVE",
"762 29 CURVE SMOOTH",
"762 211 LINE SMOOTH",
"762 236 OFFCURVE",
"754 482 OFFCURVE",
"752 548 CURVE SMOOTH",
"752 556 OFFCURVE",
"749 563 OFFCURVE",
"744 563 CURVE SMOOTH",
"741 563 OFFCURVE",
"736 560 OFFCURVE",
"733 555 CURVE",
"447 1 LINE",
"417 1 LINE",
"342 181 OFFCURVE",
"248 410 OFFCURVE",
"185 538 CURVE",
"182 543 OFFCURVE",
"178 548 OFFCURVE",
"174 548 CURVE SMOOTH",
"153 548 OFFCURVE",
"119 113 OFFCURVE",
"112 23 CURVE",
"37 -3 LINE",
"30 0 LINE",
"68 196 OFFCURVE",
"103 393 OFFCURVE",
"130 591 CURVE",
"131 595 OFFCURVE",
"131 599 OFFCURVE",
"131 603 CURVE SMOOTH",
"131 621 OFFCURVE",
"121 637 OFFCURVE",
"103 642 CURVE SMOOTH",
"35 661 LINE",
"37 683 LINE",
"44 690 LINE",
"220 690 LINE",
"275 529 OFFCURVE",
"369 329 OFFCURVE",
"452 152 CURVE SMOOTH",
"454 148 OFFCURVE",
"459 138 OFFCURVE",
"463 138 CURVE SMOOTH",
"467 138 OFFCURVE",
"473 143 OFFCURVE",
"475 147 CURVE SMOOTH"
);
}
);
width = 962;
}
);
unicode = 004D;
},
{
color = 1;
glyphname = N;
lastChange = "2016-09-03 05:05:00 +0000";
layers = (
{
anchors = (
{
name = bottom;
position = "{366, 0}";
},
{
name = top;
position = "{395, 683}";
}
);
layerId = "21503E60-83E9-42CA-80F5-20ED7CD97021";
paths = (
{
closed = 1;
nodes = (
"657 694 LINE",
"663 686 LINE",
"650 459 OFFCURVE",
"648 227 OFFCURVE",
"648 0 CURVE",
"612 0 LINE",
"589 26 OFFCURVE",
"575 42 OFFCURVE",
"545 80 CURVE SMOOTH",
"386 278 LINE SMOOTH",
"284 404 OFFCURVE",
"201 499 OFFCURVE",
"152 555 CURVE",
"149 559 OFFCURVE",
"145 564 OFFCURVE",
"141 564 CURVE SMOOTH",
"134 564 OFFCURVE",
"134 552 OFFCURVE",
"134 547 CURVE SMOOTH",
"134 418 OFFCURVE",
"147 199 OFFCURVE",
"158 25 CURVE",
"88 -5 LINE",
"79 4 LINE",
"87 162 OFFCURVE",
"92 321 OFFCURVE",
"92 479 CURVE SMOOTH",
"92 522 OFFCURVE",
"91 565 OFFCURVE",
"91 608 CURVE SMOOTH",
"91 629 OFFCURVE",
"101 633 OFFCURVE",
"6 656 CURVE",
"2 683 LINE",
"10 690 LINE",
"172 690 LINE",
"305 514 OFFCURVE",
"467 299 OFFCURVE",
"584 173 CURVE SMOOTH",
"587 170 OFFCURVE",
"591 165 OFFCURVE",
"595 165 CURVE SMOOTH",
"600 165 OFFCURVE",
"601 171 OFFCURVE",
"601 173 CURVE SMOOTH",
"601 275 OFFCURVE",
"598 374 OFFCURVE",
"577 678 CURVE"
);
}
);
width = 732;
}
);
unicode = 004E;
},
{
color = 1;
glyphname = O;
lastChange = "2016-09-03 05:05:22 +0000";
layers = (
{
anchors = (
{
name = bottom;
position = "{369, 0}";
},
{
name = top;
position = "{381, 693}";
}
);
layerId = "21503E60-83E9-42CA-80F5-20ED7CD97021";
paths = (
{
closed = 1;
nodes = (
"115 -18 OFFCURVE",
"41 153 OFFCURVE",
"41 318 CURVE SMOOTH",
"41 447 OFFCURVE",
"68 532 OFFCURVE",
"142 612 CURVE SMOOTH",
"205 680 OFFCURVE",
"310 700 OFFCURVE",
"403 700 CURVE SMOOTH",
"478 700 OFFCURVE",
"557 678 OFFCURVE",
"611 624 CURVE SMOOTH",
"673 561 OFFCURVE",
"695 457 OFFCURVE",
"695 364 CURVE SMOOTH",
"695 298 OFFCURVE",
"694 233 OFFCURVE",
"654 152 CURVE SMOOTH",
"606 54 OFFCURVE",
"477 -18 OFFCURVE",
"320 -18 CURVE SMOOTH"
);
},
{
closed = 1;
nodes = (
"198 660 OFFCURVE",
"134 500 OFFCURVE",
"134 348 CURVE SMOOTH",
"134 254 OFFCURVE",
"151 168 OFFCURVE",
"213 100 CURVE SMOOTH",
"273 33 OFFCURVE",
"334 23 OFFCURVE",
"373 23 CURVE SMOOTH",
"539 23 OFFCURVE",
"601 186 OFFCURVE",
"601 336 CURVE SMOOTH",
"601 478 OFFCURVE",
"540 660 OFFCURVE",
"371 660 CURVE SMOOTH"
);
}
);
width = 737;
}
);
unicode = 004F;
},
{
color = 1;
glyphname = P;
lastChange = "2016-09-03 04:48:34 +0000";
layers = (
{
layerId = "21503E60-83E9-42CA-80F5-20ED7CD97021";
paths = (
{
closed = 1;
nodes = (
"236 640 CURVE SMOOTH",
"180 640 LINE SMOOTH",
"173 640 OFFCURVE",
"171 634 OFFCURVE",
"171 629 CURVE",
"167 541 OFFCURVE",
"165 428 OFFCURVE",
"165 341 CURVE SMOOTH",
"165 332 OFFCURVE",
"172 329 OFFCURVE",
"176 329 CURVE SMOOTH",
"315 329 OFFCURVE",
"409 395 OFFCURVE",
"409 506 CURVE SMOOTH",
"409 610 OFFCURVE",
"328 640 OFFCURVE"
);
},
{
closed = 1;
nodes = (
"172 22 CURVE",
"89 -6 LINE",
"82 1 LINE",
"84 141 OFFCURVE",
"89 282 OFFCURVE",
"89 423 CURVE SMOOTH",
"89 482 OFFCURVE",
"87 541 OFFCURVE",
"84 600 CURVE SMOOTH",
"81 640 OFFCURVE",
"48 649 OFFCURVE",
"10 654 CURVE",
"10 672 LINE",
"17 679 LINE",
"274 679 LINE SMOOTH",
"438 679 OFFCURVE",
"505 620 OFFCURVE",
"505 514 CURVE SMOOTH",
"505 455 OFFCURVE",
"483 400 OFFCURVE",
"441 358 CURVE SMOOTH",
"397 313 OFFCURVE",
"324 298 OFFCURVE",
"259 293 CURVE SMOOTH",
"230 291 OFFCURVE",
"165 293 OFFCURVE",
"165 274 CURVE SMOOTH",
"165 249 OFFCURVE",
"171 123 OFFCURVE"
);
}
);
width = 527;
}
);
unicode = 0050;
},
{
color = 1;
glyphname = Q;
lastChange = "2016-09-03 04:48:34 +0000";
layers = (
{
layerId = "21503E60-83E9-42CA-80F5-20ED7CD97021";
paths = (
{
closed = 1;
nodes = (
"722 -174 CURVE",
"729 -194 LINE",
"690 -210 OFFCURVE",
"625 -235 OFFCURVE",
"574 -235 CURVE SMOOTH",
"458 -235 OFFCURVE",
"383 -117 OFFCURVE",
"321 -16 CURVE",
"252 -16 OFFCURVE",
"175 2 OFFCURVE",
"126 57 CURVE SMOOTH",
"70 120 OFFCURVE",
"41 210 OFFCURVE",
"41 300 CURVE SMOOTH",
"41 438 OFFCURVE",
"68 533 OFFCURVE",
"142 609 CURVE SMOOTH",
"210 679 OFFCURVE",
"305 698 OFFCURVE",
"400 698 CURVE SMOOTH",
"477 698 OFFCURVE",
"555 680 OFFCURVE",
"613 622 CURVE SMOOTH",
"676 559 OFFCURVE",
"696 449 OFFCURVE",
"696 366 CURVE SMOOTH",
"696 269 OFFCURVE",
"690 251 OFFCURVE",
"677 210 CURVE SMOOTH",
"662 166 OFFCURVE",
"651 133 OFFCURVE",
"609 87 CURVE SMOOTH",
"564 38 OFFCURVE",
"494 8 OFFCURVE",
"431 -7 CURVE",
"427 -17 LINE",
"443 -47 OFFCURVE",
"469 -96 OFFCURVE",
"489 -122 CURVE SMOOTH",
"504 -143 OFFCURVE",
"546 -189 OFFCURVE",
"635 -189 CURVE SMOOTH",
"651 -189 OFFCURVE",
"699 -180 OFFCURVE"
);
},
{
closed = 1;
nodes = (
"365 22 CURVE SMOOTH",
"551 22 OFFCURVE",
"601 198 OFFCURVE",
"601 338 CURVE SMOOTH",
"601 495 OFFCURVE",
"527 660 OFFCURVE",
"376 660 CURVE SMOOTH",
"184 660 OFFCURVE",
"134 481 OFFCURVE",
"134 334 CURVE SMOOTH",
"134 245 OFFCURVE",
"157 156 OFFCURVE",
"219 92 CURVE SMOOTH",
"257 52 OFFCURVE",
"312 22 OFFCURVE"
);
}
);
width = 740;
}
);
unicode = 0051;
},
{
color = 1;
glyphname = R;
lastChange = "2016-09-03 04:48:34 +0000";
layers = (
{
layerId = "21503E60-83E9-42CA-80F5-20ED7CD97021";
paths = (
{
closed = 1;
nodes = (
"167 370 CURVE SMOOTH",
"167 364 OFFCURVE",
"169 355 OFFCURVE",
"176 355 CURVE SMOOTH",
"286 355 OFFCURVE",
"392 404 OFFCURVE",
"392 523 CURVE SMOOTH",
"392 619 OFFCURVE",
"303 640 OFFCURVE",
"225 640 CURVE SMOOTH",
"185 640 LINE SMOOTH",
"177 640 OFFCURVE",
"174 633 OFFCURVE",
"173 614 CURVE SMOOTH",
"171 550 OFFCURVE",
"167 375 OFFCURVE"
);
},
{
closed = 1;
nodes = (
"275 331 CURVE",
"273 323 LINE",
"536 27 LINE",
"536 18 LINE",
"437 -8 LINE",
"344 111 OFFCURVE",
"217 274 OFFCURVE",
"188 303 CURVE SMOOTH",
"183 308 OFFCURVE",
"174 312 OFFCURVE",
"168 312 CURVE",
"168 216 OFFCURVE",
"168 119 OFFCURVE",
"173 23 CURVE",
"90 -6 LINE",
"79 3 LINE",
"87 148 OFFCURVE",
"88 294 OFFCURVE",
"88 439 CURVE SMOOTH",
"88 454 OFFCURVE",
"85 554 OFFCURVE",
"85 611 CURVE SMOOTH",
"85 643 OFFCURVE",
"17 656 OFFCURVE",
"8 656 CURVE",
"9 673 LINE",
"15 679 LINE",
"287 679 LINE SMOOTH",
"409 679 OFFCURVE",
"490 632 OFFCURVE",
"490 539 CURVE SMOOTH",
"490 400 OFFCURVE",
"394 344 OFFCURVE"
);
}
);
width = 548;
}
);
unicode = 0052;
},
{
color = 1;
glyphname = S;
lastChange = "2016-09-03 04:48:34 +0000";
layers = (
{
layerId = "21503E60-83E9-42CA-80F5-20ED7CD97021";
paths = (
{
closed = 1;
nodes = (
"451 606 CURVE",
"388 550 LINE",
"375 553 LINE",
"358 619 OFFCURVE",
"321 665 OFFCURVE",
"253 665 CURVE SMOOTH",
"189 665 OFFCURVE",
"142 612 OFFCURVE",
"142 547 CURVE SMOOTH",
"142 469 OFFCURVE",
"217 423 OFFCURVE",
"295 389 CURVE SMOOTH",
"400 343 OFFCURVE",
"454 289 OFFCURVE",
"454 209 CURVE SMOOTH",
"454 77 OFFCURVE",
"308 -15 OFFCURVE",
"181 -15 CURVE SMOOTH",
"112 -15 OFFCURVE",
"44 14 OFFCURVE",
"16 87 CURVE",
"73 153 LINE",
"90 152 LINE",
"111 82 OFFCURVE",
"152 31 OFFCURVE",
"223 31 CURVE SMOOTH",
"301 31 OFFCURVE",
"366 94 OFFCURVE",
"366 178 CURVE SMOOTH",
"366 234 OFFCURVE",
"305 288 OFFCURVE",
"245 314 CURVE SMOOTH",
"124 366 OFFCURVE",
"62 414 OFFCURVE",
"62 512 CURVE SMOOTH",
"62 637 OFFCURVE",
"165 702 OFFCURVE",
"274 702 CURVE SMOOTH",
"347 702 OFFCURVE",
"407 689 OFFCURVE"
);
}
);
width = 484;
}
);
unicode = 0053;
},
{
color = 1;
glyphname = T;
lastChange = "2016-09-03 04:48:34 +0000";
layers = (
{
layerId = "21503E60-83E9-42CA-80F5-20ED7CD97021";
paths = (
{
closed = 1;
nodes = (
"549 689 LINE",
"549 641 LINE",
"541 634 LINE",
"373 642 OFFCURVE",
"352 644 OFFCURVE",
"331 644 CURVE SMOOTH",
"317 644 OFFCURVE",
"318 559 OFFCURVE",
"318 438 CURVE SMOOTH",
"318 317 OFFCURVE",
"324 138 OFFCURVE",
"331 17 CURVE",
"231 -10 LINE",
"222 -1 LINE",
"230 126 OFFCURVE",
"235 253 OFFCURVE",
"235 380 CURVE SMOOTH",
"235 462 OFFCURVE",
"234 606 OFFCURVE",
"233 636 CURVE SMOOTH",
"233 640 OFFCURVE",
"229 642 OFFCURVE",
"224 642 CURVE SMOOTH",
"200 642 OFFCURVE",
"121 639 OFFCURVE",
"10 635 CURVE",
"2 642 LINE",
"2 690 LINE",
"9 697 LINE",
"104 694 OFFCURVE",
"104 686 OFFCURVE",
"281 686 CURVE SMOOTH",
"356 686 OFFCURVE",
"455 692 OFFCURVE",
"543 696 CURVE"
);
}
);
width = 551;
}
);
unicode = 0054;
},
{
color = 1;
glyphname = U;
lastChange = "2016-09-03 05:08:50 +0000";
layers = (
{
anchors = (
{
name = bottom;
position = "{356, 0}";
},
{
name = top;
position = "{367, 683}";
}
);
layerId = "21503E60-83E9-42CA-80F5-20ED7CD97021";
paths = (
{
closed = 1;
nodes = (
"180 660 OFFCURVE",
"175 559 OFFCURVE",
"175 542 CURVE",
"167 269 LINE",
"167 101 OFFCURVE",
"246 52 OFFCURVE",
"343 52 CURVE SMOOTH",
"405 52 OFFCURVE",
"465 79 OFFCURVE",
"519 111 CURVE",
"519 294 OFFCURVE",
"521 477 OFFCURVE",
"523 659 CURVE",
"611 694 LINE",
"617 687 LINE",
"602 573 OFFCURVE",
"601 364 OFFCURVE",
"601 202 CURVE SMOOTH",
"601 120 OFFCURVE",
"601 48 OFFCURVE",
"649 48 CURVE SMOOTH",
"669 48 OFFCURVE",
"687 54 OFFCURVE",
"707 56 CURVE",
"711 39 LINE",
"706 32 LINE",
"655 16 OFFCURVE",
"584 -5 OFFCURVE",
"553 -5 CURVE SMOOTH",
"514 -5 OFFCURVE",
"520 34 OFFCURVE",
"520 64 CURVE",
"512 70 LINE",
"442 25 OFFCURVE",
"362 -9 OFFCURVE",
"279 -9 CURVE SMOOTH",
"140 -9 OFFCURVE",
"107 68 OFFCURVE",
"95 127 CURVE SMOOTH",
"88 173 OFFCURVE",
"87 247 OFFCURVE",
"87 308 CURVE SMOOTH",
"87 385 OFFCURVE",
"89 464 OFFCURVE",
"89 542 CURVE SMOOTH",
"89 562 OFFCURVE",
"89 581 OFFCURVE",
"89 601 CURVE SMOOTH",
"89 641 OFFCURVE",
"15 653 OFFCURVE",
"1 653 CURVE",
"-1 673 LINE",
"7 680 LINE",
"176 680 LINE",
"183 674 LINE"
);
}
);
width = 712;
}
);
unicode = 0055;
},
{
color = 1;
glyphname = V;
lastChange = "2016-09-03 04:48:34 +0000";
layers = (
{
layerId = "21503E60-83E9-42CA-80F5-20ED7CD97021";
paths = (
{
closed = 1;
nodes = (
"614 680 CURVE",
"700 697 LINE",
"706 678 LINE",
"641 599 OFFCURVE",
"579 489 OFFCURVE",
"567 468 CURVE SMOOTH",
"495 335 OFFCURVE",
"422 175 OFFCURVE",
"365 10 CURVE",
"297 -16 LINE",
"287 -9 LINE",
"144 473 LINE SMOOTH",
"129 519 OFFCURVE",
"116 565 OFFCURVE",
"96 609 CURVE SMOOTH",
"80 642 OFFCURVE",
"57 647 OFFCURVE",
"1 655 CURVE",
"0 682 LINE",
"7 688 LINE",
"182 698 LINE",
"221 507 OFFCURVE",
"276 320 OFFCURVE",
"347 138 CURVE",
"349 134 OFFCURVE",
"353 132 OFFCURVE",
"355 131 CURVE",
"362 133 OFFCURVE",
"385 185 OFFCURVE",
"426 274 CURVE SMOOTH",
"545 548 LINE SMOOTH",
"564 593 OFFCURVE",
"589 637 OFFCURVE"
);
}
);
width = 707;
}
);
unicode = 0056;
},
{
color = 1;
glyphname = W;
lastChange = "2016-09-03 04:48:34 +0000";
layers = (
{
layerId = "21503E60-83E9-42CA-80F5-20ED7CD97021";
paths = (
{
closed = 1;
nodes = (
"965 675 CURVE",
"1046 689 LINE",
"1046 668 LINE",
"931 480 LINE SMOOTH",
"884 403 OFFCURVE",
"768 173 OFFCURVE",
"703 16 CURVE",
"643 -11 LINE",
"631 -3 LINE",
"599 178 OFFCURVE",
"562 357 OFFCURVE",
"522 536 CURVE SMOOTH",
"521 541 OFFCURVE",
"520 548 OFFCURVE",
"515 548 CURVE SMOOTH",
"512 548 OFFCURVE",
"508 541 OFFCURVE",
"506 536 CURVE SMOOTH",
"478 473 LINE SMOOTH",
"424 352 OFFCURVE",
"343 173 OFFCURVE",
"296 18 CURVE",
"232 -11 LINE",
"221 -6 LINE",
"198 122 OFFCURVE",
"173 249 OFFCURVE",
"143 375 CURVE SMOOTH",
"123 456 OFFCURVE",
"103 537 OFFCURVE",
"73 614 CURVE SMOOTH",
"62 642 OFFCURVE",
"32 649 OFFCURVE",
"1 655 CURVE",
"-1 679 LINE",
"7 686 LINE",
"163 689 LINE",
"178 608 OFFCURVE",
"237 338 OFFCURVE",
"276 163 CURVE SMOOTH",
"277 158 OFFCURVE",
"281 157 OFFCURVE",
"283 157 CURVE SMOOTH",
"286 157 OFFCURVE",
"289 159 OFFCURVE",
"290 161 CURVE SMOOTH",
"332 244 OFFCURVE",
"464 535 OFFCURVE",
"509 661 CURVE",
"585 690 LINE",
"592 684 LINE",
"592 622 OFFCURVE",
"623 471 OFFCURVE",
"654 325 CURVE SMOOTH",
"666 270 OFFCURVE",
"685 139 OFFCURVE",
"703 139 CURVE SMOOTH",
"712 139 OFFCURVE",
"714 143 OFFCURVE",
"716 146 CURVE",
"796 316 LINE",
"905 558 LINE SMOOTH",
"926 604 OFFCURVE",
"948 643 OFFCURVE"
);
}
);
width = 1050;
}
);
unicode = 0057;
},
{
color = 1;
glyphname = X;
lastChange = "2016-09-03 04:48:34 +0000";
layers = (
{
layerId = "21503E60-83E9-42CA-80F5-20ED7CD97021";
paths = (
{
closed = 1;
nodes = (
"612 672 LINE",
"425 466 LINE SMOOTH",
"395 431 OFFCURVE",
"362 387 OFFCURVE",
"358 380 CURVE",
"359 368 OFFCURVE",
"474 179 OFFCURVE",
"514 131 CURVE SMOOTH",
"574 59 LINE",
"581 52 OFFCURVE",
"603 38 OFFCURVE",
"611 36 CURVE",
"616 32 LINE",
"616 16 LINE",
"506 -11 LINE",
"492 -5 LINE",
"474 13 OFFCURVE",
"459 35 OFFCURVE",
"446 57 CURVE SMOOTH",
"303 296 LINE",
"291 296 LINE",
"248 244 OFFCURVE",
"137 87 OFFCURVE",
"101 11 CURVE",
"7 0 LINE",
"7 16 LINE",
"278 345 LINE",
"273 345 OFFCURVE",
"180 508 OFFCURVE",
"133 590 CURVE SMOOTH",
"111 628 OFFCURVE",
"69 638 OFFCURVE",
"28 649 CURVE",
"28 674 LINE",
"35 680 LINE",
"60 681 OFFCURVE",
"136 685 OFFCURVE",
"181 688 CURVE",
"328 422 LINE",
"337 422 LINE",
"370 455 OFFCURVE",
"508 653 OFFCURVE",
"517 674 CURVE",
"612 687 LINE"
);
}
);
width = 624;
}
);
unicode = 0058;
},
{
color = 1;
glyphname = Y;
lastChange = "2016-09-03 05:09:08 +0000";
layers = (
{
anchors = (
{
name = bottom;
position = "{296, 0}";
},
{
name = top;
position = "{336, 683}";
}
);
layerId = "21503E60-83E9-42CA-80F5-20ED7CD97021";
paths = (
{
closed = 1;
nodes = (
"234 98 OFFCURVE",
"234 199 OFFCURVE",
"234 299 CURVE",
"85 594 LINE SMOOTH",
"62 639 OFFCURVE",
"39 645 OFFCURVE",
"-1 651 CURVE",
"-1 679 LINE",
"6 686 LINE",
"151 686 LINE",
"292 361 LINE",
"293 359 OFFCURVE",
"298 353 OFFCURVE",
"304 353 CURVE SMOOTH",
"309 353 OFFCURVE",
"344 406 OFFCURVE",
"374 460 CURVE SMOOTH",
"382 474 OFFCURVE",
"466 619 OFFCURVE",
"502 676 CURVE",
"587 693 LINE",
"591 675 LINE",
"480 530 OFFCURVE",
"406 434 OFFCURVE",
"323 306 CURVE",
"332 18 LINE",
"242 -11 LINE",
"231 -2 LINE"
);
}
);
width = 592;
}
);
unicode = 0059;
},
{
color = 1;
glyphname = Z;
lastChange = "2016-09-03 04:48:34 +0000";
layers = (
{
layerId = "21503E60-83E9-42CA-80F5-20ED7CD97021";
paths = (
{
closed = 1;
nodes = (
"552 664 LINE",
"417 471 OFFCURVE",
"243 200 OFFCURVE",
"153 61 CURVE",
"159 68 LINE",
"588 68 LINE",
"597 59 LINE",
"579 -12 LINE",
"450 0 OFFCURVE",
"196 0 OFFCURVE",
"4 0 CURVE",
"3 21 LINE",
"427 627 LINE",
"420 637 LINE",
"233 637 OFFCURVE",
"131 631 OFFCURVE",
"104 628 CURVE",
"98 633 LINE",
"98 687 LINE",
"107 695 LINE",
"255 686 OFFCURVE",
"403 683 OFFCURVE",
"552 683 CURVE"
);
}
);
width = 603;
}
);
unicode = 005A;
},
{
color = 1;
glyphname = lscript;
lastChange = "2016-09-03 04:55:30 +0000";
layers = (
{
layerId = "21503E60-83E9-42CA-80F5-20ED7CD97021";
paths = (
{
closed = 1;
nodes = (
"328 122 LINE",
"345 109 LINE",
"317 69 LINE",
"300 41 OFFCURVE",
"259 -9 OFFCURVE",
"204 -9 CURVE SMOOTH",
"98 -9 OFFCURVE",
"94 107 OFFCURVE",
"90 177 CURVE",
"81 180 LINE",
"35 136 LINE",
"20 154 LINE",
"86 228 LINE",
"84 255 OFFCURVE",
"84 283 OFFCURVE",
"84 311 CURVE SMOOTH",
"84 377 OFFCURVE",
"88 444 OFFCURVE",
"102 508 CURVE SMOOTH",
"119 590 OFFCURVE",
"159 704 OFFCURVE",
"257 704 CURVE SMOOTH",
"310 704 OFFCURVE",
"328 667 OFFCURVE",
"328 608 CURVE SMOOTH",
"328 484 OFFCURVE",
"235 351 OFFCURVE",
"155 250 CURVE",
"162 159 OFFCURVE",
"173 51 OFFCURVE",
"241 51 CURVE SMOOTH",
"260 51 OFFCURVE",
"288 74 OFFCURVE",
"296 84 CURVE SMOOTH"
);
},
{
closed = 1;
nodes = (
"160 302 LINE",
"238 407 OFFCURVE",
"279 502 OFFCURVE",
"279 606 CURVE SMOOTH",
"279 662 OFFCURVE",
"263 672 OFFCURVE",
"241 672 CURVE SMOOTH",
"205 672 OFFCURVE",
"183 595 OFFCURVE",
"176 555 CURVE SMOOTH",
"166 500 OFFCURVE",
"152 393 OFFCURVE",
"152 304 CURVE"
);
}
);
width = 380;
}
);
unicode = 2113;
},
{
color = 1;
glyphname = a;
lastChange = "2016-09-03 06:15:25 +0000";
layers = (
{
anchors = (
{
name = bottom;
position = "{274, 0}";
},
{
name = top;
position = "{274, 500}";
}
);
layerId = "21503E60-83E9-42CA-80F5-20ED7CD97021";
paths = (
{
closed = 1;
nodes = (
"310 466 OFFCURVE",
"353 454 OFFCURVE",
"385 431 CURVE",
"438 462 LINE",
"443 457 LINE",
"439 384 OFFCURVE",
"437 312 OFFCURVE",
"437 239 CURVE SMOOTH",
"437 177 OFFCURVE",
"422 52 OFFCURVE",
"476 52 CURVE SMOOTH",
"490 52 OFFCURVE",
"520 62 OFFCURVE",
"541 70 CURVE",
"548 46 LINE",
"508 22 OFFCURVE",
"454 -12 OFFCURVE",
"422 -12 CURVE SMOOTH",
"385 -12 OFFCURVE",
"371 13 OFFCURVE",
"365 47 CURVE",
"350 51 LINE",
"301 19 OFFCURVE",
"245 -12 OFFCURVE",
"187 -12 CURVE SMOOTH",
"76 -12 OFFCURVE",
"40 95 OFFCURVE",
"40 185 CURVE SMOOTH",
"40 326 OFFCURVE",
"108 466 OFFCURVE",
"278 466 CURVE SMOOTH"
);
},
{
closed = 1;
nodes = (
"296 54 OFFCURVE",
"333 76 OFFCURVE",
"363 99 CURVE",
"363 329 LINE SMOOTH",
"363 355 OFFCURVE",
"363 381 OFFCURVE",
"347 398 CURVE SMOOTH",
"329 417 OFFCURVE",
"304 431 OFFCURVE",
"279 431 CURVE SMOOTH",
"243 431 OFFCURVE",
"210 418 OFFCURVE",
"184 393 CURVE SMOOTH",
"161 371 OFFCURVE",
"132 316 OFFCURVE",
"130 215 CURVE SMOOTH",
"129 173 OFFCURVE",
"135 130 OFFCURVE",
"158 95 CURVE SMOOTH",
"179 62 OFFCURVE",
"220 54 OFFCURVE",
"257 54 CURVE SMOOTH"
);
}
);
width = 548;
}
);
leftKerningGroup = o_L;
unicode = 0061;
},
{
color = 1;
glyphname = b;
lastChange = "2016-09-03 05:53:02 +0000";
layers = (
{
layerId = "21503E60-83E9-42CA-80F5-20ED7CD97021";
paths = (
{
closed = 1;
nodes = (
"-14 661 LINE",
"-8 666 LINE",
"161 684 LINE",
"167 677 LINE",
"159 595 OFFCURVE",
"153 514 OFFCURVE",
"153 432 CURVE SMOOTH",
"153 421 OFFCURVE",
"153 410 OFFCURVE",
"153 399 CURVE",
"162 394 LINE",
"215 434 OFFCURVE",
"273 468 OFFCURVE",
"341 468 CURVE SMOOTH",
"434 468 OFFCURVE",
"482 392 OFFCURVE",
"482 308 CURVE SMOOTH",
"482 264 OFFCURVE",
"477 220 OFFCURVE",
"463 177 CURVE SMOOTH",
"428 70 OFFCURVE",
"311 -10 OFFCURVE",
"197 -10 CURVE SMOOTH",
"146 -10 OFFCURVE",
"80 12 OFFCURVE",
"80 123 CURVE SMOOTH",
"80 599 LINE SMOOTH",
"80 634 OFFCURVE",
"72 627 OFFCURVE",
"-14 640 CURVE"
);
},
{
closed = 1;
nodes = (
"157 347 CURVE",
"155 313 OFFCURVE",
"153 268 OFFCURVE",
"153 229 CURVE SMOOTH",
"153 116 OFFCURVE",
"164 38 OFFCURVE",
"252 38 CURVE SMOOTH",
"358 38 OFFCURVE",
"399 135 OFFCURVE",
"399 227 CURVE SMOOTH",
"399 300 OFFCURVE",
"383 342 OFFCURVE",
"369 363 CURVE SMOOTH",
"356 383 OFFCURVE",
"332 406 OFFCURVE",
"294 406 CURVE SMOOTH",
"241 406 OFFCURVE",
"196 381 OFFCURVE"
);
}
);
width = 522;
}
);
unicode = 0062;
},
{
color = 1;
glyphname = c;
lastChange = "2016-09-03 06:13:33 +0000";
layers = (
{
anchors = (
{
name = bottom;
position = "{252, -10}";
},
{
name = top;
position = "{232, 462}";
}
);
layerId = "21503E60-83E9-42CA-80F5-20ED7CD97021";
paths = (
{
closed = 1;
nodes = (
"434 114 LINE",
"445 96 LINE",
"383 35 OFFCURVE",
"310 -19 OFFCURVE",
"221 -19 CURVE SMOOTH",
"58 -19 OFFCURVE",
"48 118 OFFCURVE",
"48 217 CURVE SMOOTH",
"48 367 OFFCURVE",
"153 475 OFFCURVE",
"301 475 CURVE SMOOTH",
"366 475 OFFCURVE",
"411 434 OFFCURVE",
"417 377 CURVE",
"363 324 LINE",
"346 330 LINE",
"337 397 OFFCURVE",
"304 436 OFFCURVE",
"261 436 CURVE SMOOTH",
"176 436 OFFCURVE",
"131 336 OFFCURVE",
"131 248 CURVE SMOOTH",
"131 162 OFFCURVE",
"155 47 OFFCURVE",
"272 47 CURVE SMOOTH",
"331 47 OFFCURVE",
"381 78 OFFCURVE",
"425 116 CURVE"
);
}
);
width = 455;
}
);
leftKerningGroup = o_L;
unicode = 0063;
},
{
color = 1;
glyphname = d;
lastChange = "2016-09-03 06:12:56 +0000";
layers = (
{
layerId = "21503E60-83E9-42CA-80F5-20ED7CD97021";
paths = (
{
closed = 1;
nodes = (
"268 660 LINE",
"273 664 LINE",
"436 684 LINE",
"444 675 LINE",
"444 110 LINE",
"446 81 OFFCURVE",
"452 48 OFFCURVE",
"482 48 CURVE SMOOTH",
"492 48 OFFCURVE",
"523 59 OFFCURVE",
"543 67 CURVE",
"551 44 LINE",
"512 17 OFFCURVE",
"461 -19 OFFCURVE",
"422 -19 CURVE SMOOTH",
"383 -19 OFFCURVE",
"365 19 OFFCURVE",
"363 54 CURVE",
"312 19 OFFCURVE",
"248 -18 OFFCURVE",
"189 -18 CURVE SMOOTH",
"75 -18 OFFCURVE",
"40 91 OFFCURVE",
"40 180 CURVE SMOOTH",
"40 320 OFFCURVE",
"115 462 OFFCURVE",
"277 462 CURVE SMOOTH",
"306 462 OFFCURVE",
"333 456 OFFCURVE",
"360 447 CURVE",
"367 451 LINE",
"366 504 OFFCURVE",
"367 576 OFFCURVE",
"360 602 CURVE SMOOTH",
"349 637 OFFCURVE",
"302 638 OFFCURVE",
"269 638 CURVE"
);
},
{
closed = 1;
nodes = (
"363 95 CURVE",
"367 310 LINE SMOOTH",
"367 364 OFFCURVE",
"356 428 OFFCURVE",
"273 428 CURVE SMOOTH",
"161 428 OFFCURVE",
"127 297 OFFCURVE",
"127 203 CURVE SMOOTH",
"127 133 OFFCURVE",
"155 48 OFFCURVE",
"245 48 CURVE SMOOTH",
"280 48 OFFCURVE",
"336 68 OFFCURVE"
);
}
);
width = 551;
}
);
unicode = 0064;
},
{
color = 1;
glyphname = e;
lastChange = "2016-09-03 06:13:39 +0000";
layers = (
{
anchors = (
{
name = bottom;
position = "{236, 0}";
},
{
name = top;
position = "{256, 462}";
}
);
layerId = "21503E60-83E9-42CA-80F5-20ED7CD97021";
paths = (
{
closed = 1;
nodes = (
"228 438 OFFCURVE",
"198 422 OFFCURVE",
"177 396 CURVE",
"138 354 OFFCURVE",
"131 309 OFFCURVE",
"131 260 CURVE SMOOTH",
"131 254 OFFCURVE",
"132 248 OFFCURVE",
"133 242 CURVE",
"137 238 LINE",
"339 318 LINE",
"345 320 OFFCURVE",
"352 328 OFFCURVE",
"352 344 CURVE SMOOTH",
"352 386 OFFCURVE",
"317 438 OFFCURVE",
"261 438 CURVE SMOOTH"
);
},
{
closed = 1;
nodes = (
"438 328 OFFCURVE",
"428 324 OFFCURVE",
"417 319 CURVE SMOOTH",
"135 197 LINE",
"141 134 OFFCURVE",
"175 56 OFFCURVE",
"264 56 CURVE SMOOTH",
"319 56 OFFCURVE",
"373 89 OFFCURVE",
"418 124 CURVE",
"429 122 LINE",
"442 104 LINE",
"380 46 OFFCURVE",
"300 -12 OFFCURVE",
"214 -12 CURVE SMOOTH",
"80 -12 OFFCURVE",
"48 113 OFFCURVE",
"48 226 CURVE SMOOTH",
"48 284 OFFCURVE",
"60 343 OFFCURVE",
"99 388 CURVE SMOOTH",
"148 445 OFFCURVE",
"220 478 OFFCURVE",
"296 478 CURVE SMOOTH",
"382 478 OFFCURVE",
"438 417 OFFCURVE",
"438 340 CURVE SMOOTH"
);
}
);
width = 462;
}
);
leftKerningGroup = o_L;
unicode = 0065;
},
{
color = 1;
glyphname = f;
lastChange = "2016-09-03 05:34:39 +0000";
layers = (
{
layerId = "21503E60-83E9-42CA-80F5-20ED7CD97021";
paths = (
{
closed = 1;
nodes = (
"10 434 LINE",
"115 434 LINE",
"121 440 LINE",
"121 475 OFFCURVE",
"123 526 OFFCURVE",
"139 562 CURVE SMOOTH",
"169 632 OFFCURVE",
"229 669 OFFCURVE",
"292 669 CURVE SMOOTH",
"346 669 OFFCURVE",
"372 642 OFFCURVE",
"385 615 CURVE",
"327 561 LINE",
"315 565 LINE",
"311 586 OFFCURVE",
"304 629 OFFCURVE",
"257 629 CURVE SMOOTH",
"214 629 OFFCURVE",
"197 542 OFFCURVE",
"197 440 CURVE",
"201 434 LINE",
"325 434 LINE",
"330 427 LINE",
"323 405 LINE",
"316 399 LINE",
"201 399 LINE",
"195 393 LINE",
"195 282 LINE SMOOTH",
"195 188 OFFCURVE",
"198 93 OFFCURVE",
"205 12 CURVE",
"126 -12 LINE",
"109 -1 LINE",
"116 98 OFFCURVE",
"122 192 OFFCURVE",
"122 283 CURVE SMOOTH",
"122 391 LINE",
"116 399 LINE",
"4 399 LINE",
"-1 406 LINE",
"3 428 LINE"
);
}
);
width = 329;
}
);
unicode = 0066;
},
{
color = 1;
glyphname = g;
lastChange = "2016-09-03 06:12:48 +0000";
layers = (
{
layerId = "21503E60-83E9-42CA-80F5-20ED7CD97021";
paths = (
{
closed = 1;
nodes = (
"356 52 LINE",
"304 22 OFFCURVE",
"248 -11 OFFCURVE",
"185 -11 CURVE SMOOTH",
"102 -11 OFFCURVE",
"40 68 OFFCURVE",
"40 184 CURVE SMOOTH",
"40 362 OFFCURVE",
"141 465 OFFCURVE",
"269 465 CURVE SMOOTH",
"310 465 OFFCURVE",
"353 456 OFFCURVE",
"386 431 CURVE",
"437 460 LINE",
"451 454 LINE",
"446 363 OFFCURVE",
"442 291 OFFCURVE",
"442 82 CURVE SMOOTH",
"442 43 OFFCURVE",
"440 -28 OFFCURVE",
"420 -86 CURVE SMOOTH",
"404 -130 OFFCURVE",
"367 -164 OFFCURVE",
"347 -179 CURVE SMOOTH",
"296 -218 OFFCURVE",
"246 -233 OFFCURVE",
"185 -233 CURVE SMOOTH",
"141 -233 OFFCURVE",
"96 -223 OFFCURVE",
"47 -177 CURVE",
"96 -115 LINE",
"110 -115 LINE",
"128 -151 OFFCURVE",
"174 -192 OFFCURVE",
"210 -192 CURVE SMOOTH",
"316 -192 OFFCURVE",
"361 -85 OFFCURVE",
"365 45 CURVE"
);
},
{
closed = 1;
nodes = (
"365 99 CURVE",
"365 363 LINE",
"362 410 OFFCURVE",
"318 431 OFFCURVE",
"276 431 CURVE SMOOTH",
"158 431 OFFCURVE",
"126 293 OFFCURVE",
"126 203 CURVE SMOOTH",
"126 113 OFFCURVE",
"190 52 OFFCURVE",
"240 52 CURVE SMOOTH",
"286 52 OFFCURVE",
"342 81 OFFCURVE"
);
}
);
width = 511;
}
);
unicode = 0067;
},
{
color = 1;
glyphname = h;
lastChange = "2016-09-03 05:50:31 +0000";
layers = (
{
layerId = "21503E60-83E9-42CA-80F5-20ED7CD97021";
paths = (
{
closed = 1;
nodes = (
"538 62 OFFCURVE",
"570 89 OFFCURVE",
"589 107 CURVE",
"602 97 LINE",
"602 86 LINE",
"558 39 OFFCURVE",
"505 -10 OFFCURVE",
"445 -10 CURVE SMOOTH",
"398 -10 OFFCURVE",
"379 40 OFFCURVE",
"379 89 CURVE SMOOTH",
"379 143 OFFCURVE",
"383 230 OFFCURVE",
"383 266 CURVE SMOOTH",
"383 342 OFFCURVE",
"371 404 OFFCURVE",
"297 404 CURVE SMOOTH",
"242 404 OFFCURVE",
"194 372 OFFCURVE",
"155 344 CURVE",
"155 234 OFFCURVE",
"153 124 OFFCURVE",
"153 16 CURVE",
"81 -6 LINE",
"75 4 LINE",
"82 136 OFFCURVE",
"88 268 OFFCURVE",
"89 400 CURVE SMOOTH",
"89 501 OFFCURVE",
"95 580 OFFCURVE",
"69 616 CURVE SMOOTH",
"60 628 OFFCURVE",
"19 636 OFFCURVE",
"-8 642 CURVE",
"-8 660 LINE",
"-3 664 LINE",
"155 681 LINE",
"161 674 LINE",
"157 589 OFFCURVE",
"157 490 OFFCURVE",
"157 398 CURVE",
"165 390 LINE",
"224 426 OFFCURVE",
"293 466 OFFCURVE",
"366 466 CURVE SMOOTH",
"381 466 OFFCURVE",
"412 456 OFFCURVE",
"431 438 CURVE SMOOTH",
"461 410 OFFCURVE",
"455 340 OFFCURVE",
"455 260 CURVE SMOOTH",
"455 238 OFFCURVE",
"455 211 OFFCURVE",
"455 186 CURVE SMOOTH",
"455 145 OFFCURVE",
"446 62 OFFCURVE",
"499 62 CURVE SMOOTH"
);
}
);
width = 592;
}
);
rightMetricsKey = n;
unicode = 0068;
},
{
color = 1;
glyphname = i;
lastChange = "2016-09-03 05:55:12 +0000";
layers = (
{
layerId = "21503E60-83E9-42CA-80F5-20ED7CD97021";
paths = (
{
closed = 1;
nodes = (
"192 392 CURVE",
"184 182 LINE",
"184 108 OFFCURVE",
"193 65 OFFCURVE",
"228 65 CURVE SMOOTH",
"266 65 OFFCURVE",
"293 86 OFFCURVE",
"320 110 CURVE",
"333 100 LINE",
"333 89 LINE",
"299 44 OFFCURVE",
"247 -8 OFFCURVE",
"192 -8 CURVE SMOOTH",
"149 -8 OFFCURVE",
"112 5 OFFCURVE",
"112 104 CURVE SMOOTH",
"118 325 LINE SMOOTH",
"118 377 OFFCURVE",
"109 410 OFFCURVE",
"83 410 CURVE SMOOTH",
"61 410 OFFCURVE",
"27 393 OFFCURVE",
"3 378 CURVE",
"-10 396 LINE",
"35 432 OFFCURVE",
"91 471 OFFCURVE",
"130 471 CURVE SMOOTH",
"175 471 OFFCURVE",
"192 436 OFFCURVE"
);
},
{
closed = 1;
nodes = (
"206 625 CURVE",
"204 592 OFFCURVE",
"178 569 OFFCURVE",
"146 569 CURVE SMOOTH",
"114 569 OFFCURVE",
"88 595 OFFCURVE",
"88 627 CURVE SMOOTH",
"88 661 OFFCURVE",
"123 683 OFFCURVE",
"152 683 CURVE SMOOTH",
"186 683 OFFCURVE",
"206 655 OFFCURVE"
);
}
);
width = 323;
}
);
unicode = 0069;
},
{
color = 1;
glyphname = j;
lastChange = "2016-09-03 05:56:29 +0000";
layers = (
{
layerId = "21503E60-83E9-42CA-80F5-20ED7CD97021";
paths = (
{
closed = 1;
nodes = (
"18 375 CURVE",
"5 393 LINE",
"46 425 OFFCURVE",
"103 468 OFFCURVE",
"146 468 CURVE SMOOTH",
"194 468 OFFCURVE",
"204 434 OFFCURVE",
"207 401 CURVE",
"214 358 OFFCURVE",
"214 191 OFFCURVE",
"214 154 CURVE SMOOTH",
"214 134 OFFCURVE",
"214 -6 OFFCURVE",
"202 -41 CURVE SMOOTH",
"172 -128 OFFCURVE",
"96 -188 OFFCURVE",
"6 -231 CURVE",
"-10 -215 LINE",
"64 -171 OFFCURVE",
"104 -126 OFFCURVE",
"118 -76 CURVE SMOOTH",
"135 -14 OFFCURVE",
"138 110 OFFCURVE",
"138 154 CURVE SMOOTH",
"138 396 OFFCURVE",
"130 408 OFFCURVE",
"94 408 CURVE SMOOTH",
"78 408 OFFCURVE",
"43 388 OFFCURVE"
);
},
{
closed = 1;
nodes = (
"159 683 CURVE SMOOTH",
"189 683 OFFCURVE",
"217 661 OFFCURVE",
"217 629 CURVE SMOOTH",
"217 595 OFFCURVE",
"191 565 OFFCURVE",
"156 565 CURVE SMOOTH",
"123 565 OFFCURVE",
"100 593 OFFCURVE",
"100 625 CURVE SMOOTH",
"100 657 OFFCURVE",
"127 683 OFFCURVE"
);
}
);
width = 291;
}
);
unicode = 006A;
},
{
color = 1;
glyphname = k;
lastChange = "2016-09-03 05:58:37 +0000";
layers = (
{
layerId = "21503E60-83E9-42CA-80F5-20ED7CD97021";
paths = (
{
closed = 1;
nodes = (
"167 266 LINE",
"301 389 LINE SMOOTH",
"379 460 OFFCURVE",
"390 471 OFFCURVE",
"414 485 CURVE",
"460 456 LINE",
"460 445 LINE",
"385 401 OFFCURVE",
"314 350 OFFCURVE",
"247 294 CURVE SMOOTH",
"240 288 OFFCURVE",
"229 279 OFFCURVE",
"229 274 CURVE SMOOTH",
"229 268 OFFCURVE",
"234 263 OFFCURVE",
"237 258 CURVE",
"296 183 OFFCURVE",
"393 73 OFFCURVE",
"433 73 CURVE SMOOTH",
"466 73 OFFCURVE",
"489 89 OFFCURVE",
"511 112 CURVE",
"530 92 LINE",
"506 60 OFFCURVE",
"456 -7 OFFCURVE",
"403 -7 CURVE SMOOTH",
"373 -7 OFFCURVE",
"357 4 OFFCURVE",
"324 42 CURVE",
"324 42 OFFCURVE",
"235 162 OFFCURVE",
"164 241 CURVE",
"152 234 LINE",
"152 13 LINE",
"81 -7 LINE",
"75 0 LINE",
"79 157 OFFCURVE",
"87 310 OFFCURVE",
"87 468 CURVE SMOOTH",
"87 519 OFFCURVE",
"85 567 OFFCURVE",
"78 594 CURVE SMOOTH",
"69 625 OFFCURVE",
"45 632 OFFCURVE",
"-8 638 CURVE",
"-8 659 LINE",
"-3 663 LINE",
"157 686 LINE",
"154 679 LINE",
"154 266 LINE"
);
}
);
width = 516;
}
);
unicode = 006B;
},
{
color = 1;
glyphname = l;
lastChange = "2016-09-03 05:48:47 +0000";
layers = (
{
layerId = "21503E60-83E9-42CA-80F5-20ED7CD97021";
paths = (
{
closed = 1;
nodes = (
"289 112 CURVE",
"300 112 LINE",
"311 100 LINE",
"277 47 OFFCURVE",
"225 -11 OFFCURVE",
"159 -11 CURVE SMOOTH",
"108 -11 OFFCURVE",
"77 15 OFFCURVE",
"77 130 CURVE SMOOTH",
"84 508 LINE SMOOTH",
"84 541 OFFCURVE",
"84 584 OFFCURVE",
"79 608 CURVE SMOOTH",
"72 639 OFFCURVE",
"24 636 OFFCURVE",
"-8 638 CURVE",
"-8 661 LINE",
"-2 666 LINE",
"163 686 LINE",
"169 679 LINE",
"165 539 OFFCURVE",
"155 399 OFFCURVE",
"155 259 CURVE SMOOTH",
"155 160 OFFCURVE",
"143 69 OFFCURVE",
"203 65 CURVE",
"236 65 OFFCURVE",
"264 90 OFFCURVE"
);
}
);
width = 301;
}
);
unicode = 006C;
},
{
color = 1;
glyphname = m;
lastChange = "2016-09-03 05:46:09 +0000";
layers = (
{
layerId = "21503E60-83E9-42CA-80F5-20ED7CD97021";
paths = (
{
closed = 1;
nodes = (
"383 -4 LINE",
"383 28 OFFCURVE",
"393 155 OFFCURVE",
"393 269 CURVE SMOOTH",
"393 352 OFFCURVE",
"377 400 OFFCURVE",
"311 400 CURVE SMOOTH",
"264 400 OFFCURVE",
"203 362 OFFCURVE",
"194 356 CURVE",
"191 284 OFFCURVE",
"189 212 OFFCURVE",
"189 139 CURVE SMOOTH",
"189 97 OFFCURVE",
"189 55 OFFCURVE",
"191 14 CURVE",
"124 -10 LINE",
"110 -2 LINE",
"111 90 OFFCURVE",
"117 182 OFFCURVE",
"117 273 CURVE SMOOTH",
"117 348 OFFCURVE",
"118 412 OFFCURVE",
"77 412 CURVE SMOOTH",
"61 412 OFFCURVE",
"25 396 OFFCURVE",
"2 383 CURVE",
"-10 402 LINE",
"30 434 OFFCURVE",
"78 469 OFFCURVE",
"127 471 CURVE SMOOTH",
"177 471 OFFCURVE",
"189 434 OFFCURVE",
"189 397 CURVE",
"197 391 LINE",
"249 419 OFFCURVE",
"309 459 OFFCURVE",
"369 459 CURVE SMOOTH",
"406 459 OFFCURVE",
"440 439 OFFCURVE",
"459 407 CURVE",
"475 405 LINE",
"513 425 OFFCURVE",
"576 460 OFFCURVE",
"635 460 CURVE SMOOTH",
"664 460 OFFCURVE",
"693 454 OFFCURVE",
"714 433 CURVE SMOOTH",
"740 406 OFFCURVE",
"734 348 OFFCURVE",
"734 248 CURVE SMOOTH",
"734 117 LINE SMOOTH",
"734 90 OFFCURVE",
"741 52 OFFCURVE",
"785 52 CURVE SMOOTH",
"806 52 OFFCURVE",
"838 74 OFFCURVE",
"862 92 CURVE",
"876 92 LINE",
"883 71 LINE",
"838 30 OFFCURVE",
"783 -18 OFFCURVE",
"723 -18 CURVE SMOOTH",
"676 -18 OFFCURVE",
"655 21 OFFCURVE",
"655 59 CURVE SMOOTH",
"655 75 OFFCURVE",
"660 195 OFFCURVE",
"660 269 CURVE SMOOTH",
"660 351 OFFCURVE",
"640 400 OFFCURVE",
"575 400 CURVE SMOOTH",
"526 400 OFFCURVE",
"491 382 OFFCURVE",
"463 366 CURVE",
"462 320 OFFCURVE",
"461 274 OFFCURVE",
"461 228 CURVE SMOOTH",
"461 158 OFFCURVE",
"463 87 OFFCURVE",
"467 18 CURVE",
"393 -10 LINE"
);
}
);
width = 873;
}
);
leftMetricsKey = n;
rightMetricsKey = n;
unicode = 006D;
},
{
color = 1;
glyphname = n;
lastChange = "2016-09-03 05:43:17 +0000";
layers = (
{
anchors = (
{
name = bottom;
position = "{317, 0}";
},
{
name = top;
position = "{317, 462}";
}
);
layerId = "21503E60-83E9-42CA-80F5-20ED7CD97021";
paths = (
{
closed = 1;
nodes = (
"195 18 CURVE",
"125 -6 LINE",
"110 1 LINE",
"112 52 OFFCURVE",
"119 217 OFFCURVE",
"119 298 CURVE SMOOTH",
"119 365 OFFCURVE",
"115 413 OFFCURVE",
"82 413 CURVE SMOOTH",
"61 413 OFFCURVE",
"36 397 OFFCURVE",
"7 378 CURVE",
"-10 400 LINE",
"31 430 OFFCURVE",
"88 471 OFFCURVE",
"125 471 CURVE SMOOTH",
"175 471 OFFCURVE",
"191 440 OFFCURVE",
"197 403 CURVE",
"205 397 LINE",
"261 431 OFFCURVE",
"330 469 OFFCURVE",
"394 469 CURVE SMOOTH",
"423 469 OFFCURVE",
"452 462 OFFCURVE",
"471 440 CURVE SMOOTH",
"491 416 OFFCURVE",
"491 320 OFFCURVE",
"491 256 CURVE SMOOTH",
"491 105 OFFCURVE",
"484 60 OFFCURVE",
"539 60 CURVE SMOOTH",
"562 60 OFFCURVE",
"594 81 OFFCURVE",
"619 100 CURVE",
"632 100 LINE",
"641 79 LINE",
"595 34 OFFCURVE",
"532 -10 OFFCURVE",
"484 -10 CURVE SMOOTH",
"429 -10 OFFCURVE",
"412 30 OFFCURVE",
"412 78 CURVE SMOOTH",
"417 249 LINE SMOOTH",
"417 349 OFFCURVE",
"398 410 OFFCURVE",
"327 410 CURVE SMOOTH",
"281 410 OFFCURVE",
"234 378 OFFCURVE",
"198 349 CURVE",
"195 277 OFFCURVE",
"192 189 OFFCURVE",
"192 116 CURVE SMOOTH",
"192 88 OFFCURVE",
"193 58 OFFCURVE"
);
}
);
width = 631;
}
);
unicode = 006E;
},
{
color = 1;
glyphname = o;
lastChange = "2016-09-03 06:13:22 +0000";
layers = (
{
anchors = (
{
name = bottom;
position = "{269, 0}";
},
{
name = top;
position = "{269, 462}";
}
);
layerId = "21503E60-83E9-42CA-80F5-20ED7CD97021";
paths = (
{
closed = 1;
nodes = (
"214 426 OFFCURVE",
"160 390 OFFCURVE",
"142 316 CURVE SMOOTH",
"136 291 OFFCURVE",
"134 265 OFFCURVE",
"134 239 CURVE SMOOTH",
"134 155 OFFCURVE",
"160 27 OFFCURVE",
"269 27 CURVE SMOOTH",
"377 27 OFFCURVE",
"400 137 OFFCURVE",
"400 220 CURVE SMOOTH",
"400 302 OFFCURVE",
"381 426 OFFCURVE",
"268 426 CURVE SMOOTH"
);
},
{
closed = 1;
nodes = (
"384 6 OFFCURVE",
"312 -14 OFFCURVE",
"242 -14 CURVE SMOOTH",
"104 -14 OFFCURVE",
"55 90 OFFCURVE",
"48 196 CURVE",
"48 265 OFFCURVE",
"55 339 OFFCURVE",
"103 391 CURVE SMOOTH",
"150 443 OFFCURVE",
"221 465 OFFCURVE",
"291 465 CURVE SMOOTH",
"438 465 OFFCURVE",
"489 351 OFFCURVE",
"489 239 CURVE SMOOTH",
"489 174 OFFCURVE",
"475 108 OFFCURVE",
"431 59 CURVE SMOOTH"
);
}
);
width = 537;
}
);
leftKerningGroup = o_L;
unicode = 006F;
},
{
color = 1;
glyphname = p;
lastChange = "2016-09-03 05:53:10 +0000";
layers = (
{
layerId = "21503E60-83E9-42CA-80F5-20ED7CD97021";
paths = (
{
closed = 1;
nodes = (
"203 -206 CURVE",
"122 -237 LINE",
"112 -226 LINE",
"117 -168 OFFCURVE",
"118 37 OFFCURVE",
"118 94 CURVE SMOOTH",
"118 315 LINE SMOOTH",
"118 360 OFFCURVE",
"109 412 OFFCURVE",
"79 412 CURVE SMOOTH",
"58 412 OFFCURVE",
"30 397 OFFCURVE",
"6 383 CURVE",
"-8 402 LINE",
"32 434 OFFCURVE",
"84 470 OFFCURVE",
"128 470 CURVE SMOOTH",
"173 470 OFFCURVE",
"189 439 OFFCURVE",
"193 395 CURVE",
"201 391 LINE",
"255 434 OFFCURVE",
"316 465 OFFCURVE",
"385 465 CURVE SMOOTH",
"487 465 OFFCURVE",
"522 373 OFFCURVE",
"522 298 CURVE SMOOTH",
"522 151 OFFCURVE",
"417 -11 OFFCURVE",
"262 -11 CURVE SMOOTH",
"242 -11 OFFCURVE",
"222 -8 OFFCURVE",
"203 -3 CURVE",
"193 -11 LINE",
"194 -57 OFFCURVE",
"197 -154 OFFCURVE"
);
},
{
closed = 1;
nodes = (
"195 66 CURVE",
"219 44 OFFCURVE",
"250 29 OFFCURVE",
"283 29 CURVE SMOOTH",
"404 29 OFFCURVE",
"438 144 OFFCURVE",
"438 239 CURVE SMOOTH",
"438 326 OFFCURVE",
"399 403 OFFCURVE",
"335 403 CURVE SMOOTH",
"284 403 OFFCURVE",
"243 382 OFFCURVE",
"196 345 CURVE",
"196 339 OFFCURVE",
"193 263 OFFCURVE",
"193 252 CURVE SMOOTH",
"193 170 OFFCURVE",
"195 67 OFFCURVE"
);
}
);
width = 562;
}
);
unicode = 0070;
},
{
color = 1;
glyphname = q;
lastChange = "2016-09-03 06:12:44 +0000";
layers = (
{
layerId = "21503E60-83E9-42CA-80F5-20ED7CD97021";
paths = (
{
closed = 1;
nodes = (
"370 -243 LINE",
"354 -227 LINE",
"357 -186 OFFCURVE",
"359 -42 OFFCURVE",
"362 54 CURVE",
"355 59 LINE",
"304 21 OFFCURVE",
"246 -7 OFFCURVE",
"183 -7 CURVE SMOOTH",
"78 -7 OFFCURVE",
"40 102 OFFCURVE",
"40 186 CURVE SMOOTH",
"40 325 OFFCURVE",
"111 471 OFFCURVE",
"280 471 CURVE SMOOTH",
"311 471 OFFCURVE",
"351 457 OFFCURVE",
"379 443 CURVE",
"388 445 LINE",
"432 504 LINE",
"453 500 LINE",
"443 384 OFFCURVE",
"439 245 OFFCURVE",
"439 113 CURVE SMOOTH",
"439 -9 OFFCURVE",
"443 -125 OFFCURVE",
"451 -214 CURVE"
);
},
{
closed = 1;
nodes = (
"362 105 CURVE",
"362 331 LINE SMOOTH",
"362 356 OFFCURVE",
"362 386 OFFCURVE",
"346 402 CURVE SMOOTH",
"328 420 OFFCURVE",
"305 434 OFFCURVE",
"279 434 CURVE SMOOTH",
"166 434 OFFCURVE",
"132 325 OFFCURVE",
"132 213 CURVE SMOOTH",
"132 130 OFFCURVE",
"164 55 OFFCURVE",
"246 55 CURVE SMOOTH",
"285 55 OFFCURVE",
"329 76 OFFCURVE"
);
}
);
width = 508;
}
);
unicode = 0071;
},
{
color = 1;
glyphname = r;
lastChange = "2016-09-03 06:11:10 +0000";
layers = (
{
layerId = "21503E60-83E9-42CA-80F5-20ED7CD97021";
paths = (
{
closed = 1;
nodes = (
"352 339 LINE",
"340 344 LINE",
"335 372 OFFCURVE",
"320 402 OFFCURVE",
"287 402 CURVE SMOOTH",
"246 402 OFFCURVE",
"221 367 OFFCURVE",
"210 340 CURVE SMOOTH",
"196 307 OFFCURVE",
"203 224 OFFCURVE",
"203 170 CURVE SMOOTH",
"203 119 OFFCURVE",
"204 69 OFFCURVE",
"206 18 CURVE",
"136 -3 LINE",
"121 6 LINE",
"127 76 OFFCURVE",
"133 163 OFFCURVE",
"133 243 CURVE SMOOTH",
"133 321 OFFCURVE",
"136 412 OFFCURVE",
"90 412 CURVE SMOOTH",
"67 412 OFFCURVE",
"37 395 OFFCURVE",
"12 381 CURVE",
"0 398 LINE",
"39 429 OFFCURVE",
"94 473 OFFCURVE",
"135 473 CURVE SMOOTH",
"180 473 OFFCURVE",
"201 443 OFFCURVE",
"207 401 CURVE",
"217 397 LINE",
"246 425 OFFCURVE",
"291 467 OFFCURVE",
"327 467 CURVE SMOOTH",
"376 467 OFFCURVE",
"401 440 OFFCURVE",
"406 388 CURVE"
);
}
);
width = 416;
}
);
unicode = 0072;
},
{
color = 1;
glyphname = s;
lastChange = "2016-09-03 06:00:10 +0000";
layers = (
{
layerId = "21503E60-83E9-42CA-80F5-20ED7CD97021";
paths = (
{
closed = 1;
nodes = (
"342 383 CURVE",
"287 346 LINE",
"275 353 LINE",
"272 397 OFFCURVE",
"255 431 OFFCURVE",
"210 431 CURVE SMOOTH",
"163 431 OFFCURVE",
"128 396 OFFCURVE",
"128 350 CURVE SMOOTH",
"128 310 OFFCURVE",
"165 285 OFFCURVE",
"238 254 CURVE SMOOTH",
"315 221 OFFCURVE",
"353 185 OFFCURVE",
"353 138 CURVE SMOOTH",
"353 36 OFFCURVE",
"253 -17 OFFCURVE",
"165 -17 CURVE SMOOTH",
"105 -17 OFFCURVE",
"51 3 OFFCURVE",
"18 66 CURVE",
"67 137 LINE",
"81 136 LINE",
"85 74 OFFCURVE",
"132 21 OFFCURVE",
"195 21 CURVE SMOOTH",
"237 21 OFFCURVE",
"280 56 OFFCURVE",
"280 97 CURVE SMOOTH",
"280 148 OFFCURVE",
"228 175 OFFCURVE",
"181 195 CURVE SMOOTH",
"118 221 OFFCURVE",
"56 257 OFFCURVE",
"56 323 CURVE SMOOTH",
"56 413 OFFCURVE",
"146 466 OFFCURVE",
"229 466 CURVE SMOOTH",
"281 466 OFFCURVE",
"339 444 OFFCURVE"
);
}
);
width = 379;
}
);
unicode = 0073;
},
{
color = 1;
glyphname = t;
lastChange = "2016-09-03 05:34:39 +0000";
layers = (
{
layerId = "21503E60-83E9-42CA-80F5-20ED7CD97021";
paths = (
{
closed = 1;
nodes = (
"121 582 CURVE",
"205 611 LINE",
"212 606 LINE",
"207 549 OFFCURVE",
"202 498 OFFCURVE",
"201 440 CURVE",
"207 435 LINE",
"335 435 LINE",
"340 431 LINE",
"332 405 LINE",
"326 400 LINE",
"207 400 LINE",
"201 394 LINE",
"201 205 LINE SMOOTH",
"201 134 OFFCURVE",
"209 55 OFFCURVE",
"272 55 CURVE SMOOTH",
"297 55 OFFCURVE",
"333 77 OFFCURVE",
"363 96 CURVE",
"375 94 LINE",
"382 79 LINE",
"336 36 OFFCURVE",
"276 -9 OFFCURVE",
"218 -9 CURVE SMOOTH",
"195 -9 OFFCURVE",
"164 -2 OFFCURVE",
"146 22 CURVE SMOOTH",
"125 49 OFFCURVE",
"123 68 OFFCURVE",
"123 203 CURVE SMOOTH",
"123 393 LINE",
"117 400 LINE",
"5 400 LINE",
"0 405 LINE",
"7 429 LINE",
"13 435 LINE",
"117 435 LINE",
"123 441 LINE",
"123 492 OFFCURVE",
"123 556 OFFCURVE"
);
}
);
width = 385;
}
);
unicode = 0074;
},
{
color = 1;
glyphname = u;
lastChange = "2016-09-03 06:00:51 +0000";
layers = (
{
anchors = (
{
name = bottom;
position = "{319, 0}";
},
{
name = top;
position = "{319, 462}";
}
);
layerId = "21503E60-83E9-42CA-80F5-20ED7CD97021";
paths = (
{
closed = 1;
nodes = (
"635 105 LINE",
"646 86 LINE",
"599 45 OFFCURVE",
"536 -8 OFFCURVE",
"485 -8 CURVE SMOOTH",
"439 -8 OFFCURVE",
"420 22 OFFCURVE",
"416 64 CURVE",
"408 65 LINE",
"352 31 OFFCURVE",
"279 -10 OFFCURVE",
"220 -10 CURVE SMOOTH",
"134 -10 OFFCURVE",
"115 56 OFFCURVE",
"115 112 CURVE SMOOTH",
"115 145 OFFCURVE",
"119 246 OFFCURVE",
"119 275 CURVE SMOOTH",
"119 366 OFFCURVE",
"115 382 OFFCURVE",
"102 396 CURVE SMOOTH",
"96 403 OFFCURVE",
"86 405 OFFCURVE",
"74 405 CURVE SMOOTH",
"60 405 OFFCURVE",
"26 388 OFFCURVE",
"3 375 CURVE",
"-10 395 LINE",
"29 425 OFFCURVE",
"84 468 OFFCURVE",
"126 468 CURVE SMOOTH",
"201 468 OFFCURVE",
"192 413 OFFCURVE",
"192 244 CURVE SMOOTH",
"192 142 OFFCURVE",
"190 51 OFFCURVE",
"282 51 CURVE SMOOTH",
"327 51 OFFCURVE",
"374 80 OFFCURVE",
"413 104 CURVE",
"413 169 OFFCURVE",
"414 258 OFFCURVE",
"414 329 CURVE SMOOTH",
"414 375 OFFCURVE",
"414 414 OFFCURVE",
"413 435 CURVE",
"490 470 LINE",
"503 459 LINE",
"495 366 OFFCURVE",
"491 273 OFFCURVE",
"491 181 CURVE SMOOTH",
"491 120 OFFCURVE",
"491 65 OFFCURVE",
"540 65 CURVE SMOOTH",
"567 65 OFFCURVE",
"601 88 OFFCURVE",
"627 107 CURVE"
);
}
);
width = 638;
}
);
unicode = 0075;
},
{
color = 1;
glyphname = v;
lastChange = "2016-09-03 06:01:54 +0000";
layers = (
{
layerId = "21503E60-83E9-42CA-80F5-20ED7CD97021";
paths = (
{
closed = 1;
nodes = (
"413 460 LINE SMOOTH",
"416 462 OFFCURVE",
"419 462 OFFCURVE",
"421 462 CURVE SMOOTH",
"440 462 OFFCURVE",
"467 420 OFFCURVE",
"467 362 CURVE SMOOTH",
"467 307 OFFCURVE",
"440 257 OFFCURVE",
"412 212 CURVE SMOOTH",
"367 140 OFFCURVE",
"312 77 OFFCURVE",
"253 17 CURVE SMOOTH",
"242 6 OFFCURVE",
"228 -8 OFFCURVE",
"223 -11 CURVE",
"199 -11 LINE",
"130 247 LINE SMOOTH",
"107 332 OFFCURVE",
"83 408 OFFCURVE",
"52 408 CURVE SMOOTH",
"30 408 OFFCURVE",
"12 400 OFFCURVE",
"-11 387 CURVE",
"-20 411 LINE",
"16 436 OFFCURVE",
"66 469 OFFCURVE",
"105 469 CURVE SMOOTH",
"156 469 OFFCURVE",
"170 400 OFFCURVE",
"198 293 CURVE SMOOTH",
"213 233 OFFCURVE",
"245 82 OFFCURVE",
"266 82 CURVE SMOOTH",
"271 82 OFFCURVE",
"282 96 OFFCURVE",
"290 104 CURVE",
"340 163 OFFCURVE",
"397 241 OFFCURVE",
"397 312 CURVE SMOOTH",
"397 344 OFFCURVE",
"377 380 OFFCURVE",
"360 412 CURVE",
"359 413 OFFCURVE",
"359 415 OFFCURVE",
"359 417 CURVE SMOOTH",
"359 420 OFFCURVE",
"361 423 OFFCURVE",
"363 425 CURVE"
);
}
);
width = 493;
}
);
unicode = 0076;
},
{
color = 1;
glyphname = w;
lastChange = "2016-09-03 06:02:04 +0000";
layers = (
{
layerId = "21503E60-83E9-42CA-80F5-20ED7CD97021";
paths = (
{
closed = 1;
nodes = (
"668 416 CURVE",
"667 418 OFFCURVE",
"667 420 OFFCURVE",
"667 422 CURVE SMOOTH",
"667 425 OFFCURVE",
"667 428 OFFCURVE",
"669 429 CURVE",
"726 464 LINE",
"727 465 OFFCURVE",
"729 465 OFFCURVE",
"732 465 CURVE SMOOTH",
"757 465 OFFCURVE",
"775 393 OFFCURVE",
"775 369 CURVE SMOOTH",
"775 314 OFFCURVE",
"747 263 OFFCURVE",
"719 216 CURVE SMOOTH",
"674 142 OFFCURVE",
"619 76 OFFCURVE",
"561 13 CURVE SMOOTH",
"551 3 OFFCURVE",
"539 -8 OFFCURVE",
"526 -8 CURVE SMOOTH",
"515 -8 OFFCURVE",
"503 4 OFFCURVE",
"500 13 CURVE SMOOTH",
"483 61 OFFCURVE",
"438 236 OFFCURVE",
"409 350 CURVE",
"407 354 OFFCURVE",
"405 360 OFFCURVE",
"400 360 CURVE SMOOTH",
"396 360 OFFCURVE",
"390 358 OFFCURVE",
"389 355 CURVE",
"333 252 OFFCURVE",
"265 124 OFFCURVE",
"210 5 CURVE",
"168 -8 LINE",
"161 -2 LINE",
"137 222 LINE SMOOTH",
"116 413 OFFCURVE",
"82 412 OFFCURVE",
"72 412 CURVE SMOOTH",
"49 412 OFFCURVE",
"16 395 OFFCURVE",
"-11 381 CURVE",
"-20 401 LINE",
"19 429 OFFCURVE",
"73 469 OFFCURVE",
"114 469 CURVE SMOOTH",
"168 469 OFFCURVE",
"184 414 OFFCURVE",
"192 373 CURVE SMOOTH",
"207 293 OFFCURVE",
"211 211 OFFCURVE",
"221 130 CURVE",
"232 128 LINE",
"289 231 OFFCURVE",
"346 335 OFFCURVE",
"398 441 CURVE",
"450 467 LINE",
"462 464 LINE",
"488 338 OFFCURVE",
"515 214 OFFCURVE",
"559 96 CURVE SMOOTH",
"562 89 OFFCURVE",
"569 81 OFFCURVE",
"577 81 CURVE SMOOTH",
"581 81 OFFCURVE",
"589 87 OFFCURVE",
"592 91 CURVE SMOOTH",
"643 155 OFFCURVE",
"706 231 OFFCURVE",
"706 312 CURVE SMOOTH",
"706 345 OFFCURVE",
"686 385 OFFCURVE"
);
}
);
width = 801;
}
);
leftMetricsKey = v;
rightMetricsKey = v;
unicode = 0077;
},
{
color = 1;
glyphname = x;
lastChange = "2016-09-03 06:02:15 +0000";
layers = (
{
layerId = "21503E60-83E9-42CA-80F5-20ED7CD97021";
paths = (
{
closed = 1;
nodes = (
"410 462 CURVE SMOOTH",
"441 433 LINE SMOOTH",
"442 432 OFFCURVE",
"444 430 OFFCURVE",
"444 429 CURVE SMOOTH",
"444 426 OFFCURVE",
"443 425 OFFCURVE",
"441 424 CURVE",
"385 385 OFFCURVE",
"321 320 OFFCURVE",
"269 259 CURVE",
"310 169 OFFCURVE",
"369 63 OFFCURVE",
"413 63 CURVE SMOOTH",
"437 63 OFFCURVE",
"464 84 OFFCURVE",
"484 101 CURVE",
"492 101 LINE",
"500 82 LINE",
"465 44 OFFCURVE",
"414 -12 OFFCURVE",
"372 -12 CURVE SMOOTH",
"321 -12 OFFCURVE",
"287 62 OFFCURVE",
"221 191 CURVE",
"214 191 LINE",
"175 131 OFFCURVE",
"135 69 OFFCURVE",
"105 -8 CURVE",
"89 -12 LINE",
"61 13 LINE",
"61 21 LINE",
"104 90 OFFCURVE",
"154 159 OFFCURVE",
"203 223 CURVE",
"165 300 OFFCURVE",
"117 407 OFFCURVE",
"68 407 CURVE SMOOTH",
"47 407 OFFCURVE",
"22 394 OFFCURVE",
"4 382 CURVE",
"-10 400 LINE",
"25 427 OFFCURVE",
"75 464 OFFCURVE",
"108 464 CURVE SMOOTH",
"125 464 OFFCURVE",
"148 460 OFFCURVE",
"162 445 CURVE SMOOTH",
"183 422 OFFCURVE",
"224 350 OFFCURVE",
"253 294 CURVE",
"259 293 LINE",
"295 341 OFFCURVE",
"354 411 OFFCURVE",
"398 462 CURVE",
"399 464 OFFCURVE",
"401 464 OFFCURVE",
"404 464 CURVE SMOOTH",
"406 464 OFFCURVE",
"408 464 OFFCURVE"
);
}
);
width = 490;
}
);
unicode = 0078;
},
{
color = 1;
glyphname = y;
lastChange = "2016-09-03 06:02:40 +0000";
layers = (
{
anchors = (
{
name = bottom;
position = "{277, 0}";
},
{
name = top;
position = "{277, 462}";
}
);
layerId = "21503E60-83E9-42CA-80F5-20ED7CD97021";
paths = (
{
closed = 1;
nodes = (
"104 -182 CURVE",
"102 -171 LINE",
"146 -115 LINE",
"159 -115 LINE",
"180 -153 OFFCURVE",
"218 -192 OFFCURVE",
"263 -192 CURVE SMOOTH",
"370 -192 OFFCURVE",
"394 -91 OFFCURVE",
"404 -34 CURVE SMOOTH",
"410 -1 OFFCURVE",
"411 32 OFFCURVE",
"412 64 CURVE",
"406 69 LINE",
"350 34 OFFCURVE",
"282 -8 OFFCURVE",
"218 -8 CURVE SMOOTH",
"121 -8 OFFCURVE",
"114 90 OFFCURVE",
"114 157 CURVE SMOOTH",
"114 202 OFFCURVE",
"118 244 OFFCURVE",
"118 294 CURVE SMOOTH",
"118 366 OFFCURVE",
"113 410 OFFCURVE",
"72 410 CURVE SMOOTH",
"55 410 OFFCURVE",
"24 394 OFFCURVE",
"1 382 CURVE",
"-10 401 LINE",
"4 411 OFFCURVE",
"83 468 OFFCURVE",
"129 468 CURVE SMOOTH",
"172 468 OFFCURVE",
"192 435 OFFCURVE",
"192 398 CURVE SMOOTH",
"192 342 OFFCURVE",
"188 284 OFFCURVE",
"188 226 CURVE SMOOTH",
"191 133 OFFCURVE",
"200 103 OFFCURVE",
"216 82 CURVE SMOOTH",
"231 63 OFFCURVE",
"255 56 OFFCURVE",
"279 56 CURVE SMOOTH",
"327 56 OFFCURVE",
"376 86 OFFCURVE",
"413 108 CURVE",
"414 143 OFFCURVE",
"415 179 OFFCURVE",
"415 215 CURVE SMOOTH",
"415 287 OFFCURVE",
"412 359 OFFCURVE",
"407 428 CURVE",
"486 466 LINE",
"498 462 LINE",
"484 258 OFFCURVE",
"499 46 OFFCURVE",
"477 -49 CURVE SMOOTH",
"441 -179 OFFCURVE",
"338 -233 OFFCURVE",
"231 -233 CURVE SMOOTH",
"184 -233 OFFCURVE",
"131 -210 OFFCURVE"
);
}
);
width = 572;
}
);
unicode = 0079;
},
{
color = 1;
glyphname = z;
lastChange = "2016-09-03 06:04:11 +0000";
layers = (
{
layerId = "21503E60-83E9-42CA-80F5-20ED7CD97021";
paths = (
{
closed = 1;
nodes = (
"402 462 CURVE",
"408 462 LINE",
"422 449 LINE",
"339 361 OFFCURVE",
"231 228 OFFCURVE",
"132 94 CURVE",
"137 86 LINE",
"235 76 OFFCURVE",
"333 73 OFFCURVE",
"342 73 CURVE SMOOTH",
"399 73 OFFCURVE",
"428 115 OFFCURVE",
"451 151 CURVE",
"473 139 LINE",
"432 59 LINE SMOOTH",
"412 19 OFFCURVE",
"385 -9 OFFCURVE",
"335 -8 CURVE",
"324 -9 OFFCURVE",
"249 1 OFFCURVE",
"206 5 CURVE SMOOTH",
"89 16 LINE",
"65 16 OFFCURVE",
"43 -4 OFFCURVE",
"27 -27 CURVE",
"21 -27 LINE",
"6 -8 LINE",
"301 373 LINE",
"291 371 OFFCURVE",
"282 371 OFFCURVE",
"271 371 CURVE SMOOTH",
"238 371 OFFCURVE",
"187 390 OFFCURVE",
"151 390 CURVE SMOOTH",
"114 390 OFFCURVE",
"93 362 OFFCURVE",
"62 319 CURVE",
"42 332 LINE",
"92 421 LINE",
"112 452 OFFCURVE",
"125 462 OFFCURVE",
"154 462 CURVE SMOOTH",
"205 462 OFFCURVE",
"273 431 OFFCURVE",
"329 431 CURVE SMOOTH",
"358 431 OFFCURVE",
"381 445 OFFCURVE"
);
}
);
width = 463;
}
);
unicode = 007A;
},
{
color = 1;
glyphname = dotlessi;
lastChange = "2016-09-03 06:04:28 +0000";
layers = (
{
anchors = (
{
name = bottom;
position = "{165, 0}";
},
{
name = ogonek;
position = "{268, 10}";
},
{
name = top;
position = "{130, 462}";
}
);
layerId = "21503E60-83E9-42CA-80F5-20ED7CD97021";
paths = (
{
closed = 1;
nodes = (
"192 392 CURVE",
"184 182 LINE",
"184 108 OFFCURVE",
"193 65 OFFCURVE",
"228 65 CURVE SMOOTH",
"266 65 OFFCURVE",
"293 86 OFFCURVE",
"320 110 CURVE",
"333 100 LINE",
"333 89 LINE",
"299 44 OFFCURVE",
"247 -8 OFFCURVE",
"192 -8 CURVE SMOOTH",
"149 -8 OFFCURVE",
"112 5 OFFCURVE",
"112 104 CURVE SMOOTH",
"118 325 LINE SMOOTH",
"118 377 OFFCURVE",
"109 410 OFFCURVE",
"83 410 CURVE SMOOTH",
"61 410 OFFCURVE",
"27 393 OFFCURVE",
"3 378 CURVE",
"-10 396 LINE",
"35 432 OFFCURVE",
"91 471 OFFCURVE",
"130 471 CURVE SMOOTH",
"175 471 OFFCURVE",
"192 436 OFFCURVE"
);
}
);
width = 323;
}
);
leftMetricsKey = i;
rightMetricsKey = i;
unicode = 0131;
},
{
color = 1;
glyphname = dotlessj;
lastChange = "2016-09-03 06:04:32 +0000";
layers = (
{
layerId = "21503E60-83E9-42CA-80F5-20ED7CD97021";
paths = (
{
closed = 1;
nodes = (
"18 375 CURVE",
"5 393 LINE",
"46 425 OFFCURVE",
"103 468 OFFCURVE",
"146 468 CURVE SMOOTH",
"194 468 OFFCURVE",
"204 434 OFFCURVE",
"207 401 CURVE",
"214 358 OFFCURVE",
"214 191 OFFCURVE",
"214 154 CURVE SMOOTH",
"214 134 OFFCURVE",
"214 -6 OFFCURVE",
"202 -41 CURVE SMOOTH",
"172 -128 OFFCURVE",
"96 -188 OFFCURVE",
"6 -231 CURVE",
"-10 -215 LINE",
"64 -171 OFFCURVE",
"104 -126 OFFCURVE",
"118 -76 CURVE SMOOTH",
"135 -14 OFFCURVE",
"138 110 OFFCURVE",
"138 154 CURVE SMOOTH",
"138 396 OFFCURVE",
"130 408 OFFCURVE",
"94 408 CURVE SMOOTH",
"78 408 OFFCURVE",
"43 388 OFFCURVE"
);
}
);
width = 288;
}
);
leftMetricsKey = j;
rightMetricsKey = j;
unicode = 0237;
userData = {
public.markColor = "0,0,1,1";
};
},
{
color = 1;
glyphname = weierstrass;
lastChange = "2016-09-03 05:18:19 +0000";
layers = (
{
layerId = "21503E60-83E9-42CA-80F5-20ED7CD97021";
paths = (
{
closed = 1;
nodes = (
"269 59 CURVE",
"316 102 LINE",
"323 101 LINE",
"332 66 OFFCURVE",
"352 49 OFFCURVE",
"379 49 CURVE SMOOTH",
"467 49 OFFCURVE",
"490 159 OFFCURVE",
"490 251 CURVE SMOOTH",
"490 316 OFFCURVE",
"468 410 OFFCURVE",
"388 410 CURVE SMOOTH",
"369 410 OFFCURVE",
"359 408 OFFCURVE",
"331 397 CURVE SMOOTH",
"292 381 OFFCURVE",
"229 289 OFFCURVE",
"189 227 CURVE",
"219 174 OFFCURVE",
"250 115 OFFCURVE"
);
},
{
closed = 1;
nodes = (
"182 464 CURVE",
"196 454 LINE",
"170 421 OFFCURVE",
"145 385 OFFCURVE",
"145 342 CURVE SMOOTH",
"145 315 OFFCURVE",
"156 287 OFFCURVE",
"167 265 CURVE",
"176 265 LINE",
"194 291 LINE SMOOTH",
"233 353 OFFCURVE",
"312 472 OFFCURVE",
"430 472 CURVE SMOOTH",
"529 472 OFFCURVE",
"550 378 OFFCURVE",
"550 306 CURVE SMOOTH",
"550 214 OFFCURVE",
"525 117 OFFCURVE",
"459 51 CURVE SMOOTH",
"431 23 OFFCURVE",
"392 -6 OFFCURVE",
"355 -6 CURVE SMOOTH",
"325 -6 OFFCURVE",
"298 9 OFFCURVE",
"278 30 CURVE",
"282 15 OFFCURVE",
"284 1 OFFCURVE",
"284 -14 CURVE SMOOTH",
"284 -96 OFFCURVE",
"242 -196 OFFCURVE",
"150 -196 CURVE SMOOTH",
"75 -196 OFFCURVE",
"44 -126 OFFCURVE",
"44 -65 CURVE SMOOTH",
"44 11 OFFCURVE",
"102 132 OFFCURVE",
"130 184 CURVE",
"110 221 OFFCURVE",
"89 263 OFFCURVE",
"89 306 CURVE SMOOTH",
"89 372 OFFCURVE",
"131 427 OFFCURVE"
);
},
{
closed = 1;
nodes = (
"145 144 LINE",
"115 92 OFFCURVE",
"94 20 OFFCURVE",
"94 -30 CURVE SMOOTH",
"94 -77 OFFCURVE",
"110 -148 OFFCURVE",
"166 -148 CURVE SMOOTH",
"224 -148 OFFCURVE",
"243 -96 OFFCURVE",
"243 -51 CURVE SMOOTH",
"243 9 OFFCURVE",
"192 84 OFFCURVE",
"154 144 CURVE"
);
}
);
width = 591;
}
);
unicode = 2118;
userData = {
public.markColor = "0,0,1,1";
};
},
{
color = 1;
glyphname = f.alt;
lastChange = "2016-09-03 06:04:56 +0000";
layers = (
{
layerId = "21503E60-83E9-42CA-80F5-20ED7CD97021";
paths = (
{
closed = 1;
nodes = (
"314 669 LINE",
"292 669 LINE SMOOTH",
"229 669 OFFCURVE",
"169 632 OFFCURVE",
"139 562 CURVE SMOOTH",
"123 526 OFFCURVE",
"121 475 OFFCURVE",
"121 440 CURVE",
"115 434 LINE",
"10 434 LINE",
"3 428 LINE",
"-1 406 LINE",
"4 399 LINE",
"116 399 LINE",
"122 391 LINE",
"122 283 LINE SMOOTH",
"122 192 OFFCURVE",
"116 98 OFFCURVE",
"109 -1 CURVE",
"126 -12 LINE",
"205 12 LINE",
"198 93 OFFCURVE",
"195 188 OFFCURVE",
"195 282 CURVE SMOOTH",
"195 393 LINE",
"201 399 LINE",
"316 399 LINE",
"323 405 LINE",
"330 427 LINE",
"325 434 LINE",
"201 434 LINE",
"197 440 LINE",
"197 506 OFFCURVE",
"203 570 OFFCURVE",
"225 607 CURVE SMOOTH",
"237 627 OFFCURVE",
"253 636 OFFCURVE",
"275 638 CURVE SMOOTH",
"318 642 OFFCURVE",
"308 640 OFFCURVE",
"314 641 CURVE"
);
}
);
width = 317;
}
);
leftMetricsKey = f;
},
{
color = 1;
glyphname = parenleft;
lastChange = "2016-09-03 05:18:19 +0000";
layers = (
{
layerId = "21503E60-83E9-42CA-80F5-20ED7CD97021";
paths = (
{
closed = 1;
nodes = (
"246 -163 CURVE",
"246 -187 LINE",
"141 -178 OFFCURVE",
"93 -57 OFFCURVE",
"76 38 CURVE SMOOTH",
"62 118 OFFCURVE",
"58 199 OFFCURVE",
"58 280 CURVE SMOOTH",
"58 357 OFFCURVE",
"63 435 OFFCURVE",
"78 510 CURVE SMOOTH",
"97 606 OFFCURVE",
"142 720 OFFCURVE",
"246 738 CURVE",
"246 711 LINE",
"119 679 OFFCURVE",
"110 425 OFFCURVE",
"110 274 CURVE SMOOTH",
"110 105 OFFCURVE",
"117 -138 OFFCURVE"
);
}
);
width = 257;
}
);
unicode = 0028;
},
{
color = 1;
glyphname = parenright;
lastChange = "2016-09-03 05:18:19 +0000";
layers = (
{
layerId = "21503E60-83E9-42CA-80F5-20ED7CD97021";
paths = (
{
closed = 1;
nodes = (
"11 709 CURVE",
"11 736 LINE",
"180 701 OFFCURVE",
"201 439 OFFCURVE",
"201 272 CURVE SMOOTH",
"201 101 OFFCURVE",
"190 -166 OFFCURVE",
"11 -189 CURVE",
"11 -165 LINE",
"57 -153 OFFCURVE",
"95 -127 OFFCURVE",
"115 -67 CURVE SMOOTH",
"151 40 OFFCURVE",
"149 162 OFFCURVE",
"149 276 CURVE SMOOTH",
"149 354 OFFCURVE",
"145 434 OFFCURVE",
"130 511 CURVE SMOOTH",
"115 586 OFFCURVE",
"92 680 OFFCURVE"
);
}
);
width = 259;
}
);
unicode = 0029;
},
{
color = 1;
glyphname = quoteleft;
lastChange = "2016-09-03 05:18:19 +0000";
layers = (
{
layerId = "21503E60-83E9-42CA-80F5-20ED7CD97021";
paths = (
{
closed = 1;
nodes = (
"115 532 CURVE SMOOTH",
"147 483 LINE SMOOTH",
"152 475 OFFCURVE",
"163 456 OFFCURVE",
"163 448 CURVE SMOOTH",
"163 430 OFFCURVE",
"130 406 OFFCURVE",
"115 406 CURVE SMOOTH",
"85 406 OFFCURVE",
"41 493 OFFCURVE",
"41 541 CURVE SMOOTH",
"41 592 OFFCURVE",
"97 660 OFFCURVE",
"136 709 CURVE",
"150 695 LINE",
"129 659 OFFCURVE",
"101 612 OFFCURVE",
"101 577 CURVE SMOOTH",
"101 561 OFFCURVE",
"106 546 OFFCURVE"
);
}
);
width = 200;
}
);
unicode = 2018;
},
{
color = 1;
glyphname = quoteright;
lastChange = "2016-09-03 05:18:19 +0000";
layers = (
{
layerId = "21503E60-83E9-42CA-80F5-20ED7CD97021";
paths = (
{
closed = 1;
nodes = (
"66 395 CURVE",
"50 406 LINE",
"74 447 OFFCURVE",
"98 485 OFFCURVE",
"98 525 CURVE SMOOTH",
"98 539 OFFCURVE",
"92 551 OFFCURVE",
"85 564 CURVE",
"50 621 LINE SMOOTH",
"44 631 OFFCURVE",
"36 647 OFFCURVE",
"36 654 CURVE SMOOTH",
"36 669 OFFCURVE",
"68 695 OFFCURVE",
"84 695 CURVE SMOOTH",
"112 695 OFFCURVE",
"155 606 OFFCURVE",
"155 564 CURVE SMOOTH",
"155 502 OFFCURVE",
"101 448 OFFCURVE"
);
}
);
width = 197;
}
);
unicode = 2019;
},
{
color = 1;
glyphname = asterisk;
lastChange = "2016-09-03 05:18:18 +0000";
layers = (
{
layerId = "21503E60-83E9-42CA-80F5-20ED7CD97021";
paths = (
{
closed = 1;
nodes = (
"175 448 CURVE",
"135 448 LINE",
"141 486 OFFCURVE",
"143 516 OFFCURVE",
"144 559 CURVE",
"117 538 OFFCURVE",
"91 515 OFFCURVE",
"67 487 CURVE",
"46 522 LINE",
"80 539 OFFCURVE",
"107 557 OFFCURVE",
"133 575 CURVE",
"104 596 OFFCURVE",
"77 612 OFFCURVE",
"48 627 CURVE",
"75 655 LINE",
"97 634 OFFCURVE",
"118 615 OFFCURVE",
"143 596 CURVE",
"143 628 OFFCURVE",
"143 659 OFFCURVE",
"135 692 CURVE",
"175 692 LINE",
"168 659 OFFCURVE",
"166 630 OFFCURVE",
"164 597 CURVE",
"189 617 OFFCURVE",
"212 638 OFFCURVE",
"232 659 CURVE",
"257 628 LINE",
"225 613 OFFCURVE",
"197 596 OFFCURVE",
"169 576 CURVE",
"200 553 OFFCURVE",
"229 533 OFFCURVE",
"257 520 CURVE",
"231 491 LINE",
"214 510 OFFCURVE",
"190 532 OFFCURVE",
"164 552 CURVE",
"165 517 OFFCURVE",
"167 484 OFFCURVE"
);
}
);
width = 301;
}
);
unicode = 002A;
},
{
color = 1;
glyphname = plus;
lastChange = "2016-09-03 05:18:19 +0000";
layers = (
{
layerId = "21503E60-83E9-42CA-80F5-20ED7CD97021";
paths = (
{
closed = 1;
nodes = (
"392 276 LINE",
"705 276 LINE",
"700 236 LINE",
"392 236 LINE",
"392 -67 LINE",
"352 -74 LINE",
"352 236 LINE",
"42 236 LINE",
"49 276 LINE",
"352 276 LINE",
"352 580 LINE",
"392 586 LINE"
);
}
);
width = 747;
}
);
unicode = 002B;
},
{
color = 1;
glyphname = colon;
lastChange = "2016-09-03 05:18:19 +0000";
layers = (
{
layerId = "21503E60-83E9-42CA-80F5-20ED7CD97021";
paths = (
{
closed = 1;
nodes = (
"35 45 CURVE SMOOTH",
"35 76 OFFCURVE",
"61 102 OFFCURVE",
"93 102 CURVE SMOOTH",
"124 102 OFFCURVE",
"149 76 OFFCURVE",
"149 45 CURVE SMOOTH",
"149 14 OFFCURVE",
"124 -12 OFFCURVE",
"93 -12 CURVE SMOOTH",
"61 -12 OFFCURVE",
"35 14 OFFCURVE"
);
},
{
closed = 1;
nodes = (
"35 398 CURVE SMOOTH",
"35 429 OFFCURVE",
"61 455 OFFCURVE",
"93 455 CURVE SMOOTH",
"124 455 OFFCURVE",
"149 429 OFFCURVE",
"149 398 CURVE SMOOTH",
"149 367 OFFCURVE",
"124 341 OFFCURVE",
"93 341 CURVE SMOOTH",
"61 341 OFFCURVE",
"35 367 OFFCURVE"
);
}
);
width = 184;
}
);
unicode = 003A;
},
{
color = 1;
glyphname = semicolon;
lastChange = "2016-09-03 05:18:19 +0000";
layers = (
{
layerId = "21503E60-83E9-42CA-80F5-20ED7CD97021";
paths = (
{
closed = 1;
nodes = (
"29 400 CURVE SMOOTH",
"29 431 OFFCURVE",
"55 457 OFFCURVE",
"87 457 CURVE SMOOTH",
"118 457 OFFCURVE",
"143 431 OFFCURVE",
"143 400 CURVE SMOOTH",
"143 369 OFFCURVE",
"118 343 OFFCURVE",
"87 343 CURVE SMOOTH",
"55 343 OFFCURVE",
"29 369 OFFCURVE"
);
},
{
closed = 1;
nodes = (
"70 -190 CURVE",
"55 -177 LINE",
"79 -145 OFFCURVE",
"102 -100 OFFCURVE",
"102 -64 CURVE SMOOTH",
"102 -50 OFFCURVE",
"96 -38 OFFCURVE",
"89 -26 CURVE",
"55 25 LINE SMOOTH",
"50 33 OFFCURVE",
"46 42 OFFCURVE",
"46 51 CURVE SMOOTH",
"46 63 OFFCURVE",
"47 78 OFFCURVE",
"55 86 CURVE SMOOTH",
"57 88 LINE",
"66 95 OFFCURVE",
"77 99 OFFCURVE",
"89 99 CURVE SMOOTH",
"124 99 OFFCURVE",
"160 17 OFFCURVE",
"160 -22 CURVE SMOOTH",
"160 -83 OFFCURVE",
"110 -141 OFFCURVE"
);
}
);
width = 193;
}
);
unicode = 003B;
},
{
color = 1;
glyphname = question;
lastChange = "2016-09-03 05:18:19 +0000";
layers = (
{
layerId = "21503E60-83E9-42CA-80F5-20ED7CD97021";
paths = (
{
closed = 1;
nodes = (
"82 46 CURVE SMOOTH",
"82 77 OFFCURVE",
"107 103 OFFCURVE",
"138 103 CURVE SMOOTH",
"170 103 OFFCURVE",
"196 77 OFFCURVE",
"196 46 CURVE SMOOTH",
"196 15 OFFCURVE",
"170 -11 OFFCURVE",
"138 -11 CURVE SMOOTH",
"107 -11 OFFCURVE",
"82 15 OFFCURVE"
);
},
{
closed = 1;
nodes = (
"162 211 LINE",
"116 179 LINE",
"93 193 OFFCURVE",
"74 220 OFFCURVE",
"74 250 CURVE SMOOTH",
"74 270 OFFCURVE",
"87 289 OFFCURVE",
"100 305 CURVE SMOOTH",
"164 388 OFFCURVE",
"263 432 OFFCURVE",
"263 545 CURVE SMOOTH",
"263 599 OFFCURVE",
"215 661 OFFCURVE",
"165 661 CURVE SMOOTH",
"126 661 OFFCURVE",
"84 634 OFFCURVE",
"84 589 CURVE SMOOTH",
"84 565 OFFCURVE",
"97 543 OFFCURVE",
"116 528 CURVE",
"49 488 LINE",
"31 504 OFFCURVE",
"21 531 OFFCURVE",
"21 557 CURVE SMOOTH",
"21 640 OFFCURVE",
"126 693 OFFCURVE",
"205 693 CURVE SMOOTH",
"281 693 OFFCURVE",
"334 642 OFFCURVE",
"334 565 CURVE SMOOTH",
"334 532 OFFCURVE",
"321 505 OFFCURVE",
"304 476 CURVE SMOOTH",
"257 397 OFFCURVE",
"135 336 OFFCURVE",
"135 274 CURVE SMOOTH",
"135 254 OFFCURVE",
"146 234 OFFCURVE",
"162 222 CURVE"
);
}
);
width = 353;
}
);
unicode = 003F;
},
{
color = 1;
glyphname = equal;
lastChange = "2016-09-03 05:18:18 +0000";
layers = (
{
layerId = "21503E60-83E9-42CA-80F5-20ED7CD97021";
paths = (
{
closed = 1;
nodes = (
"739 329 LINE",
"77 329 LINE",
"84 369 LINE",
"745 369 LINE"
);
},
{
closed = 1;
nodes = (
"739 132 LINE",
"77 132 LINE",
"84 172 LINE",
"745 172 LINE"
);
}
);
width = 823;
}
);
unicode = 003D;
},
{
color = 1;
glyphname = minus;
lastChange = "2016-09-03 05:18:19 +0000";
layers = (
{
layerId = "21503E60-83E9-42CA-80F5-20ED7CD97021";
paths = (
{
closed = 1;
nodes = (
"772 236 LINE",
"114 236 LINE",
"121 276 LINE",
"778 276 LINE"
);
}
);
width = 892;
}
);
unicode = 2212;
},
{
color = 1;
glyphname = bracketleft;
lastChange = "2016-09-03 05:18:19 +0000";
layers = (
{
layerId = "21503E60-83E9-42CA-80F5-20ED7CD97021";
paths = (
{
closed = 1;
nodes = (
"247 712 LINE",
"128 699 LINE",
"128 -83 LINE",
"247 -96 LINE",
"247 -120 LINE",
"193 -120 OFFCURVE",
"140 -120 OFFCURVE",
"88 -125 CURVE",
"88 741 LINE",
"127 736 OFFCURVE",
"193 736 OFFCURVE",
"247 736 CURVE"
);
}
);
width = 258;
}
);
unicode = 005B;
},
{
color = 1;
glyphname = bracketright;
lastChange = "2016-09-03 05:18:19 +0000";
layers = (
{
layerId = "21503E60-83E9-42CA-80F5-20ED7CD97021";
paths = (
{
closed = 1;
nodes = (
"130 699 LINE",
"11 712 LINE",
"11 736 LINE",
"65 736 OFFCURVE",
"131 736 OFFCURVE",
"170 741 CURVE",
"170 -125 LINE",
"118 -120 OFFCURVE",
"65 -120 OFFCURVE",
"11 -120 CURVE",
"11 -96 LINE",
"130 -83 LINE"
);
}
);
width = 258;
}
);
unicode = 005D;
},
{
color = 1;
glyphname = exclam;
lastChange = "2016-09-03 05:18:19 +0000";
layers = (
{
layerId = "21503E60-83E9-42CA-80F5-20ED7CD97021";
paths = (
{
closed = 1;
nodes = (
"54 46 CURVE SMOOTH",
"54 77 OFFCURVE",
"80 103 OFFCURVE",
"112 103 CURVE SMOOTH",
"143 103 OFFCURVE",
"168 77 OFFCURVE",
"168 46 CURVE SMOOTH",
"168 15 OFFCURVE",
"143 -11 OFFCURVE",
"112 -11 CURVE SMOOTH",
"80 -11 OFFCURVE",
"54 15 OFFCURVE"
);
},
{
closed = 1;
nodes = (
"96 184 LINE",
"69 567 LINE SMOOTH",
"68 586 OFFCURVE",
"65 608 OFFCURVE",
"66 625 CURVE",
"66 676 OFFCURVE",
"84 690 OFFCURVE",
"116 690 CURVE SMOOTH",
"146 690 OFFCURVE",
"153 664 OFFCURVE",
"153 644 CURVE SMOOTH",
"153 615 OFFCURVE",
"151 586 OFFCURVE",
"148 557 CURVE SMOOTH",
"112 186 LINE"
);
}
);
width = 216;
}
);
unicode = 0021;
},
{
color = 1;
glyphname = quotedbl;
lastChange = "2016-09-03 05:18:18 +0000";
layers = (
{
layerId = "21503E60-83E9-42CA-80F5-20ED7CD97021";
paths = (
{
closed = 1;
nodes = (
"97 432 LINE",
"77 584 LINE SMOOTH",
"74 608 OFFCURVE",
"72 633 OFFCURVE",
"72 657 CURVE SMOOTH",
"72 678 OFFCURVE",
"81 695 OFFCURVE",
"106 695 CURVE SMOOTH",
"120 695 OFFCURVE",
"139 689 OFFCURVE",
"139 675 CURVE SMOOTH",
"139 623 LINE",
"118 432 LINE"
);
},
{
closed = 1;
nodes = (
"218 432 LINE",
"196 625 LINE SMOOTH",
"194 639 OFFCURVE",
"191 663 OFFCURVE",
"191 668 CURVE SMOOTH",
"191 687 OFFCURVE",
"212 692 OFFCURVE",
"230 692 CURVE SMOOTH",
"241 692 OFFCURVE",
"259 686 OFFCURVE",
"259 673 CURVE SMOOTH",
"259 657 OFFCURVE",
"259 641 OFFCURVE",
"258 626 CURVE SMOOTH",
"239 432 LINE"
);
}
);
width = 333;
}
);
unicode = 0022;
},
{
color = 1;
glyphname = quotesingle;
lastChange = "2016-09-03 05:18:19 +0000";
layers = (
{
layerId = "21503E60-83E9-42CA-80F5-20ED7CD97021";
paths = (
{
closed = 1;
nodes = (
"94 436 LINE",
"76 629 LINE SMOOTH",
"75 641 OFFCURVE",
"74 653 OFFCURVE",
"74 666 CURVE SMOOTH",
"74 685 OFFCURVE",
"91 695 OFFCURVE",
"110 695 CURVE SMOOTH",
"131 695 OFFCURVE",
"140 681 OFFCURVE",
"140 662 CURVE SMOOTH",
"140 651 OFFCURVE",
"138 635 OFFCURVE",
"136 622 CURVE SMOOTH",
"110 436 LINE"
);
}
);
width = 210;
}
);
unicode = 0027;
},
{
color = 1;
glyphname = ampersand;
lastChange = "2016-09-03 05:18:19 +0000";
layers = (
{
layerId = "21503E60-83E9-42CA-80F5-20ED7CD97021";
paths = (
{
closed = 1;
nodes = (
"326 356 CURVE",
"328 399 LINE",
"384 396 OFFCURVE",
"461 396 OFFCURVE",
"528 396 CURVE SMOOTH",
"580 396 OFFCURVE",
"654 396 OFFCURVE",
"684 399 CURVE",
"681 351 LINE",
"640 358 OFFCURVE",
"583 358 OFFCURVE",
"534 358 CURVE",
"539 337 OFFCURVE",
"543 316 OFFCURVE",
"543 295 CURVE SMOOTH",
"543 228 OFFCURVE",
"510 168 OFFCURVE",
"469 115 CURVE",
"472 112 LINE SMOOTH",
"498 84 OFFCURVE",
"537 53 OFFCURVE",
"577 53 CURVE SMOOTH",
"648 53 OFFCURVE",
"678 125 OFFCURVE",
"693 189 CURVE",
"714 184 LINE",
"698 95 OFFCURVE",
"655 -11 OFFCURVE",
"546 -11 CURVE SMOOTH",
"496 -11 OFFCURVE",
"451 14 OFFCURVE",
"416 48 CURVE",
"411 52 LINE",
"371 20 OFFCURVE",
"316 -8 OFFCURVE",
"258 -8 CURVE SMOOTH",
"198 -8 OFFCURVE",
"134 4 OFFCURVE",
"91 47 CURVE SMOOTH",
"52 86 OFFCURVE",
"29 140 OFFCURVE",
"29 195 CURVE SMOOTH",
"29 286 OFFCURVE",
"76 329 OFFCURVE",
"187 397 CURVE",
"171 436 OFFCURVE",
"161 478 OFFCURVE",
"161 520 CURVE SMOOTH",
"161 611 OFFCURVE",
"222 698 OFFCURVE",
"324 698 CURVE SMOOTH",
"374 698 OFFCURVE",
"426 661 OFFCURVE",
"426 606 CURVE SMOOTH",
"426 562 OFFCURVE",
"412 525 OFFCURVE",
"379 495 CURVE SMOOTH",
"349 467 OFFCURVE",
"275 424 OFFCURVE",
"258 416 CURVE",
"306 310 OFFCURVE",
"370 217 OFFCURVE",
"454 131 CURVE",
"480 169 OFFCURVE",
"492 218 OFFCURVE",
"492 266 CURVE SMOOTH",
"492 296 OFFCURVE",
"477 324 OFFCURVE",
"456 345 CURVE SMOOTH",
"440 361 OFFCURVE",
"417 361 OFFCURVE",
"395 361 CURVE SMOOTH",
"372 361 OFFCURVE",
"349 359 OFFCURVE"
);
},
{
closed = 1;
nodes = (
"396 68 CURVE",
"316 157 OFFCURVE",
"242 266 OFFCURVE",
"196 376 CURVE",
"128 331 OFFCURVE",
"107 281 OFFCURVE",
"107 218 CURVE SMOOTH",
"107 125 OFFCURVE",
"174 31 OFFCURVE",
"273 31 CURVE SMOOTH",
"326 31 OFFCURVE",
"364 42 OFFCURVE"
);
},
{
closed = 1;
nodes = (
"250 435 CURVE",
"333 487 OFFCURVE",
"354 517 OFFCURVE",
"354 582 CURVE SMOOTH",
"354 617 OFFCURVE",
"319 663 OFFCURVE",
"287 663 CURVE SMOOTH",
"227 663 OFFCURVE",
"222 605 OFFCURVE",
"222 559 CURVE SMOOTH",
"222 516 OFFCURVE",
"233 475 OFFCURVE"
);
}
);
width = 738;
}
);
unicode = 0026;
},
{
color = 1;
glyphname = asciitilde;
lastChange = "2016-09-03 05:18:19 +0000";
layers = (
{
layerId = "21503E60-83E9-42CA-80F5-20ED7CD97021";
paths = (
{
closed = 1;
nodes = (
"342 291 CURVE SMOOTH",
"416 245 LINE SMOOTH",
"438 231 OFFCURVE",
"463 219 OFFCURVE",
"490 219 CURVE SMOOTH",
"530 219 OFFCURVE",
"550 249 OFFCURVE",
"570 286 CURVE",
"591 275 LINE",
"571 227 OFFCURVE",
"534 178 OFFCURVE",
"479 178 CURVE SMOOTH",
"441 178 OFFCURVE",
"405 194 OFFCURVE",
"374 214 CURVE SMOOTH",
"275 277 LINE SMOOTH",
"251 292 OFFCURVE",
"224 305 OFFCURVE",
"195 305 CURVE SMOOTH",
"155 305 OFFCURVE",
"134 281 OFFCURVE",
"105 228 CURVE",
"83 240 LINE",
"112 298 OFFCURVE",
"148 347 OFFCURVE",
"207 347 CURVE SMOOTH",
"251 347 OFFCURVE",
"301 316 OFFCURVE"
);
}
);
width = 672;
}
);
unicode = 007E;
},
{
color = 1;
glyphname = braceleft;
lastChange = "2016-09-03 05:18:19 +0000";
layers = (
{
layerId = "21503E60-83E9-42CA-80F5-20ED7CD97021";
paths = (
{
closed = 1;
nodes = (
"303 -154 CURVE",
"303 -178 LINE",
"264 -178 OFFCURVE",
"211 -178 OFFCURVE",
"187 -172 CURVE SMOOTH",
"112 -152 OFFCURVE",
"120 -67 OFFCURVE",
"120 34 CURVE SMOOTH",
"120 103 OFFCURVE",
"120 208 OFFCURVE",
"95 236 CURVE SMOOTH",
"76 257 OFFCURVE",
"39 259 OFFCURVE",
"8 259 CURVE",
"8 285 LINE",
"47 285 OFFCURVE",
"71 286 OFFCURVE",
"93 305 CURVE SMOOTH",
"125 333 OFFCURVE",
"119 421 OFFCURVE",
"119 514 CURVE SMOOTH",
"119 729 OFFCURVE",
"143 730 OFFCURVE",
"303 730 CURVE",
"303 706 LINE",
"274 706 OFFCURVE",
"243 705 OFFCURVE",
"216 698 CURVE SMOOTH",
"166 685 OFFCURVE",
"170 584 OFFCURVE",
"170 518 CURVE SMOOTH",
"170 385 OFFCURVE",
"149 297 OFFCURVE",
"85 274 CURVE",
"85 273 LINE",
"177 241 OFFCURVE",
"170 121 OFFCURVE",
"170 30 CURVE SMOOTH",
"170 -152 OFFCURVE",
"206 -154 OFFCURVE"
);
}
);
width = 313;
}
);
unicode = 007B;
},
{
color = 1;
glyphname = braceright;
lastChange = "2016-09-03 05:18:19 +0000";
layers = (
{
layerId = "21503E60-83E9-42CA-80F5-20ED7CD97021";
paths = (
{
closed = 1;
nodes = (
"10 -175 CURVE",
"10 -151 LINE",
"37 -151 OFFCURVE",
"67 -151 OFFCURVE",
"90 -145 CURVE SMOOTH",
"146 -132 OFFCURVE",
"143 -34 OFFCURVE",
"143 33 CURVE SMOOTH",
"143 120 OFFCURVE",
"136 243 OFFCURVE",
"228 276 CURVE",
"228 277 LINE",
"191 290 OFFCURVE",
"159 330 OFFCURVE",
"150 398 CURVE SMOOTH",
"139 479 OFFCURVE",
"149 560 OFFCURVE",
"137 639 CURVE SMOOTH",
"122 713 OFFCURVE",
"72 709 OFFCURVE",
"10 709 CURVE",
"10 733 LINE",
"88 732 OFFCURVE",
"141 735 OFFCURVE",
"168 701 CURVE SMOOTH",
"200 661 OFFCURVE",
"194 631 OFFCURVE",
"194 517 CURVE SMOOTH",
"194 324 OFFCURVE",
"198 288 OFFCURVE",
"305 288 CURVE",
"305 262 LINE",
"287 263 OFFCURVE",
"268 261 OFFCURVE",
"251 257 CURVE SMOOTH",
"190 242 OFFCURVE",
"193 141 OFFCURVE",
"193 37 CURVE SMOOTH",
"193 -176 OFFCURVE",
"159 -175 OFFCURVE"
);
}
);
width = 313;
}
);
unicode = 007D;
},
{
color = 1;
glyphname = bar;
lastChange = "2016-09-03 05:18:18 +0000";
layers = (
{
layerId = "21503E60-83E9-42CA-80F5-20ED7CD97021";
paths = (
{
closed = 1;
nodes = (
"128 -159 LINE",
"88 -167 LINE",
"88 730 LINE",
"128 738 LINE"
);
}
);
width = 216;
}
);
unicode = 007C;
},
{
color = 1;
glyphname = backslash;
lastChange = "2016-09-03 05:18:18 +0000";
layers = (
{
layerId = "21503E60-83E9-42CA-80F5-20ED7CD97021";
paths = (
{
closed = 1;
nodes = (
"372 -192 LINE",
"-17 704 LINE",
"-12 715 LINE",
"19 722 LINE",
"407 -171 LINE",
"404 -184 LINE"
);
}
);
width = 390;
}
);
unicode = 005C;
},
{
color = 1;
glyphname = logicalnot;
lastChange = "2016-09-03 05:18:19 +0000";
layers = (
{
layerId = "21503E60-83E9-42CA-80F5-20ED7CD97021";
paths = (
{
closed = 1;
nodes = (
"660 409 LINE",
"660 206 LINE",
"620 206 LINE",
"620 369 LINE",
"57 369 LINE",
"57 409 LINE"
);
}
);
width = 777;
}
);
unicode = 00AC;
},
{
color = 1;
glyphname = section;
lastChange = "2016-09-03 05:18:19 +0000";
layers = (
{
layerId = "21503E60-83E9-42CA-80F5-20ED7CD97021";
paths = (
{
closed = 1;
nodes = (
"364 166 CURVE",
"367 170 LINE SMOOTH",
"380 188 OFFCURVE",
"385 210 OFFCURVE",
"385 232 CURVE SMOOTH",
"385 261 OFFCURVE",
"369 285 OFFCURVE",
"349 305 CURVE SMOOTH",
"298 358 OFFCURVE",
"154 386 OFFCURVE",
"113 442 CURVE",
"99 424 OFFCURVE",
"89 397 OFFCURVE",
"89 373 CURVE SMOOTH",
"89 265 OFFCURVE",
"300 232 OFFCURVE"
);
},
{
closed = 1;
nodes = (
"35 23 CURVE",
"105 50 LINE",
"113 45 LINE",
"115 -23 OFFCURVE",
"160 -81 OFFCURVE",
"231 -81 CURVE SMOOTH",
"293 -81 OFFCURVE",
"336 -21 OFFCURVE",
"336 48 CURVE SMOOTH",
"336 110 OFFCURVE",
"276 136 OFFCURVE",
"194 176 CURVE SMOOTH",
"108 214 OFFCURVE",
"50 252 OFFCURVE",
"50 338 CURVE SMOOTH",
"50 384 OFFCURVE",
"72 426 OFFCURVE",
"98 464 CURVE",
"92 484 OFFCURVE",
"88 504 OFFCURVE",
"88 525 CURVE SMOOTH",
"88 622 OFFCURVE",
"156 701 OFFCURVE",
"258 701 CURVE SMOOTH",
"307 701 OFFCURVE",
"376 683 OFFCURVE",
"376 622 CURVE SMOOTH",
"376 615 OFFCURVE",
"372 597 OFFCURVE",
"370 585 CURVE",
"311 564 LINE",
"296 575 LINE",
"296 635 OFFCURVE",
"272 671 OFFCURVE",
"228 671 CURVE SMOOTH",
"177 671 OFFCURVE",
"145 619 OFFCURVE",
"145 561 CURVE SMOOTH",
"145 487 OFFCURVE",
"205 474 OFFCURVE",
"280 431 CURVE SMOOTH",
"343 395 OFFCURVE",
"430 371 OFFCURVE",
"430 285 CURVE SMOOTH",
"430 234 OFFCURVE",
"411 186 OFFCURVE",
"378 149 CURVE",
"391 128 OFFCURVE",
"396 101 OFFCURVE",
"396 75 CURVE SMOOTH",
"396 -24 OFFCURVE",
"315 -107 OFFCURVE",
"216 -107 CURVE SMOOTH",
"135 -107 OFFCURVE",
"44 -76 OFFCURVE"
);
}
);
width = 465;
}
);
unicode = 00A7;
},
{
color = 1;
glyphname = hyphen;
lastChange = "2016-09-03 05:18:18 +0000";
layers = (
{
layerId = "21503E60-83E9-42CA-80F5-20ED7CD97021";
paths = (
{
closed = 1;
nodes = (
"291 236 LINE",
"55 236 LINE",
"62 276 LINE",
"297 276 LINE"
);
}
);
width = 353;
}
);
unicode = 002D;
},
{
color = 1;
glyphname = dollar;
lastChange = "2016-09-03 05:18:19 +0000";
layers = (
{
layerId = "21503E60-83E9-42CA-80F5-20ED7CD97021";
paths = (
{
closed = 1;
nodes = (
"268 -99 LINE",
"228 -107 LINE",
"228 790 LINE",
"268 798 LINE"
);
},
{
closed = 1;
nodes = (
"439 593 CURVE",
"379 540 LINE",
"366 543 LINE",
"350 606 OFFCURVE",
"316 649 OFFCURVE",
"251 649 CURVE SMOOTH",
"190 649 OFFCURVE",
"145 599 OFFCURVE",
"145 537 CURVE SMOOTH",
"145 463 OFFCURVE",
"216 419 OFFCURVE",
"290 387 CURVE SMOOTH",
"390 343 OFFCURVE",
"442 292 OFFCURVE",
"442 216 CURVE SMOOTH",
"442 91 OFFCURVE",
"303 3 OFFCURVE",
"182 3 CURVE SMOOTH",
"116 3 OFFCURVE",
"52 31 OFFCURVE",
"25 100 CURVE",
"80 163 LINE",
"96 162 LINE",
"116 96 OFFCURVE",
"155 47 OFFCURVE",
"222 47 CURVE SMOOTH",
"296 47 OFFCURVE",
"358 106 OFFCURVE",
"358 186 CURVE SMOOTH",
"358 239 OFFCURVE",
"300 290 OFFCURVE",
"243 315 CURVE SMOOTH",
"128 364 OFFCURVE",
"69 411 OFFCURVE",
"69 504 CURVE SMOOTH",
"69 623 OFFCURVE",
"167 684 OFFCURVE",
"271 684 CURVE SMOOTH",
"340 684 OFFCURVE",
"397 672 OFFCURVE"
);
}
);
width = 476;
}
);
unicode = 0024;
},
{
color = 1;
glyphname = percent;
lastChange = "2016-09-03 05:18:19 +0000";
layers = (
{
layerId = "21503E60-83E9-42CA-80F5-20ED7CD97021";
paths = (
{
closed = 1;
nodes = (
"624 342 CURVE",
"700 322 OFFCURVE",
"773 255 OFFCURVE",
"773 179 CURVE SMOOTH",
"773 89 OFFCURVE",
"679 -12 OFFCURVE",
"588 -12 CURVE SMOOTH",
"500 -12 OFFCURVE",
"456 65 OFFCURVE",
"456 136 CURVE SMOOTH",
"456 228 OFFCURVE",
"539 299 OFFCURVE"
);
},
{
closed = 1;
nodes = (
"574 290 CURVE",
"529 264 OFFCURVE",
"515 216 OFFCURVE",
"515 171 CURVE SMOOTH",
"515 108 OFFCURVE",
"556 34 OFFCURVE",
"630 34 CURVE SMOOTH",
"702 34 OFFCURVE",
"716 95 OFFCURVE",
"716 145 CURVE SMOOTH",
"716 217 OFFCURVE",
"659 284 OFFCURVE"
);
},
{
closed = 1;
nodes = (
"228 795 CURVE",
"304 775 OFFCURVE",
"377 708 OFFCURVE",
"377 632 CURVE SMOOTH",
"377 542 OFFCURVE",
"283 441 OFFCURVE",
"192 441 CURVE SMOOTH",
"104 441 OFFCURVE",
"60 518 OFFCURVE",
"60 589 CURVE SMOOTH",
"60 681 OFFCURVE",
"143 752 OFFCURVE"
);
},
{
closed = 1;
nodes = (
"178 743 CURVE",
"133 717 OFFCURVE",
"119 669 OFFCURVE",
"119 624 CURVE SMOOTH",
"119 561 OFFCURVE",
"160 487 OFFCURVE",
"234 487 CURVE SMOOTH",
"306 487 OFFCURVE",
"320 548 OFFCURVE",
"320 598 CURVE SMOOTH",
"320 670 OFFCURVE",
"263 737 OFFCURVE"
);
},
{
closed = 1;
nodes = (
"723 766 LINE",
"724 753 LINE",
"103 -1 LINE",
"75 17 LINE",
"76 31 LINE",
"692 777 LINE",
"703 777 LINE"
);
}
);
width = 827;
}
);
unicode = 0025;
},
{
color = 1;
glyphname = numbersign;
lastChange = "2016-09-03 05:18:19 +0000";
layers = (
{
layerId = "21503E60-83E9-42CA-80F5-20ED7CD97021";
paths = (
{
closed = 1;
nodes = (
"598 705 LINE",
"605 695 LINE",
"413 6 LINE",
"380 9 LINE",
"376 23 LINE",
"565 704 LINE",
"576 707 LINE"
);
},
{
closed = 1;
nodes = (
"71 499 LINE",
"79 509 LINE",
"702 509 LINE",
"708 476 LINE",
"696 468 LINE",
"81 468 LINE",
"75 478 LINE"
);
},
{
closed = 1;
nodes = (
"6 249 LINE",
"14 259 LINE",
"642 259 LINE",
"648 226 LINE",
"636 218 LINE",
"16 218 LINE",
"10 228 LINE"
);
},
{
closed = 1;
nodes = (
"349 705 LINE",
"356 695 LINE",
"164 6 LINE",
"131 9 LINE",
"127 23 LINE",
"316 704 LINE",
"327 707 LINE"
);
}
);
width = 715;
}
);
unicode = 0023;
},
{
color = 0;
glyphname = underscore;
lastChange = "2016-09-03 05:26:35 +0000";
layers = (
{
layerId = "21503E60-83E9-42CA-80F5-20ED7CD97021";
paths = (
{
closed = 1;
nodes = (
"756 -114 LINE",
"0 -114 LINE",
"0 -74 LINE",
"756 -74 LINE"
);
}
);
width = 756;
}
);
unicode = 005F;
},
{
color = 1;
glyphname = at;
lastChange = "2016-09-03 05:18:18 +0000";
layers = (
{
layerId = "21503E60-83E9-42CA-80F5-20ED7CD97021";
paths = (
{
closed = 1;
nodes = (
"455 138 CURVE",
"455 299 LINE SMOOTH",
"455 317 OFFCURVE",
"455 336 OFFCURVE",
"442 348 CURVE SMOOTH",
"428 361 OFFCURVE",
"409 371 OFFCURVE",
"389 371 CURVE SMOOTH",
"360 371 OFFCURVE",
"334 362 OFFCURVE",
"313 344 CURVE SMOOTH",
"295 329 OFFCURVE",
"271 291 OFFCURVE",
"270 220 CURVE SMOOTH",
"269 191 OFFCURVE",
"275 160 OFFCURVE",
"293 136 CURVE SMOOTH",
"310 113 OFFCURVE",
"342 107 OFFCURVE",
"371 107 CURVE SMOOTH",
"403 107 OFFCURVE",
"432 123 OFFCURVE"
);
},
{
closed = 1;
nodes = (
"472 371 CURVE",
"514 393 LINE",
"518 389 LINE",
"514 337 OFFCURVE",
"514 285 OFFCURVE",
"514 233 CURVE SMOOTH",
"514 206 OFFCURVE",
"515 178 OFFCURVE",
"515 151 CURVE SMOOTH",
"515 134 OFFCURVE",
"517 105 OFFCURVE",
"544 105 CURVE SMOOTH",
"607 105 OFFCURVE",
"630 195 OFFCURVE",
"634 249 CURVE SMOOTH",
"647 427 OFFCURVE",
"484 541 OFFCURVE",
"316 509 CURVE SMOOTH",
"263 499 OFFCURVE",
"213 474 OFFCURVE",
"171 439 CURVE",
"80 330 OFFCURVE",
"74 141 OFFCURVE",
"172 36 CURVE",
"214 -3 OFFCURVE",
"272 -31 OFFCURVE",
"339 -36 CURVE",
"353 -51 LINE",
"310 -93 LINE",
"205 -85 OFFCURVE",
"122 -17 OFFCURVE",
"78 59 CURVE SMOOTH",
"21 157 OFFCURVE",
"30 279 OFFCURVE",
"86 371 CURVE SMOOTH",
"138 457 OFFCURVE",
"236 544 OFFCURVE",
"345 565 CURVE SMOOTH",
"520 599 OFFCURVE",
"705 462 OFFCURVE",
"691 277 CURVE SMOOTH",
"686 214 OFFCURVE",
"659 161 OFFCURVE",
"620 122 CURVE",
"596 95 OFFCURVE",
"535 61 OFFCURVE",
"501 61 CURVE SMOOTH",
"472 61 OFFCURVE",
"461 78 OFFCURVE",
"457 102 CURVE",
"445 105 LINE",
"406 83 OFFCURVE",
"362 61 OFFCURVE",
"316 61 CURVE SMOOTH",
"228 61 OFFCURVE",
"199 135 OFFCURVE",
"199 199 CURVE SMOOTH",
"199 298 OFFCURVE",
"255 395 OFFCURVE",
"387 395 CURVE SMOOTH",
"412 395 OFFCURVE",
"447 387 OFFCURVE"
);
}
);
width = 728;
}
);
unicode = 0040;
},
{
color = 1;
glyphname = periodcentered;
lastChange = "2016-09-03 05:18:19 +0000";
layers = (
{
layerId = "21503E60-83E9-42CA-80F5-20ED7CD97021";
paths = (
{
closed = 1;
nodes = (
"69 257 CURVE SMOOTH",
"69 294 OFFCURVE",
"99 324 OFFCURVE",
"136 324 CURVE SMOOTH",
"173 324 OFFCURVE",
"203 294 OFFCURVE",
"203 257 CURVE SMOOTH",
"203 220 OFFCURVE",
"173 190 OFFCURVE",
"136 190 CURVE SMOOTH",
"99 190 OFFCURVE",
"69 220 OFFCURVE"
);
}
);
width = 272;
}
);
unicode = 00B7;
},
{
color = 1;
glyphname = exclamdown;
lastChange = "2016-09-03 05:18:19 +0000";
layers = (
{
layerId = "21503E60-83E9-42CA-80F5-20ED7CD97021";
paths = (
{
closed = 1;
nodes = (
"54 442 CURVE SMOOTH",
"54 411 OFFCURVE",
"80 385 OFFCURVE",
"112 385 CURVE SMOOTH",
"143 385 OFFCURVE",
"168 411 OFFCURVE",
"168 442 CURVE SMOOTH",
"168 473 OFFCURVE",
"143 499 OFFCURVE",
"112 499 CURVE SMOOTH",
"80 499 OFFCURVE",
"54 473 OFFCURVE"
);
},
{
closed = 1;
nodes = (
"96 304 LINE",
"69 -79 LINE SMOOTH",
"68 -98 OFFCURVE",
"65 -120 OFFCURVE",
"66 -137 CURVE",
"66 -188 OFFCURVE",
"84 -202 OFFCURVE",
"116 -202 CURVE SMOOTH",
"146 -202 OFFCURVE",
"153 -176 OFFCURVE",
"153 -156 CURVE SMOOTH",
"153 -127 OFFCURVE",
"151 -98 OFFCURVE",
"148 -69 CURVE SMOOTH",
"112 302 LINE"
);
}
);
width = 216;
}
);
unicode = 00A1;
},
{
color = 1;
glyphname = sterling;
lastChange = "2016-09-03 05:18:19 +0000";
layers = (
{
layerId = "21503E60-83E9-42CA-80F5-20ED7CD97021";
paths = (
{
closed = 1;
nodes = (
"230 352 CURVE",
"225 317 LINE",
"182 315 OFFCURVE",
"139 314 OFFCURVE",
"96 313 CURVE",
"104 358 LINE",
"154 357 OFFCURVE",
"183 355 OFFCURVE"
);
},
{
closed = 1;
nodes = (
"276 354 LINE",
"458 360 LINE",
"454 312 LINE",
"358 315 OFFCURVE",
"324 316 OFFCURVE",
"256 317 CURVE"
);
},
{
closed = 1;
nodes = (
"301 134 CURVE",
"355 97 OFFCURVE",
"441 72 OFFCURVE",
"485 72 CURVE SMOOTH",
"548 72 OFFCURVE",
"584 133 OFFCURVE",
"584 200 CURVE SMOOTH",
"584 217 OFFCURVE",
"582 241 OFFCURVE",
"580 255 CURVE",
"604 260 LINE",
"608 243 OFFCURVE",
"609 213 OFFCURVE",
"609 202 CURVE SMOOTH",
"609 146 OFFCURVE",
"604 89 OFFCURVE",
"565 48 CURVE SMOOTH",
"536 18 OFFCURVE",
"511 -7 OFFCURVE",
"468 -7 CURVE SMOOTH",
"387 -7 OFFCURVE",
"328 22 OFFCURVE",
"292 51 CURVE",
"226 94 OFFCURVE",
"174 115 OFFCURVE",
"148 115 CURVE SMOOTH",
"81 115 OFFCURVE",
"57 40 OFFCURVE",
"42 -6 CURVE",
"22 11 LINE",
"25 44 OFFCURVE",
"37 77 OFFCURVE",
"60 116 CURVE SMOOTH",
"82 153 OFFCURVE",
"123 168 OFFCURVE",
"154 199 CURVE SMOOTH",
"186 230 OFFCURVE",
"209 333 OFFCURVE",
"218 403 CURVE SMOOTH",
"240 576 OFFCURVE",
"318 685 OFFCURVE",
"460 685 CURVE SMOOTH",
"511 685 OFFCURVE",
"561 662 OFFCURVE",
"561 607 CURVE SMOOTH",
"561 547 OFFCURVE",
"515 546 OFFCURVE",
"515 546 CURVE",
"492 546 OFFCURVE",
"479 553 OFFCURVE",
"479 590 CURVE SMOOTH",
"479 622 OFFCURVE",
"451 651 OFFCURVE",
"416 651 CURVE SMOOTH",
"294 651 OFFCURVE",
"315 442 OFFCURVE",
"265 303 CURVE",
"248 242 OFFCURVE",
"199 192 OFFCURVE",
"168 176 CURVE",
"171 170 LINE",
"251 170 OFFCURVE",
"301 134 OFFCURVE"
);
}
);
width = 649;
}
);
unicode = 00A3;
},
{
color = 1;
glyphname = questiondown;
lastChange = "2016-09-03 05:18:19 +0000";
layers = (
{
layerId = "21503E60-83E9-42CA-80F5-20ED7CD97021";
paths = (
{
closed = 1;
nodes = (
"271 442 CURVE SMOOTH",
"271 411 OFFCURVE",
"246 385 OFFCURVE",
"215 385 CURVE SMOOTH",
"183 385 OFFCURVE",
"157 411 OFFCURVE",
"157 442 CURVE SMOOTH",
"157 473 OFFCURVE",
"183 499 OFFCURVE",
"215 499 CURVE SMOOTH",
"246 499 OFFCURVE",
"271 473 OFFCURVE"
);
},
{
closed = 1;
nodes = (
"191 277 LINE",
"237 309 LINE",
"260 295 OFFCURVE",
"279 268 OFFCURVE",
"279 238 CURVE SMOOTH",
"279 218 OFFCURVE",
"266 199 OFFCURVE",
"253 183 CURVE SMOOTH",
"189 100 OFFCURVE",
"90 56 OFFCURVE",
"90 -57 CURVE SMOOTH",
"90 -111 OFFCURVE",
"138 -173 OFFCURVE",
"188 -173 CURVE SMOOTH",
"227 -173 OFFCURVE",
"269 -146 OFFCURVE",
"269 -101 CURVE SMOOTH",
"269 -77 OFFCURVE",
"256 -55 OFFCURVE",
"237 -40 CURVE",
"304 0 LINE",
"322 -16 OFFCURVE",
"332 -43 OFFCURVE",
"332 -69 CURVE SMOOTH",
"332 -152 OFFCURVE",
"227 -205 OFFCURVE",
"148 -205 CURVE SMOOTH",
"72 -205 OFFCURVE",
"19 -154 OFFCURVE",
"19 -77 CURVE SMOOTH",
"19 -44 OFFCURVE",
"32 -17 OFFCURVE",
"49 12 CURVE SMOOTH",
"96 91 OFFCURVE",
"218 152 OFFCURVE",
"218 214 CURVE SMOOTH",
"218 234 OFFCURVE",
"207 254 OFFCURVE",
"191 266 CURVE"
);
}
);
width = 353;
}
);
unicode = 00BF;
},
{
color = 1;
glyphname = yen;
lastChange = "2016-09-03 05:18:18 +0000";
layers = (
{
layerId = "21503E60-83E9-42CA-80F5-20ED7CD97021";
paths = (
{
closed = 1;
nodes = (
"267 329 LINE",
"92 329 LINE",
"99 369 LINE",
"248 369 LINE"
);
},
{
closed = 1;
nodes = (
"359 369 LINE",
"512 369 LINE",
"506 329 LINE",
"332 329 LINE"
);
},
{
closed = 1;
nodes = (
"508 197 LINE",
"94 197 LINE",
"101 237 LINE",
"514 237 LINE"
);
},
{
closed = 1;
nodes = (
"250 299 CURVE",
"101 594 LINE SMOOTH",
"78 639 OFFCURVE",
"55 645 OFFCURVE",
"15 651 CURVE",
"15 679 LINE",
"22 686 LINE",
"167 686 LINE",
"308 361 LINE",
"309 359 OFFCURVE",
"314 353 OFFCURVE",
"320 353 CURVE SMOOTH",
"325 353 OFFCURVE",
"360 406 OFFCURVE",
"390 460 CURVE SMOOTH",
"398 474 OFFCURVE",
"482 619 OFFCURVE",
"518 676 CURVE",
"603 693 LINE",
"607 675 LINE",
"496 530 OFFCURVE",
"422 434 OFFCURVE",
"339 306 CURVE",
"348 18 LINE",
"258 -11 LINE",
"247 -2 LINE",
"250 98 OFFCURVE",
"250 199 OFFCURVE"
);
}
);
width = 623;
}
);
unicode = 00A5;
},
{
color = 1;
glyphname = brokenbar;
lastChange = "2016-09-03 05:18:18 +0000";
layers = (
{
layerId = "21503E60-83E9-42CA-80F5-20ED7CD97021";
paths = (
{
closed = 1;
nodes = (
"124 335 LINE",
"84 327 LINE",
"84 730 LINE",
"124 738 LINE"
);
},
{
closed = 1;
nodes = (
"124 -159 LINE",
"84 -167 LINE",
"84 236 LINE",
"124 244 LINE"
);
}
);
width = 208;
}
);
unicode = 00A6;
},
{
color = 1;
glyphname = cent;
lastChange = "2016-09-03 05:18:19 +0000";
layers = (
{
layerId = "21503E60-83E9-42CA-80F5-20ED7CD97021";
paths = (
{
closed = 1;
nodes = (
"263 -159 LINE",
"223 -167 LINE",
"223 634 LINE",
"263 642 LINE"
);
},
{
closed = 1;
nodes = (
"427 114 LINE",
"438 96 LINE",
"376 35 OFFCURVE",
"303 -19 OFFCURVE",
"214 -19 CURVE SMOOTH",
"51 -19 OFFCURVE",
"41 118 OFFCURVE",
"41 217 CURVE SMOOTH",
"41 367 OFFCURVE",
"146 475 OFFCURVE",
"294 475 CURVE SMOOTH",
"359 475 OFFCURVE",
"404 434 OFFCURVE",
"410 377 CURVE",
"356 324 LINE",
"339 330 LINE",
"330 397 OFFCURVE",
"297 436 OFFCURVE",
"254 436 CURVE SMOOTH",
"169 436 OFFCURVE",
"124 336 OFFCURVE",
"124 248 CURVE SMOOTH",
"124 162 OFFCURVE",
"148 47 OFFCURVE",
"265 47 CURVE SMOOTH",
"324 47 OFFCURVE",
"374 78 OFFCURVE",
"418 116 CURVE"
);
}
);
width = 461;
}
);
unicode = 00A2;
},
{
color = 1;
glyphname = plusminus;
lastChange = "2016-09-03 05:18:19 +0000";
layers = (
{
layerId = "21503E60-83E9-42CA-80F5-20ED7CD97021";
paths = (
{
closed = 1;
nodes = (
"399 276 LINE",
"712 276 LINE",
"707 236 LINE",
"399 236 LINE",
"399 -67 LINE",
"359 -74 LINE",
"359 236 LINE",
"49 236 LINE",
"56 276 LINE",
"359 276 LINE",
"359 580 LINE",
"399 586 LINE"
);
},
{
closed = 1;
nodes = (
"707 -75 LINE",
"49 -75 LINE",
"56 -35 LINE",
"713 -35 LINE"
);
}
);
width = 763;
}
);
unicode = 00B1;
},
{
color = 1;
glyphname = guillemotright;
lastChange = "2016-09-03 05:18:18 +0000";
layers = (
{
layerId = "21503E60-83E9-42CA-80F5-20ED7CD97021";
paths = (
{
closed = 1;
nodes = (
"252 238 LINE",
"60 426 LINE",
"29 380 LINE",
"178 234 LINE",
"28 64 LINE",
"42 36 LINE"
);
},
{
closed = 1;
nodes = (
"404 238 LINE",
"212 426 LINE",
"181 380 LINE",
"330 234 LINE",
"180 64 LINE",
"194 36 LINE"
);
}
);
width = 416;
}
);
unicode = 00BB;
},
{
color = 1;
glyphname = guillemotleft;
lastChange = "2016-09-03 05:18:18 +0000";
layers = (
{
layerId = "21503E60-83E9-42CA-80F5-20ED7CD97021";
paths = (
{
closed = 1;
nodes = (
"164 238 LINE",
"356 426 LINE",
"387 380 LINE",
"238 234 LINE",
"388 64 LINE",
"374 36 LINE"
);
},
{
closed = 1;
nodes = (
"12 238 LINE",
"204 426 LINE",
"235 380 LINE",
"86 234 LINE",
"236 64 LINE",
"222 36 LINE"
);
}
);
width = 416;
}
);
unicode = 00AB;
},
{
color = 1;
glyphname = ordfeminine;
lastChange = "2016-09-03 05:18:18 +0000";
layers = (
{
layerId = "21503E60-83E9-42CA-80F5-20ED7CD97021";
paths = (
{
closed = 1;
nodes = (
"269 550 CURVE",
"308 570 LINE",
"312 567 LINE",
"309 519 OFFCURVE",
"307 470 OFFCURVE",
"307 422 CURVE SMOOTH",
"307 397 OFFCURVE",
"309 371 OFFCURVE",
"309 346 CURVE SMOOTH",
"309 330 OFFCURVE",
"311 304 OFFCURVE",
"336 304 CURVE SMOOTH",
"346 304 OFFCURVE",
"368 311 OFFCURVE",
"384 316 CURVE",
"389 300 LINE",
"360 284 OFFCURVE",
"319 262 OFFCURVE",
"296 262 CURVE SMOOTH",
"269 262 OFFCURVE",
"259 279 OFFCURVE",
"255 301 CURVE",
"244 303 LINE",
"208 282 OFFCURVE",
"167 262 OFFCURVE",
"124 262 CURVE SMOOTH",
"43 262 OFFCURVE",
"15 332 OFFCURVE",
"15 391 CURVE SMOOTH",
"15 483 OFFCURVE",
"67 573 OFFCURVE",
"190 573 CURVE SMOOTH",
"213 573 OFFCURVE",
"246 565 OFFCURVE"
);
},
{
closed = 1;
nodes = (
"253 334 CURVE",
"253 484 LINE SMOOTH",
"253 501 OFFCURVE",
"253 518 OFFCURVE",
"241 529 CURVE SMOOTH",
"228 541 OFFCURVE",
"210 550 OFFCURVE",
"192 550 CURVE SMOOTH",
"165 550 OFFCURVE",
"141 541 OFFCURVE",
"121 525 CURVE SMOOTH",
"104 511 OFFCURVE",
"83 476 OFFCURVE",
"82 410 CURVE SMOOTH",
"81 383 OFFCURVE",
"86 355 OFFCURVE",
"103 332 CURVE SMOOTH",
"119 311 OFFCURVE",
"148 305 OFFCURVE",
"175 305 CURVE SMOOTH",
"204 305 OFFCURVE",
"232 320 OFFCURVE"
);
}
);
width = 366;
}
);
unicode = 00AA;
},
{
color = 1;
glyphname = ordmasculine;
lastChange = "2016-09-03 05:18:18 +0000";
layers = (
{
layerId = "21503E60-83E9-42CA-80F5-20ED7CD97021";
paths = (
{
closed = 1;
nodes = (
"85 475 CURVE SMOOTH",
"81 459 OFFCURVE",
"79 442 OFFCURVE",
"79 425 CURVE SMOOTH",
"79 370 OFFCURVE",
"98 288 OFFCURVE",
"179 288 CURVE SMOOTH",
"258 288 OFFCURVE",
"275 359 OFFCURVE",
"275 413 CURVE SMOOTH",
"275 466 OFFCURVE",
"261 547 OFFCURVE",
"178 547 CURVE SMOOTH",
"139 547 OFFCURVE",
"98 522 OFFCURVE"
);
},
{
closed = 1;
nodes = (
"159 261 CURVE SMOOTH",
"59 261 OFFCURVE",
"22 326 OFFCURVE",
"16 397 CURVE",
"16 442 OFFCURVE",
"21 490 OFFCURVE",
"56 524 CURVE SMOOTH",
"91 558 OFFCURVE",
"144 572 OFFCURVE",
"195 572 CURVE SMOOTH",
"229 572 OFFCURVE",
"264 567 OFFCURVE",
"290 546 CURVE SMOOTH",
"327 516 OFFCURVE",
"340 468 OFFCURVE",
"340 425 CURVE SMOOTH",
"340 383 OFFCURVE",
"330 340 OFFCURVE",
"298 308 CURVE SMOOTH",
"263 274 OFFCURVE",
"210 261 OFFCURVE"
);
}
);
width = 356;
}
);
unicode = 00BA;
},
{
color = 1;
glyphname = uni00B2;
lastChange = "2016-09-03 05:18:19 +0000";
layers = (
{
layerId = "21503E60-83E9-42CA-80F5-20ED7CD97021";
paths = (
{
closed = 1;
nodes = (
"312 322 LINE",
"295 271 LINE",
"-26 271 LINE",
"-26 282 LINE",
"16 320 OFFCURVE",
"57 358 OFFCURVE",
"96 398 CURVE SMOOTH",
"153 457 OFFCURVE",
"210 522 OFFCURVE",
"210 600 CURVE SMOOTH",
"210 636 OFFCURVE",
"188 686 OFFCURVE",
"128 686 CURVE SMOOTH",
"88 686 OFFCURVE",
"54 665 OFFCURVE",
"26 644 CURVE",
"12 657 LINE",
"52 696 OFFCURVE",
"106 730 OFFCURVE",
"167 730 CURVE SMOOTH",
"230 730 OFFCURVE",
"278 687 OFFCURVE",
"278 629 CURVE SMOOTH",
"278 538 OFFCURVE",
"161 424 OFFCURVE",
"73 334 CURVE SMOOTH",
"72 333 OFFCURVE",
"72 333 OFFCURVE",
"72 332 CURVE SMOOTH",
"72 328 OFFCURVE",
"76 327 OFFCURVE",
"81 327 CURVE SMOOTH",
"308 327 LINE"
);
}
);
width = 304;
}
);
unicode = 00B2;
},
{
color = 1;
glyphname = uni00B3;
lastChange = "2016-09-03 05:18:19 +0000";
layers = (
{
layerId = "21503E60-83E9-42CA-80F5-20ED7CD97021";
paths = (
{
closed = 1;
nodes = (
"144 518 CURVE",
"144 513 LINE",
"234 506 OFFCURVE",
"295 477 OFFCURVE",
"295 410 CURVE SMOOTH",
"295 320 OFFCURVE",
"196 259 OFFCURVE",
"100 259 CURVE SMOOTH",
"58 259 OFFCURVE",
"18 272 OFFCURVE",
"-15 295 CURVE",
"-20 302 LINE",
"11 349 LINE",
"19 349 LINE",
"43 315 OFFCURVE",
"75 285 OFFCURVE",
"119 285 CURVE SMOOTH",
"184 285 OFFCURVE",
"226 334 OFFCURVE",
"226 391 CURVE SMOOTH",
"226 419 OFFCURVE",
"210 445 OFFCURVE",
"189 465 CURVE SMOOTH",
"160 492 OFFCURVE",
"103 494 OFFCURVE",
"59 494 CURVE",
"59 511 LINE",
"147 529 OFFCURVE",
"200 562 OFFCURVE",
"200 621 CURVE SMOOTH",
"200 661 OFFCURVE",
"165 685 OFFCURVE",
"120 685 CURVE SMOOTH",
"91 685 OFFCURVE",
"58 667 OFFCURVE",
"30 651 CURVE",
"20 665 LINE",
"58 694 OFFCURVE",
"107 726 OFFCURVE",
"153 726 CURVE SMOOTH",
"210 726 OFFCURVE",
"260 697 OFFCURVE",
"260 639 CURVE SMOOTH",
"260 577 OFFCURVE",
"208 534 OFFCURVE"
);
}
);
width = 299;
}
);
unicode = 00B3;
},
{
color = 1;
glyphname = registered;
lastChange = "2016-09-03 05:18:18 +0000";
layers = (
{
layerId = "21503E60-83E9-42CA-80F5-20ED7CD97021";
paths = (
{
closed = 1;
nodes = (
"45 437 CURVE SMOOTH",
"45 587 OFFCURVE",
"166 708 OFFCURVE",
"316 708 CURVE SMOOTH",
"466 708 OFFCURVE",
"587 587 OFFCURVE",
"587 437 CURVE SMOOTH",
"587 287 OFFCURVE",
"466 166 OFFCURVE",
"316 166 CURVE SMOOTH",
"166 166 OFFCURVE",
"45 287 OFFCURVE"
);
},
{
closed = 1;
nodes = (
"70 437 CURVE SMOOTH",
"70 301 OFFCURVE",
"180 191 OFFCURVE",
"316 191 CURVE SMOOTH",
"452 191 OFFCURVE",
"562 301 OFFCURVE",
"562 437 CURVE SMOOTH",
"562 573 OFFCURVE",
"452 683 OFFCURVE",
"316 683 CURVE SMOOTH",
"180 683 OFFCURVE",
"70 573 OFFCURVE"
);
},
{
closed = 1;
nodes = (
"262 455 CURVE SMOOTH",
"262 452 OFFCURVE",
"264 448 OFFCURVE",
"268 448 CURVE SMOOTH",
"334 448 OFFCURVE",
"398 472 OFFCURVE",
"398 532 CURVE SMOOTH",
"398 582 OFFCURVE",
"341 590 OFFCURVE",
"297 590 CURVE SMOOTH",
"273 590 LINE SMOOTH",
"268 590 OFFCURVE",
"266 587 OFFCURVE",
"266 577 CURVE",
"264 545 OFFCURVE",
"262 457 OFFCURVE"
);
},
{
closed = 1;
nodes = (
"327 436 CURVE",
"326 432 LINE",
"484 284 LINE",
"484 279 LINE",
"424 266 LINE",
"368 326 OFFCURVE",
"293 408 OFFCURVE",
"275 422 CURVE",
"271 424 OFFCURVE",
"267 426 OFFCURVE",
"263 426 CURVE",
"263 378 OFFCURVE",
"263 330 OFFCURVE",
"266 282 CURVE",
"216 267 LINE",
"210 272 LINE",
"215 344 OFFCURVE",
"215 418 OFFCURVE",
"215 490 CURVE SMOOTH",
"215 498 OFFCURVE",
"213 548 OFFCURVE",
"213 576 CURVE SMOOTH",
"213 592 OFFCURVE",
"172 598 OFFCURVE",
"167 598 CURVE",
"168 606 LINE",
"172 610 LINE",
"334 610 LINE SMOOTH",
"404 610 OFFCURVE",
"456 588 OFFCURVE",
"456 540 CURVE SMOOTH",
"456 470 OFFCURVE",
"399 442 OFFCURVE"
);
}
);
width = 632;
}
);
unicode = 00AE;
},
{
color = 1;
glyphname = copyright;
lastChange = "2016-09-03 05:18:19 +0000";
layers = (
{
layerId = "21503E60-83E9-42CA-80F5-20ED7CD97021";
paths = (
{
closed = 1;
nodes = (
"45 437 CURVE SMOOTH",
"45 587 OFFCURVE",
"166 708 OFFCURVE",
"316 708 CURVE SMOOTH",
"466 708 OFFCURVE",
"587 587 OFFCURVE",
"587 437 CURVE SMOOTH",
"587 287 OFFCURVE",
"466 166 OFFCURVE",
"316 166 CURVE SMOOTH",
"166 166 OFFCURVE",
"45 287 OFFCURVE"
);
},
{
closed = 1;
nodes = (
"70 437 CURVE SMOOTH",
"70 301 OFFCURVE",
"180 191 OFFCURVE",
"316 191 CURVE SMOOTH",
"452 191 OFFCURVE",
"562 301 OFFCURVE",
"562 437 CURVE SMOOTH",
"562 573 OFFCURVE",
"452 683 OFFCURVE",
"316 683 CURVE SMOOTH",
"180 683 OFFCURVE",
"70 573 OFFCURVE"
);
},
{
closed = 1;
nodes = (
"449 534 LINE",
"441 534 LINE",
"421 579 OFFCURVE",
"382 599 OFFCURVE",
"333 599 CURVE SMOOTH",
"297 599 OFFCURVE",
"259 588 OFFCURVE",
"233 566 CURVE SMOOTH",
"197 535 OFFCURVE",
"186 486 OFFCURVE",
"186 442 CURVE SMOOTH",
"186 396 OFFCURVE",
"214 346 OFFCURVE",
"234 330 CURVE SMOOTH",
"267 302 OFFCURVE",
"293 288 OFFCURVE",
"342 288 CURVE SMOOTH",
"383 288 OFFCURVE",
"420 303 OFFCURVE",
"454 322 CURVE",
"464 308 LINE",
"421 284 OFFCURVE",
"373 262 OFFCURVE",
"321 262 CURVE SMOOTH",
"273 262 OFFCURVE",
"224 272 OFFCURVE",
"190 300 CURVE SMOOTH",
"148 335 OFFCURVE",
"132 384 OFFCURVE",
"132 433 CURVE SMOOTH",
"132 481 OFFCURVE",
"145 530 OFFCURVE",
"187 565 CURVE SMOOTH",
"231 601 OFFCURVE",
"291 619 OFFCURVE",
"354 619 CURVE SMOOTH",
"406 619 OFFCURVE",
"452 605 OFFCURVE",
"483 563 CURVE"
);
}
);
width = 632;
}
);
unicode = 00A9;
},
{
color = 1;
glyphname = uni00B9;
lastChange = "2016-09-03 05:18:19 +0000";
layers = (
{
layerId = "21503E60-83E9-42CA-80F5-20ED7CD97021";
paths = (
{
closed = 1;
nodes = (
"130 733 LINE",
"135 725 LINE",
"131 667 OFFCURVE",
"130 609 OFFCURVE",
"130 551 CURVE SMOOTH",
"130 463 OFFCURVE",
"130 333 OFFCURVE",
"132 284 CURVE",
"70 267 LINE",
"61 270 LINE",
"64 360 OFFCURVE",
"67 451 OFFCURVE",
"67 542 CURVE SMOOTH",
"67 615 OFFCURVE",
"79 668 OFFCURVE",
"33 668 CURVE SMOOTH",
"-28 668 LINE",
"-28 685 LINE"
);
}
);
width = 178;
}
);
unicode = 00B9;
},
{
color = 0;
glyphname = uni0302;
lastChange = "2016-09-03 05:04:24 +0000";
layers = (
{
anchors = (
{
name = _top;
position = "{0, 462}";
},
{
name = top;
position = "{0, 692}";
}
);
layerId = "21503E60-83E9-42CA-80F5-20ED7CD97021";
paths = (
{
closed = 1;
nodes = (
"6 692 LINE",
"163 532 LINE",
"124 506 LINE",
"3 630 LINE",
"-140 499 LINE",
"-163 511 LINE"
);
}
);
width = 0;
}
);
unicode = 0302;
},
{
color = 0;
glyphname = gravecomb;
lastChange = "2016-09-03 05:07:09 +0000";
layers = (
{
anchors = (
{
name = _top;
position = "{0, 462}";
},
{
name = top;
position = "{0, 701}";
}
);
layerId = "21503E60-83E9-42CA-80F5-20ED7CD97021";
paths = (
{
closed = 1;
nodes = (
"32 511 LINE",
"50 542 LINE",
"-70 699 LINE",
"-83 701 LINE",
"-130 665 LINE"
);
}
);
width = 0;
}
);
unicode = 0300;
},
{
color = 0;
glyphname = acutecomb;
lastChange = "2016-09-03 05:07:34 +0000";
layers = (
{
anchors = (
{
name = _top;
position = "{0, 462}";
},
{
name = top;
position = "{0, 700}";
}
);
layerId = "21503E60-83E9-42CA-80F5-20ED7CD97021";
paths = (
{
closed = 1;
nodes = (
"-47 510 LINE",
"-65 541 LINE",
"55 698 LINE",
"68 700 LINE",
"115 664 LINE"
);
}
);
width = 0;
}
);
unicode = 0301;
},
{
color = 0;
glyphname = uni0308;
lastChange = "2016-09-03 05:04:33 +0000";
layers = (
{
anchors = (
{
name = _top;
position = "{0, 462}";
},
{
name = top;
position = "{0, 653}";
}
);
layerId = "21503E60-83E9-42CA-80F5-20ED7CD97021";
paths = (
{
closed = 1;
nodes = (
"160 595 CURVE",
"158 562 OFFCURVE",
"132 539 OFFCURVE",
"100 539 CURVE SMOOTH",
"68 539 OFFCURVE",
"42 565 OFFCURVE",
"42 597 CURVE SMOOTH",
"42 631 OFFCURVE",
"77 653 OFFCURVE",
"106 653 CURVE SMOOTH",
"140 653 OFFCURVE",
"160 625 OFFCURVE"
);
},
{
closed = 1;
nodes = (
"-42 595 CURVE",
"-44 562 OFFCURVE",
"-70 539 OFFCURVE",
"-102 539 CURVE SMOOTH",
"-134 539 OFFCURVE",
"-160 565 OFFCURVE",
"-160 597 CURVE SMOOTH",
"-160 631 OFFCURVE",
"-125 653 OFFCURVE",
"-96 653 CURVE SMOOTH",
"-62 653 OFFCURVE",
"-42 625 OFFCURVE"
);
}
);
width = 0;
}
);
unicode = 0308;
},
{
color = 0;
glyphname = tildecomb;
lastChange = "2016-09-03 05:05:06 +0000";
layers = (
{
anchors = (
{
name = _top;
position = "{0, 462}";
},
{
name = top;
position = "{0, 642}";
}
);
layerId = "21503E60-83E9-42CA-80F5-20ED7CD97021";
paths = (
{
closed = 1;
nodes = (
"-2 620 CURVE SMOOTH",
"45 599 LINE SMOOTH",
"59 593 OFFCURVE",
"75 588 OFFCURVE",
"91 590 CURVE SMOOTH",
"115 593 OFFCURVE",
"123 606 OFFCURVE",
"132 629 CURVE",
"145 624 LINE",
"142 595 OFFCURVE",
"122 539 OFFCURVE",
"90 535 CURVE SMOOTH",
"68 532 OFFCURVE",
"46 538 OFFCURVE",
"26 547 CURVE SMOOTH",
"-37 577 LINE SMOOTH",
"-52 584 OFFCURVE",
"-70 588 OFFCURVE",
"-87 586 CURVE SMOOTH",
"-111 583 OFFCURVE",
"-121 571 OFFCURVE",
"-133 538 CURVE",
"-147 543 LINE",
"-139 578 OFFCURVE",
"-120 636 OFFCURVE",
"-85 641 CURVE SMOOTH",
"-59 645 OFFCURVE",
"-28 632 OFFCURVE"
);
}
);
width = 0;
}
);
unicode = 0303;
},
{
color = 0;
glyphname = uni0304;
lastChange = "2016-09-03 04:59:19 +0000";
layers = (
{
anchors = (
{
name = _top;
position = "{0, 462}";
},
{
name = top;
position = "{0, 595}";
}
);
layerId = "21503E60-83E9-42CA-80F5-20ED7CD97021";
paths = (
{
closed = 1;
nodes = (
"115 555 LINE",
"-121 555 LINE",
"-114 595 LINE",
"121 595 LINE"
);
}
);
width = 0;
}
);
unicode = 0304;
},
{
color = 0;
glyphname = uni030A;
lastChange = "2016-09-03 04:59:21 +0000";
layers = (
{
anchors = (
{
name = _top;
position = "{0, 462}";
},
{
name = top;
position = "{0, 672}";
}
);
layerId = "21503E60-83E9-42CA-80F5-20ED7CD97021";
paths = (
{
closed = 1;
nodes = (
"-97 575 CURVE SMOOTH",
"-97 629 OFFCURVE",
"-54 672 OFFCURVE",
"0 672 CURVE SMOOTH",
"54 672 OFFCURVE",
"97 629 OFFCURVE",
"97 575 CURVE SMOOTH",
"97 521 OFFCURVE",
"54 478 OFFCURVE",
"0 478 CURVE SMOOTH",
"-54 478 OFFCURVE",
"-97 521 OFFCURVE"
);
},
{
closed = 1;
nodes = (
"-67 575 CURVE SMOOTH",
"-67 538 OFFCURVE",
"-37 508 OFFCURVE",
"0 508 CURVE SMOOTH",
"37 508 OFFCURVE",
"67 538 OFFCURVE",
"67 575 CURVE SMOOTH",
"67 612 OFFCURVE",
"37 642 OFFCURVE",
"0 642 CURVE SMOOTH",
"-37 642 OFFCURVE",
"-67 612 OFFCURVE"
);
}
);
width = 0;
}
);
unicode = 030A;
},
{
color = 0;
glyphname = uni0327;
lastChange = "2016-09-03 04:59:23 +0000";
layers = (
{
anchors = (
{
name = _bottom;
position = "{0, 0}";
},
{
name = bottom;
position = "{0, -259}";
}
);
layerId = "21503E60-83E9-42CA-80F5-20ED7CD97021";
paths = (
{
closed = 1;
nodes = (
"-20 6 LINE",
"16 6 LINE",
"-4 -41 LINE",
"9 -46 OFFCURVE",
"49 -64 OFFCURVE",
"68 -87 CURVE SMOOTH",
"91 -115 OFFCURVE",
"100 -151 OFFCURVE",
"74 -187 CURVE SMOOTH",
"41 -231 OFFCURVE",
"-29 -249 OFFCURVE",
"-84 -259 CURVE",
"-90 -244 LINE",
"-85 -234 LINE",
"-59 -224 OFFCURVE",
"-27 -210 OFFCURVE",
"-13 -192 CURVE SMOOTH",
"15 -154 OFFCURVE",
"-35 -123 OFFCURVE",
"-72 -112 CURVE"
);
}
);
width = 0;
}
);
unicode = 0327;
},
{
color = 1;
glyphname = divide;
lastChange = "2016-09-03 05:21:58 +0000";
layers = (
{
components = (
{
name = minus;
transform = "{1, 0, 0, 1, -34, 0}";
}
);
layerId = "21503E60-83E9-42CA-80F5-20ED7CD97021";
paths = (
{
closed = 1;
nodes = (
"471 -2 CURVE",
"469 -35 OFFCURVE",
"443 -58 OFFCURVE",
"411 -58 CURVE SMOOTH",
"379 -58 OFFCURVE",
"353 -32 OFFCURVE",
"353 0 CURVE SMOOTH",
"353 34 OFFCURVE",
"388 56 OFFCURVE",
"417 56 CURVE SMOOTH",
"451 56 OFFCURVE",
"471 28 OFFCURVE"
);
},
{
closed = 1;
nodes = (
"471 514 CURVE",
"469 481 OFFCURVE",
"443 458 OFFCURVE",
"411 458 CURVE SMOOTH",
"379 458 OFFCURVE",
"353 484 OFFCURVE",
"353 516 CURVE SMOOTH",
"353 550 OFFCURVE",
"388 572 OFFCURVE",
"417 572 CURVE SMOOTH",
"451 572 OFFCURVE",
"471 544 OFFCURVE"
);
}
);
width = 824;
}
);
unicode = 00F7;
},
{
color = 1;
glyphname = multiply;
lastChange = "2016-09-03 05:20:22 +0000";
layers = (
{
layerId = "21503E60-83E9-42CA-80F5-20ED7CD97021";
paths = (
{
closed = 1;
nodes = (
"301 283 LINE",
"522 504 LINE",
"547 472 LINE",
"329 255 LINE",
"543 40 LINE",
"520 7 LINE",
"301 226 LINE",
"81 7 LINE",
"58 40 LINE",
"272 255 LINE",
"57 470 LINE",
"81 502 LINE"
);
}
);
width = 603;
}
);
unicode = 00D7;
},
{
color = 0;
glyphname = onequarter;
lastChange = "2016-09-03 05:26:24 +0000";
layers = (
{
components = (
{
name = fraction;
transform = "{1, 0, 0, 1, 348, 0}";
}
);
layerId = "21503E60-83E9-42CA-80F5-20ED7CD97021";
paths = (
{
closed = 1;
nodes = (
"668 420 LINE",
"674 417 LINE",
"673 401 OFFCURVE",
"672 237 OFFCURVE",
"672 144 CURVE",
"678 139 LINE",
"746 139 LINE",
"749 135 LINE",
"737 112 LINE",
"678 112 LINE",
"672 108 LINE",
"672 76 OFFCURVE",
"673 28 OFFCURVE",
"675 15 CURVE",
"617 -5 LINE",
"614 -2 LINE",
"618 19 OFFCURVE",
"617 69 OFFCURVE",
"617 107 CURVE",
"612 112 LINE",
"408 112 LINE",
"408 139 LINE",
"614 399 LINE"
);
},
{
closed = 1;
nodes = (
"617 144 LINE",
"617 349 LINE SMOOTH",
"617 353 OFFCURVE",
"616 354 OFFCURVE",
"614 354 CURVE SMOOTH",
"612 354 OFFCURVE",
"611 353 OFFCURVE",
"610 352 CURVE SMOOTH",
"585 329 OFFCURVE",
"564 301 OFFCURVE",
"543 274 CURVE SMOOTH",
"516 239 OFFCURVE",
"456 156 OFFCURVE",
"455 143 CURVE",
"458 139 LINE",
"613 139 LINE"
);
},
{
closed = 1;
nodes = (
"179 703 LINE",
"184 695 LINE",
"180 642 OFFCURVE",
"178 588 OFFCURVE",
"178 535 CURVE SMOOTH",
"178 453 OFFCURVE",
"179 335 OFFCURVE",
"181 289 CURVE",
"120 272 LINE",
"112 275 LINE",
"116 358 OFFCURVE",
"117 443 OFFCURVE",
"117 527 CURVE SMOOTH",
"117 594 OFFCURVE",
"127 643 OFFCURVE",
"83 643 CURVE SMOOTH",
"23 643 LINE",
"23 659 LINE"
);
}
);
width = 790;
}
);
unicode = 00BC;
},
{
color = 0;
glyphname = fraction;
lastChange = "2016-09-03 05:26:29 +0000";
layers = (
{
layerId = "21503E60-83E9-42CA-80F5-20ED7CD97021";
paths = (
{
closed = 1;
nodes = (
"266 695 LINE",
"269 684 LINE",
"-168 -4 LINE",
"-199 9 LINE",
"-199 23 LINE",
"234 703 LINE",
"245 704 LINE"
);
}
);
width = 70;
}
);
unicode = 2044;
},
{
color = 0;
glyphname = onehalf;
lastChange = "2016-09-03 05:26:24 +0000";
layers = (
{
components = (
{
name = fraction;
transform = "{1, 0, 0, 1, 344, 0}";
}
);
layerId = "21503E60-83E9-42CA-80F5-20ED7CD97021";
paths = (
{
closed = 1;
nodes = (
"749 47 LINE",
"732 0 LINE",
"417 0 LINE",
"417 10 LINE",
"458 45 OFFCURVE",
"499 80 OFFCURVE",
"537 117 CURVE SMOOTH",
"593 172 OFFCURVE",
"650 233 OFFCURVE",
"650 304 CURVE SMOOTH",
"650 338 OFFCURVE",
"627 383 OFFCURVE",
"568 383 CURVE SMOOTH",
"528 383 OFFCURVE",
"497 364 OFFCURVE",
"469 345 CURVE",
"455 356 LINE",
"494 391 OFFCURVE",
"546 424 OFFCURVE",
"607 424 CURVE SMOOTH",
"669 424 OFFCURVE",
"716 385 OFFCURVE",
"716 331 CURVE SMOOTH",
"716 246 OFFCURVE",
"601 141 OFFCURVE",
"515 58 CURVE SMOOTH",
"514 57 OFFCURVE",
"513 57 OFFCURVE",
"513 56 CURVE SMOOTH",
"513 52 OFFCURVE",
"519 52 OFFCURVE",
"523 52 CURVE SMOOTH",
"745 52 LINE"
);
},
{
closed = 1;
nodes = (
"179 703 LINE",
"184 695 LINE",
"180 642 OFFCURVE",
"178 588 OFFCURVE",
"178 535 CURVE SMOOTH",
"178 453 OFFCURVE",
"179 335 OFFCURVE",
"181 289 CURVE",
"120 272 LINE",
"112 275 LINE",
"116 358 OFFCURVE",
"117 443 OFFCURVE",
"117 527 CURVE SMOOTH",
"117 594 OFFCURVE",
"127 643 OFFCURVE",
"83 643 CURVE SMOOTH",
"23 643 LINE",
"23 659 LINE"
);
}
);
width = 790;
}
);
unicode = 00BD;
},
{
color = 0;
glyphname = threequarters;
lastChange = "2016-09-03 05:26:24 +0000";
layers = (
{
components = (
{
name = fraction;
transform = "{1, 0, 0, 1, 388, 0}";
}
);
layerId = "21503E60-83E9-42CA-80F5-20ED7CD97021";
paths = (
{
closed = 1;
nodes = (
"179 507 CURVE",
"179 502 LINE",
"273 495 OFFCURVE",
"326 466 OFFCURVE",
"326 407 CURVE SMOOTH",
"326 325 OFFCURVE",
"232 268 OFFCURVE",
"136 268 CURVE SMOOTH",
"95 268 OFFCURVE",
"55 280 OFFCURVE",
"23 301 CURVE",
"19 307 LINE",
"49 351 LINE",
"56 351 LINE",
"78 320 OFFCURVE",
"111 292 OFFCURVE",
"154 292 CURVE SMOOTH",
"219 292 OFFCURVE",
"259 338 OFFCURVE",
"259 390 CURVE SMOOTH",
"259 415 OFFCURVE",
"244 440 OFFCURVE",
"224 458 CURVE SMOOTH",
"196 483 OFFCURVE",
"138 485 OFFCURVE",
"95 485 CURVE",
"96 501 LINE",
"182 518 OFFCURVE",
"233 547 OFFCURVE",
"233 602 CURVE SMOOTH",
"233 641 OFFCURVE",
"196 661 OFFCURVE",
"155 661 CURVE SMOOTH",
"126 661 OFFCURVE",
"94 644 OFFCURVE",
"67 630 CURVE",
"57 643 LINE",
"94 668 OFFCURVE",
"142 699 OFFCURVE",
"188 699 CURVE SMOOTH",
"244 699 OFFCURVE",
"293 672 OFFCURVE",
"293 619 CURVE SMOOTH",
"293 561 OFFCURVE",
"241 522 OFFCURVE"
);
},
{
closed = 1;
nodes = (
"668 420 LINE",
"674 417 LINE",
"673 401 OFFCURVE",
"672 237 OFFCURVE",
"672 144 CURVE",
"678 139 LINE",
"746 139 LINE",
"749 135 LINE",
"737 112 LINE",
"678 112 LINE",
"672 108 LINE",
"672 76 OFFCURVE",
"673 28 OFFCURVE",
"675 15 CURVE",
"617 -5 LINE",
"614 -2 LINE",
"618 19 OFFCURVE",
"617 69 OFFCURVE",
"617 107 CURVE",
"612 112 LINE",
"408 112 LINE",
"408 139 LINE",
"614 399 LINE"
);
},
{
closed = 1;
nodes = (
"617 144 LINE",
"617 349 LINE SMOOTH",
"617 353 OFFCURVE",
"616 354 OFFCURVE",
"614 354 CURVE SMOOTH",
"612 354 OFFCURVE",
"611 353 OFFCURVE",
"610 352 CURVE SMOOTH",
"585 329 OFFCURVE",
"564 301 OFFCURVE",
"543 274 CURVE SMOOTH",
"516 239 OFFCURVE",
"456 156 OFFCURVE",
"455 143 CURVE",
"458 139 LINE",
"613 139 LINE"
);
}
);
width = 790;
}
);
unicode = 00BE;
},
{
color = 1;
glyphname = germandbls;
lastChange = "2016-09-03 05:20:22 +0000";
layers = (
{
layerId = "21503E60-83E9-42CA-80F5-20ED7CD97021";
paths = (
{
closed = 1;
nodes = (
"10 434 LINE",
"71 434 LINE",
"77 440 LINE",
"77 475 OFFCURVE",
"79 526 OFFCURVE",
"95 562 CURVE SMOOTH",
"125 632 OFFCURVE",
"185 669 OFFCURVE",
"248 669 CURVE SMOOTH",
"302 669 OFFCURVE",
"328 642 OFFCURVE",
"341 615 CURVE",
"283 561 LINE",
"271 565 LINE",
"267 586 OFFCURVE",
"260 629 OFFCURVE",
"213 629 CURVE SMOOTH",
"170 629 OFFCURVE",
"153 542 OFFCURVE",
"153 440 CURVE",
"157 434 LINE",
"399 434 LINE",
"404 427 LINE",
"397 405 LINE",
"314 259 LINE",
"365 218 OFFCURVE",
"435 162 OFFCURVE",
"435 68 CURVE",
"434 -60 OFFCURVE",
"331 -160 OFFCURVE",
"169 -160 CURVE",
"164 -136 LINE",
"249 -119 OFFCURVE",
"326 -61 OFFCURVE",
"349 6 CURVE SMOOTH",
"364 50 OFFCURVE",
"360 89 OFFCURVE",
"339 127 CURVE SMOOTH",
"311 176 OFFCURVE",
"263 219 OFFCURVE",
"234 242 CURVE",
"234 266 LINE",
"310 399 LINE",
"157 399 LINE",
"151 393 LINE",
"151 282 LINE SMOOTH",
"151 188 OFFCURVE",
"154 93 OFFCURVE",
"161 12 CURVE",
"82 -12 LINE",
"65 -1 LINE",
"72 98 OFFCURVE",
"78 192 OFFCURVE",
"78 283 CURVE SMOOTH",
"78 391 LINE",
"72 399 LINE",
"4 399 LINE",
"-1 406 LINE",
"3 428 LINE"
);
}
);
width = 453;
}
);
unicode = 00DF;
},
{
color = 1;
glyphname = Oslash;
lastChange = "2016-09-03 05:24:09 +0000";
layers = (
{
components = (
{
name = O;
}
);
layerId = "21503E60-83E9-42CA-80F5-20ED7CD97021";
paths = (
{
closed = 1;
nodes = (
"577 784 LINE",
"582 773 LINE",
"193 -123 LINE",
"161 -115 LINE",
"158 -101 LINE",
"544 787 LINE",
"555 789 LINE"
);
}
);
width = 737;
}
);
leftMetricsKey = O;
rightMetricsKey = O;
unicode = 00D8;
},
{
color = 1;
glyphname = oslash;
lastChange = "2016-09-03 06:16:06 +0000";
layers = (
{
components = (
{
name = o;
}
);
layerId = "21503E60-83E9-42CA-80F5-20ED7CD97021";
paths = (
{
closed = 1;
nodes = (
"396 526 LINE",
"402 515 LINE",
"140 -90 LINE",
"108 -82 LINE",
"106 -68 LINE",
"364 529 LINE",
"374 531 LINE"
);
}
);
width = 520;
}
);
leftKerningGroup = o_L;
unicode = 00F8;
},
{
color = 1;
glyphname = Eth;
lastChange = "2016-09-03 05:22:27 +0000";
layers = (
{
components = (
{
name = D;
transform = "{1, 0, 0, 1, 9, 0}";
}
);
layerId = "21503E60-83E9-42CA-80F5-20ED7CD97021";
paths = (
{
closed = 1;
nodes = (
"314 340 LINE",
"19 340 LINE",
"26 380 LINE",
"320 380 LINE"
);
}
);
width = 746;
}
);
rightMetricsKey = D;
unicode = 00D0;
},
{
color = 1;
glyphname = currency;
lastChange = "2016-09-03 05:20:22 +0000";
layers = (
{
layerId = "21503E60-83E9-42CA-80F5-20ED7CD97021";
paths = (
{
closed = 1;
nodes = (
"122 531 LINE",
"170 483 LINE",
"207 511 OFFCURVE",
"247 524 OFFCURVE",
"295 524 CURVE SMOOTH",
"343 524 OFFCURVE",
"382 511 OFFCURVE",
"420 483 CURVE",
"468 531 LINE",
"515 484 LINE",
"466 435 LINE",
"496 401 OFFCURVE",
"508 365 OFFCURVE",
"508 313 CURVE SMOOTH",
"508 263 OFFCURVE",
"496 228 OFFCURVE",
"466 190 CURVE",
"515 141 LINE",
"470 96 LINE",
"422 144 LINE",
"385 114 OFFCURVE",
"348 102 OFFCURVE",
"295 102 CURVE SMOOTH",
"242 102 OFFCURVE",
"205 114 OFFCURVE",
"168 144 CURVE",
"120 96 LINE",
"75 141 LINE",
"124 190 LINE",
"94 228 OFFCURVE",
"82 263 OFFCURVE",
"82 313 CURVE SMOOTH",
"82 365 OFFCURVE",
"94 401 OFFCURVE",
"124 435 CURVE",
"75 484 LINE"
);
},
{
closed = 1;
nodes = (
"298 465 CURVE SMOOTH",
"211 465 OFFCURVE",
"141 397 OFFCURVE",
"141 314 CURVE SMOOTH",
"141 229 OFFCURVE",
"210 161 OFFCURVE",
"295 161 CURVE SMOOTH",
"380 161 OFFCURVE",
"449 229 OFFCURVE",
"449 313 CURVE SMOOTH",
"449 395 OFFCURVE",
"379 465 OFFCURVE"
);
}
);
width = 590;
}
);
unicode = 00A4;
},
{
color = 1;
glyphname = paragraph;
lastChange = "2016-09-03 05:20:22 +0000";
layers = (
{
layerId = "21503E60-83E9-42CA-80F5-20ED7CD97021";
paths = (
{
closed = 1;
nodes = (
"294 13 CURVE",
"356 -6 LINE",
"363 1 LINE",
"361 141 OFFCURVE",
"356 282 OFFCURVE",
"356 423 CURVE SMOOTH",
"356 482 OFFCURVE",
"358 541 OFFCURVE",
"361 600 CURVE SMOOTH",
"364 640 OFFCURVE",
"397 649 OFFCURVE",
"435 654 CURVE",
"435 672 LINE",
"428 679 LINE",
"278 682 LINE SMOOTH",
"130 685 OFFCURVE",
"35 590 OFFCURVE",
"29 484 CURVE SMOOTH",
"25 400 OFFCURVE",
"77 303 OFFCURVE",
"205 293 CURVE SMOOTH",
"234 291 OFFCURVE",
"301 293 OFFCURVE",
"301 274 CURVE SMOOTH",
"301 249 OFFCURVE",
"295 114 OFFCURVE"
);
}
);
width = 453;
}
);
unicode = 00B6;
},
{
color = 1;
glyphname = AE;
lastChange = "2016-09-03 05:26:00 +0000";
layers = (
{
layerId = "21503E60-83E9-42CA-80F5-20ED7CD97021";
paths = (
{
closed = 1;
nodes = (
"366 568 LINE SMOOTH",
"366 577 OFFCURVE",
"362 577 OFFCURVE",
"360 572 CURVE",
"244 328 LINE SMOOTH",
"243 326 OFFCURVE",
"243 320 OFFCURVE",
"243 319 CURVE SMOOTH",
"243 316 OFFCURVE",
"247 312 OFFCURVE",
"250 312 CURVE SMOOTH",
"366 312 LINE"
);
},
{
closed = 1;
nodes = (
"366 273 LINE",
"224 273 LINE SMOOTH",
"220 273 OFFCURVE",
"216 269 OFFCURVE",
"214 265 CURVE SMOOTH",
"97 17 LINE",
"6 -2 LINE",
"3 8 LINE",
"122 208 OFFCURVE",
"238 414 OFFCURVE",
"343 622 CURVE",
"344 625 OFFCURVE",
"344 626 OFFCURVE",
"344 629 CURVE SMOOTH",
"344 632 OFFCURVE",
"341 638 OFFCURVE",
"332 640 CURVE",
"241 655 LINE",
"241 682 LINE",
"435 682 LINE SMOOTH",
"505 682 OFFCURVE",
"606 687 OFFCURVE",
"677 688 CURVE SMOOTH",
"695 688 OFFCURVE",
"710 688 OFFCURVE",
"723 687 CURVE",
"721 637 LINE",
"717 630 LINE",
"648 634 OFFCURVE",
"515 640 OFFCURVE",
"508 640 CURVE SMOOTH",
"468 640 LINE",
"448 636 OFFCURVE",
"444 599 OFFCURVE",
"444 564 CURVE SMOOTH",
"444 398 LINE SMOOTH",
"444 381 OFFCURVE",
"473 384 OFFCURVE",
"510 384 CURVE SMOOTH",
"563 384 OFFCURVE",
"637 387 OFFCURVE",
"690 391 CURVE",
"696 384 LINE",
"690 336 LINE",
"651 339 OFFCURVE",
"611 342 OFFCURVE",
"572 342 CURVE SMOOTH",
"514 342 OFFCURVE",
"443 345 OFFCURVE",
"443 327 CURVE SMOOTH",
"443 188 LINE SMOOTH",
"443 150 OFFCURVE",
"444 101 OFFCURVE",
"458 76 CURVE SMOOTH",
"472 50 OFFCURVE",
"493 44 OFFCURVE",
"554 44 CURVE SMOOTH",
"601 44 OFFCURVE",
"624 44 OFFCURVE",
"788 58 CURVE",
"793 53 LINE",
"780 0 LINE",
"392 0 LINE",
"372 11 OFFCURVE",
"366 39 OFFCURVE",
"366 66 CURVE SMOOTH"
);
}
);
width = 797;
}
);
leftMetricsKey = A;
rightMetricsKey = E;
unicode = 00C6;
},
{
color = 1;
glyphname = ae;
lastChange = "2016-09-03 06:16:06 +0000";
layers = (
{
layerId = "21503E60-83E9-42CA-80F5-20ED7CD97021";
paths = (
{
closed = 1;
nodes = (
"707 319 CURVE SMOOTH",
"425 197 LINE",
"431 134 OFFCURVE",
"465 56 OFFCURVE",
"554 56 CURVE SMOOTH",
"609 56 OFFCURVE",
"663 89 OFFCURVE",
"708 124 CURVE",
"719 122 LINE",
"732 104 LINE",
"670 46 OFFCURVE",
"590 -12 OFFCURVE",
"504 -12 CURVE SMOOTH",
"436 -12 OFFCURVE",
"395 20 OFFCURVE",
"370 66 CURVE",
"319 29 OFFCURVE",
"254 -12 OFFCURVE",
"187 -12 CURVE SMOOTH",
"76 -12 OFFCURVE",
"40 95 OFFCURVE",
"40 185 CURVE SMOOTH",
"40 326 OFFCURVE",
"108 466 OFFCURVE",
"278 466 CURVE SMOOTH",
"320 466 OFFCURVE",
"385 446 OFFCURVE",
"407 407 CURVE",
"455 453 OFFCURVE",
"519 478 OFFCURVE",
"586 478 CURVE SMOOTH",
"672 478 OFFCURVE",
"728 417 OFFCURVE",
"728 340 CURVE SMOOTH",
"728 328 OFFCURVE",
"718 324 OFFCURVE"
);
},
{
closed = 1;
nodes = (
"467 396 CURVE",
"428 354 OFFCURVE",
"421 309 OFFCURVE",
"421 260 CURVE SMOOTH",
"421 254 OFFCURVE",
"422 248 OFFCURVE",
"423 242 CURVE",
"427 238 LINE",
"629 318 LINE",
"635 320 OFFCURVE",
"642 328 OFFCURVE",
"642 344 CURVE SMOOTH",
"642 386 OFFCURVE",
"607 438 OFFCURVE",
"551 438 CURVE SMOOTH",
"518 438 OFFCURVE",
"488 422 OFFCURVE"
);
},
{
closed = 1;
nodes = (
"363 348 CURVE",
"362 367 OFFCURVE",
"359 385 OFFCURVE",
"347 398 CURVE SMOOTH",
"329 417 OFFCURVE",
"304 431 OFFCURVE",
"279 431 CURVE SMOOTH",
"243 431 OFFCURVE",
"210 418 OFFCURVE",
"184 393 CURVE SMOOTH",
"161 371 OFFCURVE",
"132 316 OFFCURVE",
"130 215 CURVE SMOOTH",
"129 173 OFFCURVE",
"135 130 OFFCURVE",
"158 95 CURVE SMOOTH",
"179 62 OFFCURVE",
"220 54 OFFCURVE",
"257 54 CURVE SMOOTH",
"294 54 OFFCURVE",
"328 74 OFFCURVE",
"357 95 CURVE",
"343 135 OFFCURVE",
"338 181 OFFCURVE",
"338 226 CURVE SMOOTH",
"338 268 OFFCURVE",
"345 311 OFFCURVE"
);
}
);
width = 752;
}
);
leftKerningGroup = o_L;
leftMetricsKey = a;
rightMetricsKey = e;
unicode = 00E6;
},
{
color = 1;
glyphname = eth;
lastChange = "2016-09-03 05:20:22 +0000";
layers = (
{
layerId = "21503E60-83E9-42CA-80F5-20ED7CD97021";
paths = (
{
closed = 1;
nodes = (
"379 649 LINE",
"119 511 LINE",
"106 550 LINE",
"366 688 LINE"
);
},
{
closed = 1;
nodes = (
"158 684 LINE",
"272 644 OFFCURVE",
"390 512 OFFCURVE",
"415 356 CURVE SMOOTH",
"431 256 OFFCURVE",
"433 142 OFFCURVE",
"363 61 CURVE SMOOTH",
"335 28 OFFCURVE",
"297 5 OFFCURVE",
"256 -2 CURVE SMOOTH",
"199 -11 OFFCURVE",
"145 -11 OFFCURVE",
"104 25 CURVE SMOOTH",
"64 60 OFFCURVE",
"39 129 OFFCURVE",
"32 175 CURVE SMOOTH",
"12 302 OFFCURVE",
"66 437 OFFCURVE",
"217 461 CURVE SMOOTH",
"238 464 OFFCURVE",
"261 465 OFFCURVE",
"298 461 CURVE",
"301 466 LINE",
"261 561 OFFCURVE",
"216 620 OFFCURVE",
"144 662 CURVE"
);
},
{
closed = 1;
nodes = (
"345 145 CURVE SMOOTH",
"355 198 OFFCURVE",
"352 255 OFFCURVE",
"344 308 CURVE SMOOTH",
"338 348 OFFCURVE",
"328 387 OFFCURVE",
"314 424 CURVE",
"288 431 OFFCURVE",
"260 435 OFFCURVE",
"233 431 CURVE SMOOTH",
"117 413 OFFCURVE",
"101 280 OFFCURVE",
"115 190 CURVE SMOOTH",
"123 143 OFFCURVE",
"164 24 OFFCURVE",
"262 39 CURVE SMOOTH",
"314 47 OFFCURVE",
"337 98 OFFCURVE"
);
}
);
width = 461;
}
);
unicode = 00F0;
},
{
color = 1;
glyphname = OE;
lastChange = "2016-09-03 05:26:00 +0000";
layers = (
{
layerId = "21503E60-83E9-42CA-80F5-20ED7CD97021";
paths = (
{
closed = 1;
nodes = (
"890 336 LINE",
"851 339 OFFCURVE",
"811 342 OFFCURVE",
"772 342 CURVE SMOOTH",
"714 342 OFFCURVE",
"643 345 OFFCURVE",
"643 327 CURVE SMOOTH",
"643 188 LINE SMOOTH",
"643 150 OFFCURVE",
"644 101 OFFCURVE",
"658 76 CURVE SMOOTH",
"672 50 OFFCURVE",
"693 44 OFFCURVE",
"754 44 CURVE SMOOTH",
"801 44 OFFCURVE",
"824 44 OFFCURVE",
"988 58 CURVE",
"993 53 LINE",
"980 0 LINE",
"439 0 LINE",
"436 6 OFFCURVE",
"506 38 OFFCURVE",
"520 44 CURVE SMOOTH",
"533 50 OFFCURVE",
"566 58 OFFCURVE",
"566 66 CURVE SMOOTH",
"566 558 LINE SMOOTH",
"566 572 OFFCURVE",
"566 602 OFFCURVE",
"557 622 CURVE SMOOTH",
"551 635 OFFCURVE",
"528 647 OFFCURVE",
"481 654 CURVE",
"480 674 LINE",
"487 681 LINE",
"635 682 LINE SMOOTH",
"705 682 OFFCURVE",
"806 687 OFFCURVE",
"877 688 CURVE SMOOTH",
"895 688 OFFCURVE",
"910 688 OFFCURVE",
"923 687 CURVE",
"921 637 LINE",
"917 630 LINE",
"848 634 OFFCURVE",
"715 640 OFFCURVE",
"708 640 CURVE SMOOTH",
"668 640 LINE",
"648 636 OFFCURVE",
"644 599 OFFCURVE",
"644 564 CURVE SMOOTH",
"644 398 LINE SMOOTH",
"644 381 OFFCURVE",
"673 384 OFFCURVE",
"710 384 CURVE SMOOTH",
"763 384 OFFCURVE",
"837 387 OFFCURVE",
"890 391 CURVE",
"896 384 LINE"
);
},
{
closed = 1;
nodes = (
"610 90 LINE",
"547 25 OFFCURVE",
"442 -18 OFFCURVE",
"320 -18 CURVE SMOOTH",
"115 -18 OFFCURVE",
"41 153 OFFCURVE",
"41 318 CURVE SMOOTH",
"41 447 OFFCURVE",
"68 532 OFFCURVE",
"142 612 CURVE SMOOTH",
"205 680 OFFCURVE",
"310 700 OFFCURVE",
"403 700 CURVE SMOOTH",
"478 700 OFFCURVE",
"557 678 OFFCURVE",
"611 624 CURVE"
);
},
{
closed = 1;
nodes = (
"134 348 CURVE SMOOTH",
"134 254 OFFCURVE",
"151 168 OFFCURVE",
"213 100 CURVE SMOOTH",
"273 33 OFFCURVE",
"334 23 OFFCURVE",
"373 23 CURVE SMOOTH",
"539 23 OFFCURVE",
"601 186 OFFCURVE",
"601 336 CURVE SMOOTH",
"601 478 OFFCURVE",
"540 660 OFFCURVE",
"371 660 CURVE SMOOTH",
"198 660 OFFCURVE",
"134 500 OFFCURVE"
);
}
);
width = 997;
}
);
leftMetricsKey = O;
rightMetricsKey = E;
unicode = 0152;
},
{
color = 1;
glyphname = oe;
lastChange = "2016-09-03 06:16:06 +0000";
layers = (
{
layerId = "21503E60-83E9-42CA-80F5-20ED7CD97021";
paths = (
{
closed = 1;
nodes = (
"530 396 CURVE",
"491 354 OFFCURVE",
"484 309 OFFCURVE",
"484 260 CURVE SMOOTH",
"484 254 OFFCURVE",
"485 248 OFFCURVE",
"486 242 CURVE",
"490 238 LINE",
"692 318 LINE",
"698 320 OFFCURVE",
"705 328 OFFCURVE",
"705 344 CURVE SMOOTH",
"705 386 OFFCURVE",
"670 438 OFFCURVE",
"614 438 CURVE SMOOTH",
"581 438 OFFCURVE",
"551 422 OFFCURVE"
);
},
{
closed = 1;
nodes = (
"770 319 CURVE SMOOTH",
"488 197 LINE",
"494 134 OFFCURVE",
"528 56 OFFCURVE",
"617 56 CURVE SMOOTH",
"672 56 OFFCURVE",
"726 89 OFFCURVE",
"771 124 CURVE",
"782 122 LINE",
"795 104 LINE",
"733 46 OFFCURVE",
"653 -12 OFFCURVE",
"567 -12 CURVE SMOOTH",
"433 -12 OFFCURVE",
"401 113 OFFCURVE",
"401 226 CURVE SMOOTH",
"401 284 OFFCURVE",
"413 343 OFFCURVE",
"452 388 CURVE SMOOTH",
"501 445 OFFCURVE",
"573 478 OFFCURVE",
"649 478 CURVE SMOOTH",
"735 478 OFFCURVE",
"791 417 OFFCURVE",
"791 340 CURVE SMOOTH",
"791 328 OFFCURVE",
"781 324 OFFCURVE"
);
},
{
closed = 1;
nodes = (
"142 316 CURVE SMOOTH",
"136 291 OFFCURVE",
"134 265 OFFCURVE",
"134 239 CURVE SMOOTH",
"134 155 OFFCURVE",
"160 27 OFFCURVE",
"269 27 CURVE SMOOTH",
"377 27 OFFCURVE",
"400 137 OFFCURVE",
"400 220 CURVE SMOOTH",
"400 302 OFFCURVE",
"381 426 OFFCURVE",
"268 426 CURVE SMOOTH",
"214 426 OFFCURVE",
"160 390 OFFCURVE"
);
},
{
closed = 1;
nodes = (
"468 119 LINE",
"459 97 OFFCURVE",
"447 77 OFFCURVE",
"431 59 CURVE SMOOTH",
"384 6 OFFCURVE",
"312 -14 OFFCURVE",
"242 -14 CURVE SMOOTH",
"104 -14 OFFCURVE",
"55 90 OFFCURVE",
"48 196 CURVE",
"48 265 OFFCURVE",
"55 339 OFFCURVE",
"103 391 CURVE SMOOTH",
"150 443 OFFCURVE",
"221 465 OFFCURVE",
"291 465 CURVE SMOOTH",
"393 465 OFFCURVE",
"448 410 OFFCURVE",
"473 340 CURVE"
);
}
);
width = 815;
}
);
leftKerningGroup = o_L;
leftMetricsKey = o;
rightMetricsKey = e;
unicode = 0153;
},
{
color = 1;
glyphname = Thorn;
lastChange = "2016-09-03 05:20:22 +0000";
layers = (
{
layerId = "21503E60-83E9-42CA-80F5-20ED7CD97021";
paths = (
{
closed = 1;
nodes = (
"236 535 CURVE SMOOTH",
"178 535 LINE SMOOTH",
"171 535 OFFCURVE",
"169 529 OFFCURVE",
"169 524 CURVE",
"165 436 OFFCURVE",
"163 323 OFFCURVE",
"163 236 CURVE SMOOTH",
"163 227 OFFCURVE",
"170 224 OFFCURVE",
"174 224 CURVE SMOOTH",
"313 224 OFFCURVE",
"409 290 OFFCURVE",
"409 401 CURVE SMOOTH",
"409 505 OFFCURVE",
"328 535 OFFCURVE"
);
},
{
closed = 1;
nodes = (
"175 673 LINE",
"171 654 OFFCURVE",
"170 601 OFFCURVE",
"169 574 CURVE",
"274 574 LINE SMOOTH",
"438 574 OFFCURVE",
"505 515 OFFCURVE",
"505 409 CURVE SMOOTH",
"505 350 OFFCURVE",
"483 295 OFFCURVE",
"441 253 CURVE SMOOTH",
"397 208 OFFCURVE",
"324 193 OFFCURVE",
"259 188 CURVE SMOOTH",
"230 186 OFFCURVE",
"165 188 OFFCURVE",
"165 169 CURVE SMOOTH",
"165 145 OFFCURVE",
"171 123 OFFCURVE",
"172 22 CURVE",
"89 -6 LINE",
"82 1 LINE",
"84 141 OFFCURVE",
"89 282 OFFCURVE",
"89 423 CURVE SMOOTH",
"89 482 OFFCURVE",
"87 541 OFFCURVE",
"84 600 CURVE SMOOTH",
"81 640 OFFCURVE",
"48 649 OFFCURVE",
"10 654 CURVE",
"10 672 LINE",
"17 679 LINE",
"168 679 LINE"
);
}
);
width = 527;
}
);
unicode = 00DE;
},
{
color = 1;
glyphname = thorn;
lastChange = "2016-09-03 05:20:22 +0000";
layers = (
{
layerId = "21503E60-83E9-42CA-80F5-20ED7CD97021";
paths = (
{
closed = 1;
nodes = (
"199 -206 CURVE",
"118 -237 LINE",
"108 -226 LINE",
"113 -168 OFFCURVE",
"114 37 OFFCURVE",
"114 94 CURVE SMOOTH",
"114 315 LINE SMOOTH",
"114 360 OFFCURVE",
"105 412 OFFCURVE",
"75 412 CURVE SMOOTH",
"54 412 OFFCURVE",
"26 397 OFFCURVE",
"2 383 CURVE",
"-12 402 LINE",
"28 434 OFFCURVE",
"80 470 OFFCURVE",
"124 470 CURVE SMOOTH",
"160 470 OFFCURVE",
"188 449 OFFCURVE",
"190 380 CURVE SMOOTH",
"191 349 OFFCURVE",
"191 321 OFFCURVE",
"191 311 CURVE",
"199 307 LINE",
"253 350 OFFCURVE",
"312 381 OFFCURVE",
"381 381 CURVE SMOOTH",
"483 381 OFFCURVE",
"518 289 OFFCURVE",
"518 214 CURVE SMOOTH",
"518 67 OFFCURVE",
"413 -95 OFFCURVE",
"258 -95 CURVE SMOOTH",
"238 -95 OFFCURVE",
"221 -92 OFFCURVE",
"202 -87 CURVE",
"192 -95 LINE",
"194 -141 OFFCURVE",
"194 -154 OFFCURVE"
);
},
{
closed = 1;
nodes = (
"191 -18 CURVE",
"215 -40 OFFCURVE",
"246 -55 OFFCURVE",
"279 -55 CURVE SMOOTH",
"400 -55 OFFCURVE",
"434 60 OFFCURVE",
"434 155 CURVE SMOOTH",
"434 242 OFFCURVE",
"395 319 OFFCURVE",
"331 319 CURVE SMOOTH",
"280 319 OFFCURVE",
"239 298 OFFCURVE",
"192 261 CURVE",
"192 255 OFFCURVE",
"190 157 OFFCURVE",
"190 146 CURVE SMOOTH",
"190 64 OFFCURVE",
"191 -17 OFFCURVE"
);
}
